<svg xmlns="http://www.w3.org/2000/svg" width="945" height="240.998" viewBox="0 0 945 240.998">
  <path id="Subtraction_2" data-name="Subtraction 2" d="M23255,4982.833h-370l0-241h822.887l0,.018c.746-.013,1.43-.018,2.088-.018a120.54,120.54,0,0,1,24.189,2.446,119.178,119.178,0,0,1,42.918,18.116,120.545,120.545,0,0,1-20.389,210.76,119.182,119.182,0,0,1-22.529,7.015,120.54,120.54,0,0,1-24.189,2.446c-.713,0-1.395-.006-2.086-.018l0,.018H23255l0,.214Z" transform="translate(-22885.002 -4741.835)" fill="#44484d" opacity="0.889"/>
</svg>
