<svg xmlns="http://www.w3.org/2000/svg" xmlns:xlink="http://www.w3.org/1999/xlink" width="1920" height="722" viewBox="0 0 1920 722">
  <defs>
    <clipPath id="clip-path">
      <rect id="Rectangle_1466" data-name="Rectangle 1466" width="1920" height="722" transform="translate(0 4015)" fill="#f7f8fd"/>
    </clipPath>
    <clipPath id="clip-path-2">
      <rect id="Rectangle_1465" data-name="Rectangle 1465" width="2621.754" height="1046.08" fill="none"/>
    </clipPath>
    <clipPath id="clip-path-3">
      <rect id="Rectangle_1452" data-name="Rectangle 1452" width="2092.161" height="1046.08" fill="none"/>
    </clipPath>
    <clipPath id="clip-path-4">
      <rect id="Rectangle_1451" data-name="Rectangle 1451" width="2327.458" height="734.895" fill="none"/>
    </clipPath>
  </defs>
  <g id="Mask_Group_11" data-name="Mask Group 11" transform="translate(0 -4015)" clip-path="url(#clip-path)">
    <g id="Group_3204" data-name="Group 3204" transform="translate(-458 3760.92)" opacity="0.203">
      <g id="Group_3203" data-name="Group 3203" transform="translate(-174 237)" clip-path="url(#clip-path-2)">
        <g id="Group_3178" data-name="Group 3178" transform="translate(529.593)">
          <g id="Group_3177" data-name="Group 3177" clip-path="url(#clip-path-3)">
            <g id="Group_3176" data-name="Group 3176" transform="translate(-529.593 155.594)" opacity="0.2">
              <g id="Group_3175" data-name="Group 3175">
                <g id="Group_3174" data-name="Group 3174" clip-path="url(#clip-path-4)">
                  <path id="Path_961" data-name="Path 961" d="M409.066,383.98l-.138-.079L303.1,322.8V200.444l.138-.079,105.829-61.1,105.963,61.179V322.8l-.137.079Zm-105.417-61.5,105.417,60.861,105.413-60.861V200.762L409.066,139.9,303.649,200.762Z" transform="translate(966.042 288.882)" fill="#646464"/>
                  <path id="Path_962" data-name="Path 962" d="M278.117,279.169a.275.275,0,0,1-.138-.513l105.55-60.941V95.834a.275.275,0,1,1,.55,0v122.2l-.137.079-105.688,61.02A.274.274,0,0,1,278.117,279.169Z" transform="translate(885.613 149.573)" fill="#646464"/>
                  <path id="Path_963" data-name="Path 963" d="M383.8,369.4l-.138-.079-105.825-61.1V185.861l.138-.079,105.825-61.1.138.079,105.692,61.02a.275.275,0,1,1-.275.476L383.8,125.318,278.391,186.179V307.9L383.8,368.763l105.554-60.945a.275.275,0,1,1,.275.476Z" transform="translate(885.612 242.447)" fill="#646464"/>
                  <path id="Path_964" data-name="Path 964" d="M434.321,230.086l-.138-.079L328.5,168.987a.275.275,0,1,1,.275-.476l105.55,60.941,105.554-60.941a.275.275,0,0,1,.275.476Z" transform="translate(1046.474 381.756)" fill="#646464"/>
                  <path id="Path_965" data-name="Path 965" d="M540.012,186.3a.274.274,0,0,1-.137-.037L434.321,125.318,328.77,186.258a.275.275,0,0,1-.275-.476l105.825-61.1.137.079,105.692,61.02a.275.275,0,0,1-.138.513Z" transform="translate(1046.473 242.447)" fill="#646464"/>
                  <path id="Path_966" data-name="Path 966" d="M535.354,124.683l.138.079,105.829,61.1V308.215l-.138.079L535.354,369.4l-.138-.079-105.825-61.1V185.861l.137-.079Zm105.417,61.5L535.354,125.318,429.941,186.179V307.9l105.413,60.865L640.771,307.9Z" transform="translate(1368.196 242.447)" fill="#646464"/>
                  <path id="Path_967" data-name="Path 967" d="M480.183,308.335a.275.275,0,0,1-.275-.275v-122.2l105.825-61.1a.275.275,0,0,1,.275.476l-105.55,60.941V308.06A.275.275,0,0,1,480.183,308.335Z" transform="translate(1529.058 242.446)" fill="#646464"/>
                  <path id="Path_968" data-name="Path 968" d="M505.441,264.586a.275.275,0,0,1-.275-.275v-122.2L611.133,80.934l105.825,61.1a.275.275,0,0,1-.275.476L611.133,81.569,505.716,142.43V264.311A.275.275,0,0,1,505.441,264.586Z" transform="translate(1609.487 103.136)" fill="#646464"/>
                  <path id="Line_479" data-name="Line 479" d="M0,122.311a.275.275,0,0,1-.275-.275V0A.275.275,0,0,1,0-.275.275.275,0,0,1,.275,0V122.036A.275.275,0,0,1,0,122.311Z" transform="translate(1797.863 428.469)" fill="#646464"/>
                  <path id="Path_969" data-name="Path 969" d="M459.583,80.934l105.963,61.179V264.47l-.137.079-105.825,61.1-.138-.079-105.829-61.1V142.112l.137-.079ZM565,142.43,459.583,81.569,354.166,142.43V264.152l105.417,60.861L565,264.152Z" transform="translate(1126.904 103.136)" fill="#646464"/>
                  <path id="Path_970" data-name="Path 970" d="M404.408,264.586a.275.275,0,0,1-.275-.275v-122.2l105.825-61.1a.275.275,0,0,1,.275.476L404.683,142.43V264.311A.275.275,0,0,1,404.408,264.586Z" transform="translate(1287.767 103.137)" fill="#646464"/>
                  <path id="Line_480" data-name="Line 480" d="M0,61.295a.275.275,0,0,1-.238-.138.275.275,0,0,1,.1-.376L105.55-.238a.275.275,0,0,1,.376.1.275.275,0,0,1-.1.376L.138,61.258A.274.274,0,0,1,0,61.295Z" transform="translate(1797.863 367.447)" fill="#646464"/>
                  <path id="Path_971" data-name="Path 971" d="M409.063,325.649l-.138-.079L303.1,264.47V142.113l.137-.079,105.688-61.02a.275.275,0,1,1,.275.476L303.65,142.43V264.153l105.413,60.861,105.413-60.861V142.271a.275.275,0,0,1,.55,0v122.2l-.138.079Z" transform="translate(966.044 103.137)" fill="#646464"/>
                  <path id="Path_972" data-name="Path 972" d="M383.808,37.185l.137.079,105.825,61.1V220.721l-.138.079L383.808,281.9l-.138-.079-105.829-61.1V98.364l.138-.079Zm105.413,61.5L383.808,37.82,278.391,98.681V220.4l105.417,60.861L489.221,220.4Z" transform="translate(885.613 -36.174)" fill="#646464"/>
                  <path id="Path_973" data-name="Path 973" d="M434.321,281.854a.275.275,0,0,1-.138-.513L539.738,220.4V98.678L434.321,37.821,328.908,98.678V220.559a.275.275,0,1,1-.55,0V98.36l.138-.079,105.825-61.1.138.079,105.829,61.1V220.718l-.137.079-105.692,61.02A.274.274,0,0,1,434.321,281.854Z" transform="translate(1046.475 -36.172)" fill="#646464"/>
                  <path id="Line_481" data-name="Line 481" d="M0,122.315a.275.275,0,0,1-.275-.275V0A.275.275,0,0,1,0-.275.275.275,0,0,1,.275,0V122.04A.275.275,0,0,1,0,122.315Z" transform="translate(1163.729 62.348)" fill="#646464"/>
                  <path id="Line_482" data-name="Line 482" d="M0,122.315a.275.275,0,0,1-.275-.275V0A.275.275,0,0,1,0-.275.275.275,0,0,1,.275,0V122.04A.275.275,0,0,1,0,122.315Z" transform="translate(1163.729 62.348)" fill="#646464"/>
                  <path id="Line_483" data-name="Line 483" d="M0,122.315a.275.275,0,0,1-.275-.275V0A.275.275,0,0,1,0-.275.275.275,0,0,1,.275,0V122.04A.275.275,0,0,1,0,122.315Z" transform="translate(1903.551 489.487)" fill="#646464"/>
                  <path id="Line_484" data-name="Line 484" d="M105.687,61.295a.274.274,0,0,1-.137-.037L-.138.238a.275.275,0,0,1-.1-.376.275.275,0,0,1,.376-.1l105.688,61.02a.275.275,0,0,1-.138.513Z" transform="translate(2009.242 428.466)" fill="#646464"/>
                  <path id="Path_974" data-name="Path 974" d="M641.045,279.169a.275.275,0,0,1-.275-.275V157.013L535.354,96.152,429.8,157.092a.275.275,0,0,1-.275-.476l105.825-61.1L641.32,156.7v122.2A.275.275,0,0,1,641.045,279.169Z" transform="translate(1368.195 149.573)" fill="#646464"/>
                  <path id="Path_975" data-name="Path 975" d="M585.871,95.517l.138.079,105.829,61.1V279.053l-.137.079-105.829,61.1-.138-.079-105.825-61.1V156.7l.137-.079Zm105.417,61.5L585.871,96.152,480.458,157.013V278.735L585.871,339.6l105.417-60.861Z" transform="translate(1529.058 149.572)" fill="#646464"/>
                  <path id="Path_976" data-name="Path 976" d="M611.129,157.172,505.3,96.072a.275.275,0,1,1,.275-.476l105.55,60.941L716.683,95.6a.275.275,0,0,1,.275.476Z" transform="translate(1609.488 149.573)" fill="#646464"/>
                  <path id="Path_977" data-name="Path 977" d="M484.838,235.42a.275.275,0,0,1-.275-.275V113.264L379.013,52.323a.275.275,0,1,1,.275-.476l105.825,61.1v122.2A.275.275,0,0,1,484.838,235.42Z" transform="translate(1207.336 10.262)" fill="#646464"/>
                  <path id="Path_978" data-name="Path 978" d="M429.667,250a.275.275,0,0,1-.138-.513l105.55-60.941V66.668a.275.275,0,1,1,.55,0v122.2L429.8,249.966A.274.274,0,0,1,429.667,250Z" transform="translate(1368.196 56.698)" fill="#646464"/>
                  <path id="Line_485" data-name="Line 485" d="M0,122.315a.275.275,0,0,1-.275-.275V0A.275.275,0,0,1,0-.275.275.275,0,0,1,.275,0V122.04A.275.275,0,0,1,0,122.315Z" transform="translate(1692.174 123.368)" fill="#646464"/>
                  <path id="Path_979" data-name="Path 979" d="M303.375,235.42a.275.275,0,0,1-.275-.275v-122.2l.137-.079,105.688-61.02a.275.275,0,0,1,.275.476L303.65,113.264V235.145A.275.275,0,0,1,303.375,235.42Z" transform="translate(966.044 10.263)" fill="#646464"/>
                  <path id="Path_980" data-name="Path 980" d="M383.808,235.42a.275.275,0,0,1-.275-.275V113.264L277.978,52.323a.275.275,0,0,1,.275-.476l105.829,61.1v122.2A.275.275,0,0,1,383.808,235.42Z" transform="translate(885.611 10.262)" fill="#646464"/>
                  <path id="Path_981" data-name="Path 981" d="M535.354,311.066l-.138-.079-105.825-61.1V127.53l.138-.079,105.825-61.1.138.079,105.829,61.1V249.887l-.138.079Zm-105.413-61.5,105.413,60.861L640.771,249.57V127.847L535.354,66.986,429.941,127.847Z" transform="translate(1368.196 56.7)" fill="#646464"/>
                  <path id="Line_486" data-name="Line 486" d="M0,122.315a.275.275,0,0,1-.275-.275V0A.275.275,0,0,1,0-.275.275.275,0,0,1,.275,0V122.04A.275.275,0,0,1,0,122.315Z" transform="translate(2114.929 367.447)" fill="#646464"/>
                  <path id="Path_982" data-name="Path 982" d="M404.409,264.587a.275.275,0,0,1-.138-.513l105.55-60.941V81.252a.275.275,0,1,1,.55,0v122.2l-.137.079L404.546,264.55A.274.274,0,0,1,404.409,264.587Z" transform="translate(1287.767 103.138)" fill="#646464"/>
                  <path id="Path_983" data-name="Path 983" d="M459.583,308.378l-.138-.079L353.616,247.2V125a.275.275,0,1,1,.55,0V246.882l105.417,60.861L565,246.882V125a.275.275,0,0,1,.55,0V247.2l-.138.079Z" transform="translate(1126.903 242.448)" fill="#646464"/>
                  <path id="Path_984" data-name="Path 984" d="M510.1,354.815l-.137-.079-105.825-61.1V171.278l.138-.079L510.1,110.1l.138.079,105.829,61.1V293.636l-.137.079Zm-105.413-61.5L510.1,354.18l105.417-60.861V171.6L510.1,110.735,404.683,171.6Z" transform="translate(1287.766 196.01)" fill="#646464"/>
                  <path id="Path_985" data-name="Path 985" d="M434.321,293.752a.275.275,0,0,1-.275-.275V171.6L328.5,110.656a.275.275,0,0,1,.275-.476l105.825,61.1v122.2A.275.275,0,0,1,434.321,293.752Z" transform="translate(1046.474 196.011)" fill="#646464"/>
                  <path id="Path_986" data-name="Path 986" d="M434.321,398.564l-.137-.079L328.5,337.464a.275.275,0,1,1,.275-.476l105.55,60.94,105.417-60.861V215.345L434.184,154.4a.275.275,0,0,1,.275-.476l105.829,61.1V337.385l-.137.079Z" transform="translate(1046.475 335.321)" fill="#646464"/>
                  <path id="Line_487" data-name="Line 487" d="M0,122.315a.275.275,0,0,1-.275-.275V0A.275.275,0,0,1,0-.275.275.275,0,0,1,.275,0V122.04A.275.275,0,0,1,0,122.315Z" transform="translate(1163.729 550.507)" fill="#646464"/>
                  <path id="Line_488" data-name="Line 488" d="M0,122.315a.275.275,0,0,1-.275-.275V0A.275.275,0,0,1,0-.275.275.275,0,0,1,.275,0V122.04A.275.275,0,0,1,0,122.315Z" transform="translate(1163.729 550.506)" fill="#646464"/>
                  <path id="Path_987" data-name="Path 987" d="M560.616,250.046,454.649,188.867V66.668a.275.275,0,1,1,.55,0V188.55l105.417,60.861,105.55-60.941a.275.275,0,1,1,.275.476Z" transform="translate(1448.625 56.7)" fill="#646464"/>
                  <path id="Path_988" data-name="Path 988" d="M641.046,279.169a.275.275,0,0,1-.275-.275V157.013L535.354,96.152,429.8,157.093a.275.275,0,1,1-.275-.476l105.825-61.1.138.079,105.829,61.1v122.2A.275.275,0,0,1,641.046,279.169Z" transform="translate(1368.196 149.574)" fill="#646464"/>
                  <path id="Path_989" data-name="Path 989" d="M585.871,340.232l-.138-.079-105.825-61.1V156.7l.138-.079,105.825-61.1.138.079,105.829,61.1V279.053l-.137.079Zm-105.413-61.5L585.871,339.6l105.417-60.861V157.013L585.871,96.152,480.458,157.013Z" transform="translate(1529.058 149.574)" fill="#646464"/>
                  <path id="Path_990" data-name="Path 990" d="M379.15,383.934a.275.275,0,0,1-.138-.513l105.55-60.941V200.762l-105.55-60.941a.275.275,0,0,1,.275-.476l105.825,61.1V322.8L379.287,383.9A.274.274,0,0,1,379.15,383.934Z" transform="translate(1207.335 288.885)" fill="#646464"/>
                  <path id="Line_489" data-name="Line 489" d="M0,122.315a.275.275,0,0,1-.275-.275V0A.275.275,0,0,1,0-.275.275.275,0,0,1,.275,0V122.04A.275.275,0,0,1,0,122.315Z" transform="translate(1903.551 489.487)" fill="#646464"/>
                  <path id="Path_991" data-name="Path 991" d="M409.063,383.935a.274.274,0,0,1-.137-.037L303.1,322.8V200.441l.137-.079,105.825-61.1.138.079,105.688,61.016a.275.275,0,0,1-.275.476L409.063,139.9,303.65,200.758V322.481l105.55,60.94a.275.275,0,0,1-.138.513Z" transform="translate(966.044 288.886)" fill="#646464"/>
                  <path id="Path_992" data-name="Path 992" d="M278.116,337.5a.275.275,0,0,1-.138-.513l105.554-60.941V154.166a.275.275,0,1,1,.55,0v122.2l-105.829,61.1A.274.274,0,0,1,278.116,337.5Z" transform="translate(885.611 335.321)" fill="#646464"/>
                  <path id="Path_993" data-name="Path 993" d="M409.067,296.44a.275.275,0,0,1-.138-.513l105.55-60.941V113.264L409.066,52.4,303.65,113.264V235.145a.275.275,0,0,1-.55,0v-122.2l.138-.079,105.829-61.1,105.963,61.179V235.3l-.137.079L409.2,296.4A.274.274,0,0,1,409.067,296.44Z" transform="translate(966.043 10.263)" fill="#646464"/>
                  <path id="Line_490" data-name="Line 490" d="M0,122.315a.275.275,0,0,1-.275-.275V0A.275.275,0,0,1,0-.275.275.275,0,0,1,.275,0V122.04A.275.275,0,0,1,0,122.315Z" transform="translate(1269.417 367.447)" fill="#646464"/>
                  <path id="Line_491" data-name="Line 491" d="M0,122.315a.275.275,0,0,1-.275-.275V0A.275.275,0,0,1,0-.275.275.275,0,0,1,.275,0V122.04A.275.275,0,0,1,0,122.315Z" transform="translate(1375.107 184.388)" fill="#646464"/>
                  <path id="Line_492" data-name="Line 492" d="M105.692,61.3a.274.274,0,0,1-.137-.037L-.137.238a.275.275,0,0,1-.1-.376.275.275,0,0,1,.376-.1l105.692,61.02a.275.275,0,0,1-.138.513Z" transform="translate(1480.796 123.369)" fill="#646464"/>
                  <path id="Path_994" data-name="Path 994" d="M308.029,51.768l.138.079L414,112.947V235.3L308.029,296.479,202.067,235.3V112.947l.138-.079Zm105.417,61.5L308.029,52.4,202.617,113.265V234.987l105.412,60.857,105.417-60.857Z" transform="translate(644.321 10.265)" fill="#646464"/>
                  <path id="Path_995" data-name="Path 995" d="M252.858,293.752a.275.275,0,0,1-.275-.275v-122.2l.137-.079,105.688-61.02a.275.275,0,1,1,.275.476L253.133,171.6V293.477A.275.275,0,0,1,252.858,293.752Z" transform="translate(805.183 196.011)" fill="#646464"/>
                  <path id="Path_996" data-name="Path 996" d="M333.287,311.063l-.137-.079-105.688-61.02a.275.275,0,0,1,.275-.476l105.55,60.941L438.7,249.566V127.848L333.287,66.987l-105.55,60.941a.275.275,0,0,1-.275-.476l105.825-61.1,105.967,61.179V249.884l-.138.079Z" transform="translate(724.751 56.703)" fill="#646464"/>
                  <path id="Path_997" data-name="Path 997" d="M388.462,127.964a.274.274,0,0,1-.137-.037L282.775,66.987,177.22,127.927a.275.275,0,1,1-.275-.476l105.829-61.1.137.079L388.6,127.451a.275.275,0,0,1-.138.513Z" transform="translate(563.889 56.702)" fill="#646464"/>
                  <path id="Path_998" data-name="Path 998" d="M282.771,171.755l-105.825-61.1a.275.275,0,0,1,.275-.476l105.55,60.941,105.554-60.941a.275.275,0,1,1,.275.476Z" transform="translate(563.89 196.011)" fill="#646464"/>
                  <path id="Path_999" data-name="Path 999" d="M181.742,311.063l-.137-.079-105.829-61.1V127.531l.138-.079,105.829-61.1.137.079,105.825,61.1V249.884l-.138.079Zm-105.417-61.5,105.417,60.861,105.413-60.861V127.848L181.742,66.987,76.325,127.848Z" transform="translate(242.167 56.703)" fill="#646464"/>
                  <path id="Line_493" data-name="Line 493" d="M0,122.311a.275.275,0,0,1-.275-.275V0A.275.275,0,0,1,0-.275.275.275,0,0,1,.275,0V122.036A.275.275,0,0,1,0,122.311Z" transform="translate(529.596 184.39)" fill="#646464"/>
                  <path id="Path_1000" data-name="Path 1000" d="M257.516,354.815l-.138-.079-105.829-61.1V171.279l.137-.079,105.829-61.1,105.963,61.179V293.636l-.138.079ZM152.1,293.319,257.516,354.18l105.413-60.861V171.6L257.516,110.735,152.1,171.6Z" transform="translate(483.458 196.011)" fill="#646464"/>
                  <path id="Path_1001" data-name="Path 1001" d="M126.567,308.335a.275.275,0,0,1-.138-.513l105.55-60.941V125a.275.275,0,1,1,.55,0V247.2l-.137.079L126.7,308.3A.274.274,0,0,1,126.567,308.335Z" transform="translate(403.029 242.447)" fill="#646464"/>
                  <path id="Line_494" data-name="Line 494" d="M0,61.295a.275.275,0,0,1-.238-.138.275.275,0,0,1,.1-.376L105.55-.238a.275.275,0,0,1,.376.1.275.275,0,0,1-.1.376L.137,61.258A.274.274,0,0,1,0,61.295Z" transform="translate(423.908 306.428)" fill="#646464"/>
                  <path id="Path_1002" data-name="Path 1002" d="M308.03,354.772a.275.275,0,0,1-.138-.513l105.55-60.941V171.6L308.029,110.735,202.617,171.6V293.477a.275.275,0,1,1-.55,0v-122.2l.138-.079,105.825-61.1.138.079,105.825,61.1V293.636l-.137.079-105.688,61.02A.274.274,0,0,1,308.03,354.772Z" transform="translate(644.321 196.01)" fill="#646464"/>
                  <path id="Path_1003" data-name="Path 1003" d="M333.291,398.564l-.138-.079-105.829-61.1V215.028l.137-.079,105.829-61.1,105.963,61.179V337.385l-.138.079Zm-105.417-61.5,105.417,60.861L438.7,337.068V215.345L333.291,154.484,227.874,215.345Z" transform="translate(724.75 335.321)" fill="#646464"/>
                  <path id="Path_1004" data-name="Path 1004" d="M282.771,398.56l-.138-.079-105.825-61.1V215.028l.138-.079,105.688-61.02a.275.275,0,0,1,.275.476l-105.55,60.941V337.068l105.413,60.857,105.413-60.857V215.187a.275.275,0,1,1,.55,0v122.2l-.137.079Z" transform="translate(563.891 335.322)" fill="#646464"/>
                  <path id="Line_495" data-name="Line 495" d="M0,122.315a.275.275,0,0,1-.275-.275V0A.275.275,0,0,1,0-.275.275.275,0,0,1,.275,0V122.04A.275.275,0,0,1,0,122.315Z" transform="translate(1163.729 550.507)" fill="#646464"/>
                  <path id="Line_496" data-name="Line 496" d="M0,122.315a.275.275,0,0,1-.275-.275V0A.275.275,0,0,1,0-.275.275.275,0,0,1,.275,0V122.04A.275.275,0,0,1,0,122.315Z" transform="translate(1163.729 550.508)" fill="#646464"/>
                  <path id="Path_1005" data-name="Path 1005" d="M181.738,293.795l-.137-.079-105.825-61.1v-122.2a.275.275,0,0,1,.55,0V232.3L181.738,293.16l105.554-60.941a.275.275,0,0,1,.275.476Z" transform="translate(242.168 196.011)" fill="#646464"/>
                  <path id="Path_1006" data-name="Path 1006" d="M257.512,337.5a.274.274,0,0,1-.137-.037l-105.825-61.1v-122.2a.275.275,0,1,1,.55,0V276.048l105.55,60.941a.275.275,0,0,1-.138.513Z" transform="translate(483.459 335.322)" fill="#646464"/>
                  <path id="Path_1007" data-name="Path 1007" d="M101.309,322.919a.275.275,0,0,1-.275-.275v-122.2l105.825-61.1a.275.275,0,0,1,.275.476l-105.55,60.941V322.644A.275.275,0,0,1,101.309,322.919Z" transform="translate(322.599 288.886)" fill="#646464"/>
                  <path id="Line_497" data-name="Line 497" d="M0,122.315a.275.275,0,0,1-.275-.275V0A.275.275,0,0,1,0-.275.275.275,0,0,1,.275,0V122.04A.275.275,0,0,1,0,122.315Z" transform="translate(635.284 489.488)" fill="#646464"/>
                  <path id="Path_1008" data-name="Path 1008" d="M227.6,337.5a.275.275,0,0,1-.138-.513l105.55-60.941V154.166a.275.275,0,1,1,.55,0v122.2l-.137.079-105.688,61.02A.274.274,0,0,1,227.6,337.5Z" transform="translate(724.751 335.321)" fill="#646464"/>
                  <path id="Path_1009" data-name="Path 1009" d="M358.545,337.5a.274.274,0,0,1-.137-.037l-105.825-61.1v-122.2a.275.275,0,1,1,.55,0V276.048l105.55,60.941a.275.275,0,0,1-.138.513Z" transform="translate(805.181 335.322)" fill="#646464"/>
                  <path id="Path_1010" data-name="Path 1010" d="M181.742,124.683l.137.079,105.825,61.1V308.219l-.138.079L181.742,369.4l-.137-.079-105.829-61.1V185.861l.138-.079Zm105.413,61.5L181.742,125.318,76.325,186.179V307.9l105.417,60.861L287.154,307.9Z" transform="translate(242.167 242.447)" fill="#646464"/>
                  <path id="Path_1011" data-name="Path 1011" d="M126.567,308.335a.275.275,0,0,1-.275-.275v-122.2l.138-.079,105.688-61.02a.275.275,0,1,1,.275.476l-105.55,60.941V308.06A.275.275,0,0,1,126.567,308.335Z" transform="translate(403.029 242.446)" fill="#646464"/>
                  <path id="Path_1012" data-name="Path 1012" d="M363.2,264.586a.275.275,0,0,1-.275-.275V142.43L257.512,81.569,152.1,142.43V264.311a.275.275,0,1,1-.55,0v-122.2l.137-.079,105.825-61.1,105.967,61.179v122.2A.275.275,0,0,1,363.2,264.586Z" transform="translate(483.459 103.136)" fill="#646464"/>
                  <path id="Path_1013" data-name="Path 1013" d="M207,80.934l.137.079,105.825,61.1V264.47l-.137.079L207,325.649l-.137-.079-105.825-61.1V142.113Zm105.413,61.5L207,81.569,101.584,142.43V264.153L207,325.014l105.413-60.861Z" transform="translate(322.6 103.137)" fill="#646464"/>
                  <path id="Path_1014" data-name="Path 1014" d="M308.029,279.169a.274.274,0,0,1-.137-.037l-105.825-61.1V95.834a.275.275,0,1,1,.55,0V217.715l105.55,60.941a.275.275,0,0,1-.138.513Z" transform="translate(644.321 149.573)" fill="#646464"/>
                  <path id="Path_1015" data-name="Path 1015" d="M282.771,281.857a.274.274,0,0,1-.137-.037l-105.825-61.1V98.364l.138-.079,105.825-61.1.138.079L388.6,98.284a.275.275,0,0,1-.275.476L282.771,37.82,177.359,98.681V220.4l105.55,60.941a.275.275,0,0,1-.138.513Z" transform="translate(563.891 -36.174)" fill="#646464"/>
                  <path id="Line_498" data-name="Line 498" d="M0,122.315a.275.275,0,0,1-.275-.275V0A.275.275,0,0,1,0-.275.275.275,0,0,1,.275,0V122.04A.275.275,0,0,1,0,122.315Z" transform="translate(1163.729 62.348)" fill="#646464"/>
                  <path id="Line_499" data-name="Line 499" d="M0,122.315a.275.275,0,0,1-.275-.275V0A.275.275,0,0,1,0-.275.275.275,0,0,1,.275,0V122.04A.275.275,0,0,1,0,122.315Z" transform="translate(1163.729 62.35)" fill="#646464"/>
                  <path id="Path_1016" data-name="Path 1016" d="M181.742,293.795l-.137-.079-105.829-61.1v-122.2a.275.275,0,1,1,.55,0V232.3L181.742,293.16l105.55-60.941a.275.275,0,0,1,.275.476Z" transform="translate(242.167 196.01)" fill="#646464"/>
                  <path id="Path_1017" data-name="Path 1017" d="M257.512,296.437a.274.274,0,0,1-.137-.037L151.55,235.3V112.943l.137-.079L257.375,51.848a.275.275,0,0,1,.275.476L152.1,113.261V234.983l105.55,60.941a.275.275,0,0,1-.138.513Z" transform="translate(483.46 10.265)" fill="#646464"/>
                  <path id="Path_1018" data-name="Path 1018" d="M308.029,296.479l-.138-.079L202.2,235.384a.275.275,0,0,1,.275-.476l105.55,60.936,105.413-60.857V113.265L307.892,52.324a.275.275,0,1,1,.275-.476l105.825,61.1V235.3l-.137.079Z" transform="translate(644.321 10.264)" fill="#646464"/>
                  <path id="Path_1019" data-name="Path 1019" d="M252.858,235.42a.275.275,0,0,1-.275-.275v-122.2l.137-.079,105.688-61.02a.275.275,0,1,1,.275.476l-105.55,60.941V235.145A.275.275,0,0,1,252.858,235.42Z" transform="translate(805.181 10.263)" fill="#646464"/>
                  <path id="Path_1020" data-name="Path 1020" d="M308.033,383.981l-.138-.079L202.066,322.8V200.444l.137-.079L307.9,139.345a.275.275,0,0,1,.275.476L202.616,200.762V322.484l105.417,60.861,105.413-60.861V200.6a.275.275,0,0,1,.55,0V322.8l-.138.079Z" transform="translate(644.32 288.884)" fill="#646464"/>
                  <path id="Line_500" data-name="Line 500" d="M0,122.315a.275.275,0,0,1-.275-.275V0A.275.275,0,0,1,0-.275.275.275,0,0,1,.275,0V122.04A.275.275,0,0,1,0,122.315Z" transform="translate(1058.041 245.408)" fill="#646464"/>
                  <path id="Line_501" data-name="Line 501" d="M0,122.315a.275.275,0,0,1-.275-.275V0A.275.275,0,0,1,0-.275.275.275,0,0,1,.275,0V122.04A.275.275,0,0,1,0,122.315Z" transform="translate(952.351 428.467)" fill="#646464"/>
                  <path id="Line_502" data-name="Line 502" d="M105.687,61.295a.274.274,0,0,1-.137-.037L-.138.238a.275.275,0,0,1-.1-.376.275.275,0,0,1,.376-.1l105.688,61.02a.275.275,0,0,1-.138.513Z" transform="translate(740.975 550.506)" fill="#646464"/>
                </g>
              </g>
            </g>
          </g>
        </g>
        <path id="Path_1021" data-name="Path 1021" d="M257.516,51.768l.137.079,105.825,61.1V235.3l-.138.079-105.825,61.1-.138-.079L151.549,235.3V112.947l.138-.079Zm105.413,61.5L257.516,52.4,152.1,113.264V234.986l105.417,60.861,105.413-60.861Z" transform="translate(483.457 165.857)" fill="#646464"/>
        <g id="Group_3180" data-name="Group 3180" transform="translate(529.593)">
          <g id="Group_3179" data-name="Group 3179" clip-path="url(#clip-path-3)">
            <path id="Path_1022" data-name="Path 1022" d="M232.254,293.752a.275.275,0,0,1-.275-.275V171.6l-105.55-60.941a.275.275,0,1,1,.275-.476l105.825,61.1v122.2A.275.275,0,0,1,232.254,293.752Z" transform="translate(-126.565 351.603)" fill="#646464"/>
            <path id="Path_1023" data-name="Path 1023" d="M232.258,311.065l-.137-.079-105.829-61.1V127.529l.137-.079,105.829-61.1.137.079,105.688,61.02a.275.275,0,1,1-.275.476L232.258,66.986,126.841,127.847V249.569L232.258,310.43l105.55-60.941a.275.275,0,1,1,.275.476Z" transform="translate(-126.566 212.292)" fill="#646464"/>
          </g>
        </g>
        <path id="Path_1024" data-name="Path 1024" d="M388.462,127.964a.274.274,0,0,1-.137-.037L282.771,66.986l-105.55,60.941a.275.275,0,1,1-.275-.476l105.825-61.1.137.079L388.6,127.45a.275.275,0,0,1-.138.513Z" transform="translate(563.89 212.294)" fill="#646464"/>
        <path id="Path_1025" data-name="Path 1025" d="M282.775,171.754l-.138-.079-105.692-61.02a.275.275,0,1,1,.275-.476l105.554,60.941,105.55-60.941a.275.275,0,0,1,.275.476Z" transform="translate(563.889 351.603)" fill="#646464"/>
        <path id="Path_1026" data-name="Path 1026" d="M383.8,311.065,277.841,249.887V127.529l.138-.079L383.8,66.35l.138.079,105.829,61.1V249.887l-.138.079Zm-105.413-61.5L383.8,310.43l105.417-60.861V127.847L383.8,66.986,278.391,127.847Z" transform="translate(885.612 212.292)" fill="#646464"/>
        <path id="Path_1027" data-name="Path 1027" d="M434.32,264.586a.274.274,0,0,1-.137-.037l-105.825-61.1V81.251a.275.275,0,1,1,.55,0V203.132l105.55,60.941a.275.275,0,0,1-.138.513Z" transform="translate(1046.474 258.73)" fill="#646464"/>
        <path id="Path_1028" data-name="Path 1028" d="M459.583,308.378,353.616,247.2V125a.275.275,0,1,1,.55,0V246.881l105.417,60.861L565.133,246.8a.275.275,0,0,1,.275.476Z" transform="translate(1126.903 398.04)" fill="#646464"/>
        <path id="Line_503" data-name="Line 503" d="M0,122.315a.275.275,0,0,1-.275-.275V0A.275.275,0,0,1,0-.275.275.275,0,0,1,.275,0V122.04A.275.275,0,0,1,0,122.315Z" transform="translate(1163.728 339.982)" fill="#646464"/>
        <path id="Path_1029" data-name="Path 1029" d="M308.029,354.814,202.066,293.636V171.278l.137-.079,105.825-61.1.138.079L414,171.278V293.636l-.138.079Zm-105.413-61.5,105.413,60.861,105.417-60.861V171.6L308.029,110.735,202.616,171.6Z" transform="translate(644.32 351.603)" fill="#646464"/>
        <path id="Path_1030" data-name="Path 1030" d="M358.546,308.335a.274.274,0,0,1-.137-.037L252.583,247.2V125a.275.275,0,1,1,.55,0V246.881l105.55,60.941a.275.275,0,0,1-.138.513Z" transform="translate(805.182 398.039)" fill="#646464"/>
        <path id="Line_504" data-name="Line 504" d="M105.687,61.295a.274.274,0,0,1-.137-.037L-.138.238a.275.275,0,0,1-.1-.376.275.275,0,0,1,.376-.1l105.688,61.02a.275.275,0,0,1-.138.513Z" transform="translate(1163.728 462.02)" fill="#646464"/>
        <path id="Path_1031" data-name="Path 1031" d="M257.512,354.772a.274.274,0,0,1-.137-.037l-105.825-61.1V171.278l.138-.079,105.825-61.1.138.079,105.825,61.1v122.2a.275.275,0,1,1-.55,0V171.6L257.513,110.734,152.1,171.6V293.318l105.55,60.941a.275.275,0,0,1-.138.513Z" transform="translate(483.46 351.603)" fill="#646464"/>
        <g id="Group_3182" data-name="Group 3182" transform="translate(529.593)">
          <g id="Group_3181" data-name="Group 3181" clip-path="url(#clip-path-3)">
            <path id="Path_1032" data-name="Path 1032" d="M232.254,398.563l-.137-.079-105.825-61.1V215.027l.138-.079,105.825-61.1.137.079,105.829,61.1V337.385Zm-105.413-61.5,105.413,60.861,105.417-60.861V215.345L232.254,154.483,126.841,215.345Z" transform="translate(-126.565 490.914)" fill="#646464"/>
          </g>
        </g>
        <path id="Path_1033" data-name="Path 1033" d="M282.771,398.563l-.138-.079-105.825-61.1v-122.2a.275.275,0,0,1,.55,0V337.067l105.413,60.861,105.413-60.861V215.345L282.633,154.4a.275.275,0,0,1,.275-.476l105.825,61.1V337.385l-.137.079Z" transform="translate(563.89 490.914)" fill="#646464"/>
        <g id="Group_3184" data-name="Group 3184" transform="translate(529.593)">
          <g id="Group_3183" data-name="Group 3183" clip-path="url(#clip-path-3)">
            <path id="Line_505" data-name="Line 505" d="M0,122.315a.275.275,0,0,1-.275-.275V0A.275.275,0,0,1,0-.275.275.275,0,0,1,.275,0V122.04A.275.275,0,0,1,0,122.315Z" transform="translate(0.001 706.099)" fill="#646464"/>
            <path id="Line_506" data-name="Line 506" d="M0,122.315a.275.275,0,0,1-.275-.275V0A.275.275,0,0,1,0-.275.275.275,0,0,1,.275,0V122.04A.275.275,0,0,1,0,122.315Z" transform="translate(0.001 706.099)" fill="#646464"/>
            <path id="Path_1034" data-name="Path 1034" d="M232.254,381.25a.275.275,0,0,1-.275-.275V259.094l-105.55-60.94a.275.275,0,0,1,.275-.476l105.825,61.1v122.2A.275.275,0,0,1,232.254,381.25Z" transform="translate(-126.565 630.225)" fill="#646464"/>
          </g>
        </g>
        <path id="Path_1035" data-name="Path 1035" d="M303.374,235.42a.275.275,0,0,1-.275-.275v-122.2l.137-.079,105.688-61.02a.275.275,0,1,1,.275.476l-105.55,60.941V235.145A.275.275,0,0,1,303.374,235.42Z" transform="translate(966.042 165.856)" fill="#646464"/>
        <path id="Line_507" data-name="Line 507" d="M0,61.3a.275.275,0,0,1-.238-.138.275.275,0,0,1,.1-.376L105.55-.238a.275.275,0,0,1,.376.1.275.275,0,0,1-.1.376L.138,61.258A.274.274,0,0,1,0,61.3Z" transform="translate(1375.107 401.001)" fill="#646464"/>
        <path id="Path_1036" data-name="Path 1036" d="M383.808,293.794l-.138-.079L277.978,232.7a.275.275,0,1,1,.275-.476l105.554,60.941L489.22,232.3V110.417a.275.275,0,0,1,.55,0v122.2Z" transform="translate(885.611 351.603)" fill="#646464"/>
        <path id="Path_1037" data-name="Path 1037" d="M434.321,340.232l-.137-.079-105.825-61.1V156.7l.138-.079,105.825-61.1.138.079,105.829,61.1V279.053l-.137.079Zm-105.413-61.5L434.321,339.6l105.417-60.861V157.013L434.321,96.152,328.908,157.013Z" transform="translate(1046.473 305.167)" fill="#646464"/>
        <path id="Path_1038" data-name="Path 1038" d="M565.27,200.878a.274.274,0,0,1-.137-.037L459.579,139.9l-105.55,60.941a.275.275,0,0,1-.275-.476l105.825-61.1.138.079,105.692,61.02a.275.275,0,0,1-.138.513Z" transform="translate(1126.904 444.477)" fill="#646464"/>
        <path id="Path_1039" data-name="Path 1039" d="M227.6,337.5a.275.275,0,0,1-.138-.513l105.55-60.941V154.166a.275.275,0,1,1,.55,0v122.2l-.137.079-105.688,61.02A.274.274,0,0,1,227.6,337.5Z" transform="translate(724.752 490.914)" fill="#646464"/>
        <path id="Path_1040" data-name="Path 1040" d="M383.8,322.918a.275.275,0,0,1-.275-.275V200.762l-105.55-60.941a.275.275,0,0,1,.275-.476l105.825,61.1v122.2A.275.275,0,0,1,383.8,322.918Z" transform="translate(885.612 444.478)" fill="#646464"/>
        <path id="Path_1041" data-name="Path 1041" d="M358.546,337.5a.274.274,0,0,1-.137-.037l-105.825-61.1v-122.2a.275.275,0,1,1,.55,0V276.047l105.55,60.941a.275.275,0,0,1-.138.513Z" transform="translate(805.182 490.914)" fill="#646464"/>
        <path id="Path_1042" data-name="Path 1042" d="M257.512,337.5a.274.274,0,0,1-.137-.037l-105.825-61.1v-122.2a.275.275,0,1,1,.55,0V276.047l105.55,60.941a.275.275,0,0,1-.138.513Z" transform="translate(483.46 490.914)" fill="#646464"/>
        <g id="Group_3186" data-name="Group 3186" transform="translate(529.593)">
          <g id="Group_3185" data-name="Group 3185" clip-path="url(#clip-path-3)">
            <path id="Path_1043" data-name="Path 1043" d="M232.254,427.729l-.137-.079-105.825-61.1V244.2l.138-.079,105.825-61.1.137.079,105.829,61.1V366.55Zm-105.413-61.5,105.413,60.861,105.417-60.861V244.514L232.254,183.649,126.841,244.514Z" transform="translate(-126.565 583.786)" fill="#646464"/>
          </g>
        </g>
        <path id="Path_1044" data-name="Path 1044" d="M282.771,381.249a.274.274,0,0,1-.137-.037l-105.825-61.1v-122.2a.275.275,0,0,1,.55,0V319.8l105.55,60.94a.275.275,0,0,1-.138.513Z" transform="translate(563.89 630.223)" fill="#646464"/>
        <path id="Line_508" data-name="Line 508" d="M0,122.311a.275.275,0,0,1-.275-.275V0A.275.275,0,0,1,0-.275.275.275,0,0,1,.275,0V122.036A.275.275,0,0,1,0,122.311Z" transform="translate(952.351 828.139)" fill="#646464"/>
        <g id="Group_3188" data-name="Group 3188" transform="translate(529.593)">
          <g id="Group_3187" data-name="Group 3187" clip-path="url(#clip-path-3)">
            <path id="Path_1045" data-name="Path 1045" d="M126.567,383.938a.275.275,0,0,1-.138-.513l105.55-60.94V200.762l-105.55-60.941a.275.275,0,0,1,.275-.476l105.825,61.1V322.8l-.137.079L126.7,383.9A.274.274,0,0,1,126.567,383.938Z" transform="translate(-126.565 444.478)" fill="#646464"/>
            <path id="Line_509" data-name="Line 509" d="M0,122.315a.275.275,0,0,1-.275-.275V0A.275.275,0,0,1,0-.275.275.275,0,0,1,.275,0V122.04A.275.275,0,0,1,0,122.315Z" transform="translate(0.001 462.02)" fill="#646464"/>
            <path id="Line_510" data-name="Line 510" d="M0,122.311a.275.275,0,0,1-.275-.275V0A.275.275,0,0,1,0-.275.275.275,0,0,1,.275,0V122.036A.275.275,0,0,1,0,122.311Z" transform="translate(0.001 828.139)" fill="#646464"/>
          </g>
        </g>
        <path id="Path_1046" data-name="Path 1046" d="M383.8,124.682l.138.079,105.829,61.1V308.218l-.138.079L383.8,369.4,277.841,308.218V185.861l.138-.079Zm105.417,61.5L383.8,125.317,278.391,186.178V307.9L383.8,368.762,489.221,307.9Z" transform="translate(885.612 398.039)" fill="#646464"/>
        <path id="Path_1047" data-name="Path 1047" d="M353.892,264.586a.275.275,0,0,1-.275-.275v-122.2l105.825-61.1a.275.275,0,1,1,.275.476L354.167,142.43V264.311A.275.275,0,0,1,353.892,264.586Z" transform="translate(1126.905 258.729)" fill="#646464"/>
        <path id="Line_511" data-name="Line 511" d="M0,61.295a.275.275,0,0,1-.238-.138.275.275,0,0,1,.1-.376L105.55-.238a.275.275,0,0,1,.376.1.275.275,0,0,1-.1.376L.138,61.258A.274.274,0,0,1,0,61.295Z" transform="translate(1586.484 523.039)" fill="#646464"/>
        <path id="Path_1048" data-name="Path 1048" d="M358.546,308.334a.275.275,0,0,1-.275-.275V186.178l-105.55-60.941a.275.275,0,0,1,.275-.476l105.825,61.1v122.2A.275.275,0,0,1,358.546,308.334Z" transform="translate(805.182 398.038)" fill="#646464"/>
        <path id="Path_1049" data-name="Path 1049" d="M413.72,264.586a.275.275,0,0,1-.275-.275V142.429L308.033,81.568,202.616,142.429V264.311a.275.275,0,1,1-.55,0v-122.2l.138-.079,105.829-61.1.138.079L414,142.112v122.2A.275.275,0,0,1,413.72,264.586Z" transform="translate(644.319 258.728)" fill="#646464"/>
        <path id="Path_1050" data-name="Path 1050" d="M358.546,80.934l.138.079,105.825,61.1V264.47l-.137.079-105.825,61.1-.138-.079-105.825-61.1V142.112Zm105.413,61.5L358.546,81.569,253.133,142.43V264.152l105.413,60.861,105.413-60.861Z" transform="translate(805.181 258.729)" fill="#646464"/>
        <path id="Path_1051" data-name="Path 1051" d="M177.083,279.169a.275.275,0,0,1-.138-.513L282.5,217.715V95.834a.275.275,0,1,1,.55,0v122.2l-105.825,61.1A.274.274,0,0,1,177.083,279.169Z" transform="translate(563.89 305.166)" fill="#646464"/>
        <g id="Group_3190" data-name="Group 3190" transform="translate(529.593)">
          <g id="Group_3189" data-name="Group 3189" clip-path="url(#clip-path-3)">
            <path id="Path_1052" data-name="Path 1052" d="M126.566,220.833a.275.275,0,0,1-.275-.275V98.364l.138-.079,105.829-61.1.137.079,105.688,61.02a.275.275,0,1,1-.275.476L232.258,37.82,126.841,98.681V220.558A.275.275,0,0,1,126.566,220.833Z" transform="translate(-126.566 119.42)" fill="#646464"/>
          </g>
        </g>
        <path id="Path_1053" data-name="Path 1053" d="M282.771,281.857a.275.275,0,0,1-.138-.513l105.55-60.94V98.681L282.771,37.82,177.221,98.76a.275.275,0,0,1-.275-.476l105.825-61.1.138.079,105.825,61.1V220.721l-.137.079L282.908,281.82A.274.274,0,0,1,282.771,281.857Z" transform="translate(563.89 119.418)" fill="#646464"/>
        <path id="Path_1054" data-name="Path 1054" d="M308.029,191.672a.274.274,0,0,1-.137-.037l-105.825-61.1V8.337a.275.275,0,0,1,.55,0V130.218l105.55,60.941a.275.275,0,0,1-.138.513Z" transform="translate(644.32 26.546)" fill="#646464"/>
        <g id="Group_3192" data-name="Group 3192" transform="translate(529.593)">
          <g id="Group_3191" data-name="Group 3191" clip-path="url(#clip-path-3)">
            <path id="Line_512" data-name="Line 512" d="M0,122.311a.275.275,0,0,1-.275-.275V0A.275.275,0,0,1,0-.275.275.275,0,0,1,.275,0V122.036A.275.275,0,0,1,0,122.311Z" transform="translate(0.001 217.944)" fill="#646464"/>
            <path id="Line_513" data-name="Line 513" d="M0,122.311a.275.275,0,0,1-.275-.275V0A.275.275,0,0,1,0-.275.275.275,0,0,1,.275,0V122.036A.275.275,0,0,1,0,122.311Z" transform="translate(0.001 217.942)" fill="#646464"/>
            <path id="Path_1055" data-name="Path 1055" d="M126.567,191.671a.275.275,0,0,1-.138-.513l105.55-60.941V8.336a.275.275,0,0,1,.55,0v122.2l-.137.079L126.7,191.634A.274.274,0,0,1,126.567,191.671Z" transform="translate(-126.565 26.546)" fill="#646464"/>
          </g>
        </g>
        <path id="Path_1056" data-name="Path 1056" d="M514.754,322.917a.275.275,0,0,1-.275-.275V200.761L409.066,139.9,303.649,200.761V322.642a.275.275,0,1,1-.55,0v-122.2l105.967-61.179.137.079,105.825,61.1v122.2A.275.275,0,0,1,514.754,322.917Z" transform="translate(966.041 444.476)" fill="#646464"/>
        <path id="Path_1057" data-name="Path 1057" d="M383.8,293.794l-.137-.079-105.688-61.02a.275.275,0,1,1,.275-.476L383.8,293.159,489.221,232.3V110.417a.275.275,0,1,1,.55,0v122.2l-.137.079Z" transform="translate(885.612 351.603)" fill="#646464"/>
        <path id="Path_1058" data-name="Path 1058" d="M434.321,95.516l.138.079,105.829,61.1V279.052l-.138.079-105.829,61.1L328.358,279.052V156.695l.137-.079Zm105.417,61.5L434.321,96.151,328.908,157.012V278.735L434.321,339.6l105.417-60.861Z" transform="translate(1046.473 305.165)" fill="#646464"/>
        <path id="Path_1059" data-name="Path 1059" d="M227.6,296.436a.275.275,0,0,1-.138-.513l105.55-60.941V113.26L227.462,52.324a.275.275,0,1,1,.275-.476l105.825,61.1V235.3L227.737,296.4A.274.274,0,0,1,227.6,296.436Z" transform="translate(724.751 165.858)" fill="#646464"/>
        <path id="Path_1060" data-name="Path 1060" d="M383.8,235.42a.275.275,0,0,1-.275-.275V113.264L277.979,52.323a.275.275,0,1,1,.275-.476l105.825,61.1v122.2A.275.275,0,0,1,383.8,235.42Z" transform="translate(885.613 165.855)" fill="#646464"/>
        <path id="Path_1061" data-name="Path 1061" d="M257.513,296.479l-.138-.079L151.55,235.3V112.947l.138-.079,105.688-61.02a.275.275,0,0,1,.275.476L152.1,113.264V234.986l105.413,60.857,105.55-60.936a.275.275,0,0,1,.275.476Z" transform="translate(483.46 165.857)" fill="#646464"/>
        <path id="Line_514" data-name="Line 514" d="M105.687,61.3a.274.274,0,0,1-.137-.037L-.138.238a.275.275,0,0,1-.1-.376.275.275,0,0,1,.376-.1l105.688,61.02a.275.275,0,0,1-.138.513Z" transform="translate(635.285 34.882)" fill="#646464"/>
        <g id="Group_3194" data-name="Group 3194" transform="translate(529.593)">
          <g id="Group_3193" data-name="Group 3193" clip-path="url(#clip-path-3)">
            <path id="Path_1062" data-name="Path 1062" d="M232.254,206.3l-.137-.079-105.825-61.1V22.919a.275.275,0,0,1,.55,0V144.8l105.413,60.861,105.554-60.941a.275.275,0,0,1,.275.476Z" transform="translate(-126.565 72.983)" fill="#646464"/>
          </g>
        </g>
        <path id="Line_515" data-name="Line 515" d="M0,61.295a.275.275,0,0,1-.238-.138.275.275,0,0,1,.1-.376L105.55-.238a.275.275,0,0,1,.376.1.275.275,0,0,1-.1.376L.138,61.258A.274.274,0,0,1,0,61.295Z" transform="translate(740.974 34.883)" fill="#646464"/>
        <path id="Line_516" data-name="Line 516" d="M0,122.315a.275.275,0,0,1-.275-.275V0A.275.275,0,0,1,0-.275.275.275,0,0,1,.275,0V122.04A.275.275,0,0,1,0,122.315Z" transform="translate(952.351 95.902)" fill="#646464"/>
        <g id="Group_3196" data-name="Group 3196" transform="translate(529.593)">
          <g id="Group_3195" data-name="Group 3195" clip-path="url(#clip-path-3)">
            <path id="Path_1063" data-name="Path 1063" d="M232.254,235.42a.275.275,0,0,1-.275-.275V113.264L126.429,52.323a.275.275,0,1,1,.275-.476l105.825,61.1v122.2A.275.275,0,0,1,232.254,235.42Z" transform="translate(-126.563 165.855)" fill="#646464"/>
            <path id="Line_517" data-name="Line 517" d="M0,122.315a.275.275,0,0,1-.275-.275V0A.275.275,0,0,1,0-.275.275.275,0,0,1,.275,0V122.04A.275.275,0,0,1,0,122.315Z" transform="translate(0.001 95.902)" fill="#646464"/>
          </g>
        </g>
        <path id="Path_1064" data-name="Path 1064" d="M257.512,383.976l-.137-.079L151.55,322.8V200.6a.275.275,0,1,1,.55,0V322.484l105.413,60.857,105.417-60.857V200.762L257.375,139.821a.275.275,0,0,1,.275-.476l105.829,61.1V322.8l-.138.079Z" transform="translate(483.459 444.476)" fill="#646464"/>
        <g id="Group_3198" data-name="Group 3198" transform="translate(529.593)">
          <g id="Group_3197" data-name="Group 3197" clip-path="url(#clip-path-3)">
            <path id="Path_1065" data-name="Path 1065" d="M126.567,279.169a.275.275,0,0,1-.138-.513l105.55-60.941V95.834a.275.275,0,1,1,.55,0v122.2l-.137.079L126.7,279.132A.274.274,0,0,1,126.567,279.169Z" transform="translate(-126.565 305.166)" fill="#646464"/>
          </g>
        </g>
        <path id="Line_518" data-name="Line 518" d="M0,122.315a.275.275,0,0,1-.275-.275V0A.275.275,0,0,1,0-.275.275.275,0,0,1,.275,0V122.04A.275.275,0,0,1,0,122.315Z" transform="translate(740.973 584.059)" fill="#646464"/>
        <g id="Group_3200" data-name="Group 3200" transform="translate(529.593)">
          <g id="Group_3199" data-name="Group 3199" clip-path="url(#clip-path-3)">
            <path id="Path_1066" data-name="Path 1066" d="M126.567,308.335a.275.275,0,0,1-.275-.275v-122.2l.138-.079,105.688-61.02a.275.275,0,0,1,.275.476l-105.55,60.941V308.06A.275.275,0,0,1,126.567,308.335Z" transform="translate(-126.564 398.04)" fill="#646464"/>
          </g>
        </g>
        <path id="Line_519" data-name="Line 519" d="M0,61.295a.275.275,0,0,1-.238-.138.275.275,0,0,1,.1-.376L105.55-.238a.275.275,0,0,1,.376.1.275.275,0,0,1-.1.376L.138,61.258A.274.274,0,0,1,0,61.295Z" transform="translate(846.661 706.098)" fill="#646464"/>
        <g id="Group_3202" data-name="Group 3202" transform="translate(529.593)">
          <g id="Group_3201" data-name="Group 3201" clip-path="url(#clip-path-3)">
            <path id="Path_1067" data-name="Path 1067" d="M238.653,27.7a6.276,6.276,0,1,1-6.277-6.276,6.279,6.279,0,0,1,6.277,6.276" transform="translate(190.382 68.205)" fill="#323232"/>
            <path id="Path_1068" data-name="Path 1068" d="M188.136,56.861a6.276,6.276,0,1,1-6.276-6.276,6.279,6.279,0,0,1,6.276,6.276" transform="translate(29.52 161.079)" fill="#323232"/>
            <path id="Path_1069" data-name="Path 1069" d="M289.169,56.861a6.277,6.277,0,1,1-6.276-6.276,6.279,6.279,0,0,1,6.276,6.276" transform="translate(351.241 161.079)" fill="#323232"/>
            <path id="Path_1070" data-name="Path 1070" d="M339.686,56.862a6.276,6.276,0,1,1-6.276-6.276,6.279,6.279,0,0,1,6.276,6.276" transform="translate(512.104 161.082)" fill="#323232"/>
            <path id="Path_1071" data-name="Path 1071" d="M339.686,115.194a6.276,6.276,0,1,1-6.276-6.277,6.279,6.279,0,0,1,6.276,6.277" transform="translate(512.104 346.827)" fill="#323232"/>
            <path id="Path_1072" data-name="Path 1072" d="M289.169,144.359a6.277,6.277,0,1,1-6.276-6.276,6.279,6.279,0,0,1,6.276,6.276" transform="translate(351.241 439.701)" fill="#323232"/>
            <path id="Path_1073" data-name="Path 1073" d="M263.911,100.61a6.276,6.276,0,1,1-6.276-6.276,6.279,6.279,0,0,1,6.276,6.276" transform="translate(270.812 300.39)" fill="#323232"/>
            <path id="Path_1074" data-name="Path 1074" d="M188.136,115.194a6.276,6.276,0,1,1-6.276-6.277,6.279,6.279,0,0,1,6.276,6.277" transform="translate(29.52 346.827)" fill="#323232"/>
            <path id="Path_1075" data-name="Path 1075" d="M213.394,158.942a6.277,6.277,0,1,1-6.277-6.276,6.279,6.279,0,0,1,6.277,6.276" transform="translate(109.949 486.138)" fill="#323232"/>
            <path id="Path_1076" data-name="Path 1076" d="M162.878,158.942a6.276,6.276,0,1,1-6.276-6.276,6.279,6.279,0,0,1,6.276,6.276" transform="translate(-50.91 486.138)" fill="#323232"/>
            <path id="Path_1077" data-name="Path 1077" d="M390.2,86.027a6.276,6.276,0,1,1-6.277-6.277,6.276,6.276,0,0,1,6.277,6.277" transform="translate(672.966 253.953)" fill="#323232"/>
            <path id="Path_1078" data-name="Path 1078" d="M415.461,129.776a6.277,6.277,0,1,1-6.277-6.277,6.276,6.276,0,0,1,6.277,6.277" transform="translate(753.396 393.264)" fill="#323232"/>
            <path id="Path_1079" data-name="Path 1079" d="M364.944,188.108a6.277,6.277,0,1,1-6.277-6.276,6.279,6.279,0,0,1,6.277,6.276" transform="translate(592.533 579.011)" fill="#323232"/>
            <path id="Path_1080" data-name="Path 1080" d="M289.169,202.691a6.277,6.277,0,1,1-6.276-6.276,6.279,6.279,0,0,1,6.276,6.276" transform="translate(351.241 625.448)" fill="#323232"/>
            <path id="Path_1081" data-name="Path 1081" d="M238.653,231.856a6.276,6.276,0,1,1-6.277-6.277,6.279,6.279,0,0,1,6.277,6.277" transform="translate(190.382 718.319)" fill="#323232"/>
            <path id="Path_1082" data-name="Path 1082" d="M162.878,217.275A6.276,6.276,0,1,1,156.6,211a6.279,6.279,0,0,1,6.276,6.277" transform="translate(-50.91 671.885)" fill="#323232"/>
            <path id="Path_1083" data-name="Path 1083" d="M213.394,246.439a6.277,6.277,0,1,1-6.277-6.276,6.279,6.279,0,0,1,6.277,6.276" transform="translate(109.949 764.756)" fill="#323232"/>
          </g>
        </g>
      </g>
    </g>
  </g>
</svg>
