<svg id="Group_3207" data-name="Group 3207" xmlns="http://www.w3.org/2000/svg" xmlns:xlink="http://www.w3.org/1999/xlink" width="66.666" height="14.5" viewBox="0 0 66.666 14.5">
  <defs>
    <clipPath id="clip-path">
      <rect id="Rectangle_1083" data-name="Rectangle 1083" width="66.666" height="14.5" fill="#0a1627"/>
    </clipPath>
  </defs>
  <g id="Group_134" data-name="Group 134" clip-path="url(#clip-path)">
    <path id="Path_27" data-name="Path 27" d="M963.093,78.071a1.146,1.146,0,0,1,0,1.621,5.4,5.4,0,1,1,0-7.63,1.146,1.146,0,0,1,0,1.621l-3,3a1.146,1.146,0,0,1-1.621-1.621l2.041-2.04a3.1,3.1,0,1,0,.964,5.045,1.146,1.146,0,0,1,1.621,0" transform="translate(-904.044 -66.798)" fill="#0a1627"/>
    <path id="Path_28" data-name="Path 28" d="M1171.784,176.2a2.793,2.793,0,1,1,2.793-2.793,2.8,2.8,0,0,1-2.793,2.793m0-3.866a1.073,1.073,0,1,0,1.073,1.073,1.074,1.074,0,0,0-1.073-1.073" transform="translate(-1107.912 -161.7)" fill="#0a1627"/>
    <path id="Path_29" data-name="Path 29" d="M5.4,3.684a5.362,5.362,0,0,0-3.1.984V.684A.683.683,0,0,0,1.609,0,1.608,1.608,0,0,0,0,1.61V9.032c0,.015,0,.031,0,.047a5.4,5.4,0,1,0,5.4-5.4m0,8.5a3.107,3.107,0,0,1-3.1-3.1h0a3.1,3.1,0,1,1,3.1,3.1" transform="translate(0 -0.001)" fill="#0a1627"/>
    <path id="Path_30" data-name="Path 30" d="M232.521,75.067v4.069h0a5.4,5.4,0,0,1-10.791,0V75.53a1.609,1.609,0,0,1,1.609-1.609.684.684,0,0,1,.683.683v4.533a3.1,3.1,0,1,0,6.206,0c0-.007,0-.013,0-.02V75.067a1.146,1.146,0,1,1,2.292,0" transform="translate(-210.144 -70.059)" fill="#0a1627"/>
    <path id="Path_31" data-name="Path 31" d="M445.99,172.317c0,.01,0,.02,0,.031v-.077c0,.015,0,.031,0,.046" transform="translate(-422.687 -163.27)" fill="#0a1627"/>
    <path id="Path_32" data-name="Path 32" d="M451.395,3.653a5.362,5.362,0,0,0-3.1.984V.684A.683.683,0,0,0,447.608,0,1.608,1.608,0,0,0,446,1.61V9.08a5.4,5.4,0,1,0,5.395-5.426m0,8.5a3.1,3.1,0,1,1,3.1-3.1,3.107,3.107,0,0,1-3.1,3.1" transform="translate(-422.696 -0.001)" fill="#0a1627"/>
    <path id="Path_33" data-name="Path 33" d="M673.855,3.653a5.362,5.362,0,0,0-3.1.984V.684A.683.683,0,0,0,670.069,0,1.608,1.608,0,0,0,668.46,1.61V9.049c0,.018,0,.036,0,.054a5.4,5.4,0,1,0,5.395-5.449m0,8.5a3.1,3.1,0,1,1,3.1-3.1,3.107,3.107,0,0,1-3.1,3.1" transform="translate(-633.533 -0.001)" fill="#0a1627"/>
    <path id="Path_34" data-name="Path 34" d="M668.461,173.215c0-.008,0-.015,0-.023v-.031c0,.018,0,.036,0,.054" transform="translate(-633.533 -164.113)" fill="#0a1627"/>
    <path id="Path_35" data-name="Path 35" d="M894.2,0h.017a.675.675,0,0,1,.675.675V13.259a1.146,1.146,0,0,1-1.146,1.146h0a1.146,1.146,0,0,1-1.146-1.146V1.6A1.6,1.6,0,0,1,894.2,0" transform="translate(-845.962 0)" fill="#0a1627"/>
  </g>
</svg>
