<svg id="Group_3208" data-name="Group 3208" xmlns="http://www.w3.org/2000/svg" xmlns:xlink="http://www.w3.org/1999/xlink" width="124.668" height="32.785" viewBox="0 0 124.668 32.785">
  <defs>
    <clipPath id="clip-path">
      <rect id="Rectangle_8" data-name="Rectangle 8" width="124.669" height="32.785" fill="none"/>
    </clipPath>
  </defs>
  <g id="Group_10" data-name="Group 10" clip-path="url(#clip-path)">
    <path id="Path_5" data-name="Path 5" d="M0,72.526c0-7.029,4.081-10.2,9.387-10.2a8.723,8.723,0,0,1,7.754,4.036,8.621,8.621,0,0,1,7.754-4.036c5.305,0,9.387,3.174,9.387,10.2V85.313h-5.4V72.526c0-3.673-1.9-5.169-4.535-5.169-2.585,0-4.489,1.542-4.489,5.169V85.313h-5.4V72.526c0-3.628-1.95-5.169-4.535-5.169-2.63,0-4.534,1.5-4.534,5.169V85.313H0Z" transform="translate(0 -53.118)" fill="#3f464c"/>
    <path id="Path_6" data-name="Path 6" d="M256.034,74.113c0-6.8,4.988-11.79,12.062-11.79s12.062,4.988,12.062,11.79S275.17,85.9,268.1,85.9s-12.062-4.988-12.062-11.79m18.637,0c0-3.945-2.63-6.757-6.575-6.757a6.758,6.758,0,0,0,0,13.513c3.945,0,6.575-2.812,6.575-6.757" transform="translate(-218.217 -53.118)" fill="#3f464c"/>
    <path id="Path_7" data-name="Path 7" d="M437.163,20.769c0-7.663,5.714-11.563,11.155-11.563A8.515,8.515,0,0,1,455.8,13.06V0h5.4V20.814c0,7.255-4.9,11.971-11.926,11.971-7.119,0-12.107-4.9-12.107-12.017M455.8,21c0-3.945-2.63-6.757-6.575-6.757A6.392,6.392,0,0,0,442.6,21a6.392,6.392,0,0,0,6.621,6.757c3.945,0,6.575-2.812,6.575-6.757" transform="translate(-372.593)" fill="#3f464c"/>
    <path id="Path_8" data-name="Path 8" d="M623.814,74.34c0-7.119,4.988-12.017,12.107-12.017,7.029,0,11.926,4.761,11.926,11.971V85.313H642.9v-4.4a8.136,8.136,0,0,1-7.936,4.988c-5.442,0-11.155-3.9-11.155-11.563m18.637-.227c0-3.945-2.63-6.757-6.575-6.757a6.758,6.758,0,0,0,0,13.513c3.945,0,6.575-2.812,6.575-6.757" transform="translate(-531.675 -53.118)" fill="#3f464c"/>
    <path id="Path_9" data-name="Path 9" d="M814.092,187.66a2.6,2.6,0,1,1-2.6-2.6,2.6,2.6,0,0,1,2.6,2.6" transform="translate(-689.423 -157.729)" fill="#c8a45e"/>
  </g>
</svg>
