<svg id="Group_3215" data-name="Group 3215" xmlns="http://www.w3.org/2000/svg" xmlns:xlink="http://www.w3.org/1999/xlink" width="53.33" height="44.947" viewBox="0 0 53.33 44.947">
  <defs>
    <clipPath id="clip-path">
      <rect id="Rectangle_1105" data-name="Rectangle 1105" width="53.33" height="44.947" fill="none"/>
    </clipPath>
  </defs>
  <g id="Group_2937" data-name="Group 2937" clip-path="url(#clip-path)">
    <path id="Path_318" data-name="Path 318" d="M173.909,8.423H151.84a2.1,2.1,0,0,0-2.1,2.1V47.605h7.882V41.527a.7.7,0,0,1,.7-.7H162v6.779h1.755V40.826h3.677a.7.7,0,0,1,.7.7v6.078h7.882V10.525a2.1,2.1,0,0,0-2.1-2.1m-16.289,28.2a.7.7,0,0,1-.7.7h-2.1a.7.7,0,0,1-.7-.7v-2.1a.7.7,0,0,1,.7-.7h2.1a.7.7,0,0,1,.7.7Zm0-7.006a.7.7,0,0,1-.7.7h-2.1a.7.7,0,0,1-.7-.7v-2.1a.7.7,0,0,1,.7-.7h2.1a.7.7,0,0,1,.7.7Zm0-7.006a.7.7,0,0,1-.7.7h-2.1a.7.7,0,0,1-.7-.7v-2.1a.7.7,0,0,1,.7-.7h2.1a.7.7,0,0,1,.7.7Zm0-7.006a.7.7,0,0,1-.7.7h-2.1a.7.7,0,0,1-.7-.7V13.5a.7.7,0,0,1,.7-.7h2.1a.7.7,0,0,1,.7.7Zm7.006,21.018a.7.7,0,0,1-.7.7h-2.1a.7.7,0,0,1-.7-.7v-2.1a.7.7,0,0,1,.7-.7h2.1a.7.7,0,0,1,.7.7Zm0-7.006a.7.7,0,0,1-.7.7h-2.1a.7.7,0,0,1-.7-.7v-2.1a.7.7,0,0,1,.7-.7h2.1a.7.7,0,0,1,.7.7Zm0-7.006a.7.7,0,0,1-.7.7h-2.1a.7.7,0,0,1-.7-.7v-2.1a.7.7,0,0,1,.7-.7h2.1a.7.7,0,0,1,.7.7Zm0-7.006a.7.7,0,0,1-.7.7h-2.1a.7.7,0,0,1-.7-.7V13.5a.7.7,0,0,1,.7-.7h2.1a.7.7,0,0,1,.7.7Zm7.006,21.018a.7.7,0,0,1-.7.7h-2.1a.7.7,0,0,1-.7-.7v-2.1a.7.7,0,0,1,.7-.7h2.1a.7.7,0,0,1,.7.7Zm0-7.006a.7.7,0,0,1-.7.7h-2.1a.7.7,0,0,1-.7-.7v-2.1a.7.7,0,0,1,.7-.7h2.1a.7.7,0,0,1,.7.7Zm0-7.006a.7.7,0,0,1-.7.7h-2.1a.7.7,0,0,1-.7-.7v-2.1a.7.7,0,0,1,.7-.7h2.1a.7.7,0,0,1,.7.7Zm0-7.006a.7.7,0,0,1-.7.7h-2.1a.7.7,0,0,1-.7-.7V13.5a.7.7,0,0,1,.7-.7h2.1a.7.7,0,0,1,.7.7Z" transform="translate(-125.308 -7.049)" fill="#3a5a84"/>
    <path id="Path_319" data-name="Path 319" d="M33.128.071,17.364,4.656A1.752,1.752,0,0,0,16.1,6.338V40.556H35.369V1.752A1.751,1.751,0,0,0,33.128.071M30.99,36.048a.35.35,0,0,1-.35.35H20.831a.35.35,0,0,1-.35-.35V34.121a.35.35,0,0,1,.35-.35H30.64a.35.35,0,0,1,.35.35Zm0-6.13a.35.35,0,0,1-.35.35H20.831a.35.35,0,0,1-.35-.35V27.991a.35.35,0,0,1,.35-.35H30.64a.35.35,0,0,1,.35.35Zm0-6.141a.35.35,0,0,1-.35.35H20.831a.35.35,0,0,1-.35-.35V21.849a.35.35,0,0,1,.35-.35H30.64a.35.35,0,0,1,.35.35Zm0-6.13a.35.35,0,0,1-.35.35H20.831a.35.35,0,0,1-.35-.35V15.719a.35.35,0,0,1,.35-.35H30.64a.35.35,0,0,1,.35.35Zm0-6.13a.35.35,0,0,1-.35.35H20.831a.35.35,0,0,1-.35-.35V9.589a.35.35,0,0,1,.35-.35H30.64a.35.35,0,0,1,.35.35Z" transform="translate(-13.475 0)" fill="#3a5a84"/>
    <path id="Path_320" data-name="Path 320" d="M52.63,259.791H.7a.7.7,0,0,0-.7.7v1.161a.7.7,0,0,0,.7.7H52.63a.7.7,0,0,0,.7-.7v-1.161a.7.7,0,0,0-.7-.7" transform="translate(0 -217.406)"/>
  </g>
</svg>
