<svg id="Group_3213" data-name="Group 3213" xmlns="http://www.w3.org/2000/svg" xmlns:xlink="http://www.w3.org/1999/xlink" width="61.588" height="36.829" viewBox="0 0 61.588 36.829">
  <defs>
    <clipPath id="clip-path">
      <rect id="Rectangle_1103" data-name="Rectangle 1103" width="61.587" height="36.829" fill="none"/>
    </clipPath>
  </defs>
  <g id="Group_2933" data-name="Group 2933" clip-path="url(#clip-path)">
    <path id="Path_312" data-name="Path 312" d="M205.163,16.587l-6.212-4.48V6.354a1.113,1.113,0,0,0-1.115-1.115h-2.548a1.113,1.113,0,0,0-1.115,1.115v2.3L187.6,3.915a2.121,2.121,0,0,0-2.489,0L167.973,16.289l4.48.687a4.106,4.106,0,0,1,1.762.707l12.145-8.77,16.007,11.557a2.393,2.393,0,1,0,2.8-3.882" transform="translate(-144.572 -3.023)" fill="#3a5a84"/>
    <path id="Path_313" data-name="Path 313" d="M212.412,73.194a3.829,3.829,0,0,1,.209,1.264v2.26A4.025,4.025,0,0,1,210.939,80l.06.428a35.152,35.152,0,0,1-.368,10.532h8.561v-11.5a1.113,1.113,0,0,1,1.115-1.115h5.545a1.113,1.113,0,0,1,1.115,1.115v11.5h9.119a1.12,1.12,0,0,0,1.125-1.1V75.7L223.073,65.5Z" transform="translate(-181.286 -56.374)" fill="#3a5a84"/>
    <path id="Path_314" data-name="Path 314" d="M4.162,174.379A28.845,28.845,0,0,1,.617,184.56l-.451.717a1.069,1.069,0,0,0,.905,1.638H8.7a1.094,1.094,0,0,0,1.038-.75l.876-2.645a.268.268,0,0,1,.508,0L12,186.167a1.094,1.094,0,0,0,1.037.748H17.08a1.094,1.094,0,0,0,1.038-.749l1.2-3.621a.267.267,0,0,1,.508,0l1.2,3.621a1.094,1.094,0,0,0,1.038.749h3.36a.935.935,0,0,0,.9-.64,31.563,31.563,0,0,0,.879-11.9Z" transform="translate(0 -150.085)"/>
    <path id="Path_315" data-name="Path 315" d="M44.128,16.452l-6.959-1.064a1.171,1.171,0,0,1-.985-1.305L37.266,5.55a4.93,4.93,0,1,0-9.78,0l1.083,8.533a1.171,1.171,0,0,1-.985,1.306l-6.961,1.064a1.535,1.535,0,0,0-1.3,1.518v2.261a1.536,1.536,0,0,0,1.536,1.536H43.9a1.536,1.536,0,0,0,1.536-1.536V17.97a1.536,1.536,0,0,0-1.3-1.519M32.376,6.947a2,2,0,1,1,2-2,2,2,0,0,1-2,2" transform="translate(-16.628 0.001)" fill="#3a5a84"/>
  </g>
</svg>
