<svg id="Group_3110" data-name="Group 3110" xmlns="http://www.w3.org/2000/svg" xmlns:xlink="http://www.w3.org/1999/xlink" width="52.047" height="43.553" viewBox="0 0 52.047 43.553">
  <defs>
    <clipPath id="clip-path">
      <rect id="Rectangle_51" data-name="Rectangle 51" width="52.047" height="43.553" fill="#3a5a84"/>
    </clipPath>
  </defs>
  <g id="Group_30" data-name="Group 30" clip-path="url(#clip-path)">
    <path id="Path_179" data-name="Path 179" d="M224.333,200.217a.267.267,0,0,0,.267-.267v-1.107a.267.267,0,0,0-.267-.267H204.816a.267.267,0,0,0-.267.267v1.107a.267.267,0,0,0,.267.267h1.059v1.458h-1.059a.267.267,0,0,0-.267.267v1.107a.266.266,0,0,0,.267.266h19.517a.267.267,0,0,0,.267-.266v-1.107a.267.267,0,0,0-.267-.267h-1.059v-1.458Z" transform="translate(-172.553 -167.515)"/>
    <path id="Path_180" data-name="Path 180" d="M4.4,216.366H.937A.937.937,0,0,0,0,217.3v2.4a.937.937,0,0,0,.937.937H4.4a.937.937,0,0,0,.937-.937v-2.4a.937.937,0,0,0-.937-.937" transform="translate(0 -182.521)" fill="#3a5a84"/>
    <path id="Path_181" data-name="Path 181" d="M45.971,216.366H42.513a.937.937,0,0,0-.937.937v2.4a.937.937,0,0,0,.937.937h3.459a.937.937,0,0,0,.937-.937v-2.4a.937.937,0,0,0-.937-.937" transform="translate(-35.073 -182.521)" fill="#3a5a84"/>
    <path id="Path_182" data-name="Path 182" d="M4.4,251.142H.937a.937.937,0,0,0-.937.937v2.395a.937.937,0,0,0,.937.937H4.4a.936.936,0,0,0,.937-.937v-2.395a.937.937,0,0,0-.937-.937" transform="translate(0 -211.857)" fill="#3a5a84"/>
    <path id="Path_183" data-name="Path 183" d="M45.971,251.142H42.513a.937.937,0,0,0-.937.937v2.395a.936.936,0,0,0,.937.937h3.459a.936.936,0,0,0,.937-.937v-2.395a.937.937,0,0,0-.937-.937" transform="translate(-35.073 -211.857)" fill="#3a5a84"/>
    <path id="Path_184" data-name="Path 184" d="M45.971,181.59H42.513a.937.937,0,0,0-.937.937v2.4a.937.937,0,0,0,.937.937h3.459a.937.937,0,0,0,.937-.937v-2.4a.937.937,0,0,0-.937-.937" transform="translate(-35.073 -153.185)" fill="#3a5a84"/>
    <path id="Path_185" data-name="Path 185" d="M31.3,39.263H28.208V11.134H41.88v3.309a.938.938,0,0,0,.093.407l1.059,2.2a.937.937,0,0,0,.844.53h.981v2.808a.937.937,0,0,0,.937.937,1.528,1.528,0,0,1,.674,2.9l-.165-.148a.826.826,0,0,0-1.1,0l-.132.118a1.514,1.514,0,0,1-.769-.961.937.937,0,1,0-1.819.453,3.4,3.4,0,0,0,1.146,1.8L38.5,30.1h2.46l4.3-3.87a3.434,3.434,0,0,0,.53.044,3.241,3.241,0,0,0,.446-.045L50.53,30.1h2.46L47.9,25.518a3.4,3.4,0,0,0-1.175-5.942v-2h1.052a.937.937,0,0,0,.844-.53l1.06-2.2a.93.93,0,0,0,.093-.407V11.134h4.545a.937.937,0,0,0,.643-1.619L52.624,7.307a.945.945,0,0,0-.406-.226L25.238.029a.973.973,0,0,0-.555.025L5.133,7.106a.939.939,0,0,0-.619.882V10.2a.937.937,0,0,0,.937.937H6.493v2.372H5.451a.937.937,0,0,0-.937.937v3.587a.937.937,0,0,0,.937.937H14a.937.937,0,0,0,.937-.937V14.442A.937.937,0,0,0,14,13.506H12.958V11.134h8.836V39.263H18.707a.937.937,0,0,0-.937.937v2.4a.937.937,0,0,0,.937.937H31.3a.937.937,0,0,0,.937-.937V40.2a.937.937,0,0,0-.937-.937M11.084,13.506H8.367V11.134h2.718ZM21.9,7.051H10.808L23.707,2.4Zm26,6.454h-4.15V11.134H47.9ZM26.228,2.225,44.692,7.051H28.1Z" transform="translate(-3.808 0)" fill="#3a5a84"/>
  </g>
</svg>
