<svg id="Group_3216" data-name="Group 3216" xmlns="http://www.w3.org/2000/svg" xmlns:xlink="http://www.w3.org/1999/xlink" width="49.359" height="44.947" viewBox="0 0 49.359 44.947">
  <defs>
    <clipPath id="clip-path">
      <rect id="Rectangle_1106" data-name="Rectangle 1106" width="49.36" height="44.947" fill="none"/>
    </clipPath>
  </defs>
  <g id="Group_2939" data-name="Group 2939" clip-path="url(#clip-path)">
    <path id="Path_321" data-name="Path 321" d="M44.355,205.8c-.458-.754-.887-1.532-1.273-2.328l-1.363-2.8a1.834,1.834,0,0,0-1.019-.917l-3.89-1.411a1.5,1.5,0,0,0-1.6.38l-2.153,2.268a1.558,1.558,0,0,1-1.942.265L28.9,199.9a4.754,4.754,0,0,1-1.725.585l-19.437,2.66a4.913,4.913,0,0,1-2.322-.253l-3.92,2.648a1.832,1.832,0,0,0-.766,1.14L.022,210.1a1.028,1.028,0,0,0,1.007,1.236H45.91a1.029,1.029,0,0,0,.881-1.568Z" transform="translate(0 -166.384)"/>
    <path id="Path_322" data-name="Path 322" d="M59.557,24.522l-1.562-2.376a2.971,2.971,0,0,0,.633-.6,2.829,2.829,0,0,0-.543-3.962,2.873,2.873,0,0,0-.881-.44L52.983,4.825A3.042,3.042,0,0,0,50.1.031,3.02,3.02,0,0,0,47.483,3.2L35.693,16.278l-3.456-7.05A1.778,1.778,0,0,0,30.4,8.263L22.968,9.276a1.276,1.276,0,0,0-1.092,1.435l.494,3.643L13.584,15.56a1.362,1.362,0,0,0-1.164,1.526l.88,6.537a1.854,1.854,0,0,0,2.093,1.592l5.735-.784.284,2.087,10.282-1.405L31.4,23.026l5.784-.8L49.5,5.923a2.807,2.807,0,0,0,.386.1l4.185,12.2a2.8,2.8,0,0,0-.495,2,2.834,2.834,0,0,0,1.092,1.87,2.79,2.79,0,0,0,.627.35l-1.417,3.926a4.34,4.34,0,0,1-1.194,1.755l-1.031.917a.525.525,0,0,0,.428.911l5.1-.76a1.309,1.309,0,0,0,.947-.657L59.6,25.885a1.3,1.3,0,0,0-.048-1.363M15.58,18.563a.7.7,0,0,1,.6-.784l4.632-.633A.694.694,0,1,1,21,18.521l-4.632.633a.525.525,0,0,1-.1.006.694.694,0,0,1-.687-.6m5.868,3.245-4.632.633a.559.559,0,0,1-.1.006.694.694,0,0,1-.1-1.381l4.638-.633a.693.693,0,0,1,.778.6.685.685,0,0,1-.591.778m10.445-5.651-5.729.784a.7.7,0,0,1-.8-.609l-.537-3.908a.712.712,0,0,1,.6-.8l4.185-.573a.712.712,0,0,1,.736.392L32.3,15.4a.53.53,0,0,1-.4.76M50.51,4.409a1.36,1.36,0,1,1,1.363-1.357A1.359,1.359,0,0,1,50.51,4.409m5.868,16.573a1.14,1.14,0,1,1,1.14-1.14,1.143,1.143,0,0,1-1.14,1.14" transform="translate(-10.414 -0.001)" fill="#3a5a84"/>
    <path id="Path_323" data-name="Path 323" d="M27.008,170.753l19.437-2.66a3.345,3.345,0,1,0-.911-6.628L26.1,164.125a3.345,3.345,0,0,0,.911,6.628m18.774-7.52a1.561,1.561,0,1,1-1.333,1.755,1.558,1.558,0,0,1,1.333-1.755m-4.861.663a1.562,1.562,0,1,1-1.333,1.755,1.558,1.558,0,0,1,1.333-1.755m-4.861.663a1.562,1.562,0,1,1-1.333,1.761,1.558,1.558,0,0,1,1.333-1.761m-4.861.669a1.559,1.559,0,1,1-1.327,1.755,1.55,1.55,0,0,1,1.327-1.755m-4.861.663a1.562,1.562,0,1,1-1.327,1.755,1.558,1.558,0,0,1,1.327-1.755" transform="translate(-19.478 -135.485)" fill="#3a5a84"/>
  </g>
</svg>
