<svg id="Icon_awesome-instagram" data-name="Icon awesome-instagram" xmlns="http://www.w3.org/2000/svg" width="20.861" height="20.857" viewBox="0 0 20.861 20.857">
  <path id="Icon_awesome-instagram-2" data-name="Icon awesome-instagram" d="M10.428,7.319a5.348,5.348,0,1,0,5.347,5.348A5.339,5.339,0,0,0,10.428,7.319Zm0,8.824A3.477,3.477,0,1,1,13.9,12.666,3.483,3.483,0,0,1,10.428,16.143ZM17.241,7.1a1.247,1.247,0,1,1-1.247-1.247A1.244,1.244,0,0,1,17.241,7.1Zm3.542,1.266A6.173,6.173,0,0,0,19.1,4a6.213,6.213,0,0,0-4.37-1.685c-1.722-.1-6.883-.1-8.605,0a6.2,6.2,0,0,0-4.37,1.68A6.193,6.193,0,0,0,.068,8.361c-.1,1.722-.1,6.883,0,8.605a6.173,6.173,0,0,0,1.685,4.37,6.221,6.221,0,0,0,4.37,1.685c1.722.1,6.883.1,8.605,0a6.172,6.172,0,0,0,4.37-1.685,6.213,6.213,0,0,0,1.685-4.37c.1-1.722.1-6.879,0-8.6ZM18.558,18.814A3.52,3.52,0,0,1,16.576,20.8c-1.373.545-4.631.419-6.148.419s-4.78.121-6.148-.419A3.52,3.52,0,0,1,2.3,18.814c-.545-1.373-.419-4.631-.419-6.148s-.121-4.78.419-6.148A3.52,3.52,0,0,1,4.28,4.536c1.373-.545,4.631-.419,6.148-.419s4.78-.121,6.148.419a3.52,3.52,0,0,1,1.983,1.983c.545,1.373.419,4.631.419,6.148S19.1,17.446,18.558,18.814Z" transform="translate(0.005 -2.238)"/>
</svg>
