<svg xmlns="http://www.w3.org/2000/svg" xmlns:xlink="http://www.w3.org/1999/xlink" width="1398" height="423" viewBox="0 0 1398 423">
  <defs>
    <clipPath id="clip-path">
      <rect id="Rectangle_1450" data-name="Rectangle 1450" width="1398" height="423" rx="16" transform="translate(261 2487)" fill="#f7f8fd"/>
    </clipPath>
    <clipPath id="clip-path-2">
      <rect id="Rectangle_1449" data-name="Rectangle 1449" width="1794.971" height="732.576" fill="none"/>
    </clipPath>
    <clipPath id="clip-path-3">
      <rect id="Rectangle_1436" data-name="Rectangle 1436" width="1432.388" height="732.576" fill="none"/>
    </clipPath>
    <clipPath id="clip-path-4">
      <rect id="Rectangle_1435" data-name="Rectangle 1435" width="1593.483" height="514.651" fill="none"/>
    </clipPath>
    <clipPath id="clip-path-12">
      <rect id="Rectangle_1444" data-name="Rectangle 1444" width="1432.388" height="732.576" fill="none" stroke="#3a5a84" stroke-width="1"/>
    </clipPath>
  </defs>
  <g id="Mask_Group_10" data-name="Mask Group 10" transform="translate(-261 -2487)" clip-path="url(#clip-path)">
    <g id="Group_3173" data-name="Group 3173" transform="translate(261 2360.524)" opacity="0.127">
      <g id="Group_3172" data-name="Group 3172" clip-path="url(#clip-path-2)">
        <g id="Group_3147" data-name="Group 3147">
          <g id="Group_3146" data-name="Group 3146" clip-path="url(#clip-path-3)">
            <g id="Group_3145" data-name="Group 3145" transform="translate(201.488 108.963)" opacity="0.2">
              <g id="Group_3144" data-name="Group 3144">
                <g id="Group_3143" data-name="Group 3143" clip-path="url(#clip-path-4)">
                  <path id="Path_838" data-name="Path 838" d="M375.733,310.833l-.14-.083L303.1,267.938V182.158l.135-.08,72.5-42.815,72.636,42.895v85.779l-.135.08Zm-72.083-43.209,72.083,42.57,72.086-42.57V182.472L375.733,139.9l-72.083,42.57Z" transform="translate(276.289 160.474)" fill="#646464"/>
                  <path id="Path_839" data-name="Path 839" d="M350.475,224.307a.274.274,0,0,1-.14-.038l-72.494-42.812V95.834a.275.275,0,1,1,.55,0v85.308L350.615,223.8a.275.275,0,0,1-.14.512Z" transform="translate(446.266 76.026)" fill="#646464"/>
                  <path id="Path_840" data-name="Path 840" d="M350.478,296.25l-.14-.083-72.361-42.736a.275.275,0,0,1,.28-.474l72.222,42.653,72.083-42.573V167.89l-72.083-42.57-72.222,42.65a.275.275,0,0,1-.28-.474l72.5-42.815.14.083,72.494,42.812v85.776l-.135.08Z" transform="translate(373.906 132.325)" fill="#646464"/>
                  <path id="Path_841" data-name="Path 841" d="M400.995,211.8l-72.5-42.815a.275.275,0,1,1,.28-.474l72.221,42.65,72.219-42.65a.275.275,0,1,1,.28.474Z" transform="translate(178.669 216.773)" fill="#646464"/>
                  <path id="Path_842" data-name="Path 842" d="M328.633,168.008a.275.275,0,0,1-.14-.512l72.5-42.815.14.083L473.493,167.5a.275.275,0,1,1-.28.474l-72.219-42.65-72.221,42.65A.274.274,0,0,1,328.633,168.008Z" transform="translate(178.67 132.325)" fill="#646464"/>
                  <path id="Path_843" data-name="Path 843" d="M502.028,124.681l.14.083,72.494,42.812v85.776l-.135.08-72.5,42.818-72.636-42.9V167.576l.135-.08Zm72.083,43.209-72.083-42.57-72.086,42.57v85.148l72.086,42.573,72.083-42.573Z" transform="translate(-211.801 132.325)" fill="#646464"/>
                  <path id="Path_844" data-name="Path 844" d="M552.542,253.473a.275.275,0,0,1-.275-.275V167.89l-72.223-42.653a.275.275,0,0,1,.28-.474l72.494,42.812V253.2A.275.275,0,0,1,552.542,253.473Z" transform="translate(-334.677 132.324)" fill="#646464"/>
                  <path id="Path_845" data-name="Path 845" d="M650.161,209.724a.275.275,0,0,1-.275-.275V124.141L577.8,81.571l-72.219,42.65a.275.275,0,1,1-.28-.474l72.5-42.815,72.636,42.9v85.622A.275.275,0,0,1,650.161,209.724Z" transform="translate(-504.653 47.876)" fill="#646464"/>
                  <path id="Line_438" data-name="Line 438" d="M0,85.737a.275.275,0,0,1-.275-.275V0A.275.275,0,0,1,0-.275.275.275,0,0,1,.275,0V85.462A.275.275,0,0,1,0,85.737Z" transform="translate(362.585 300.059)" fill="#646464"/>
                  <path id="Path_846" data-name="Path 846" d="M426.25,80.932l.14.083,72.5,42.812v85.779l-.135.08L426.25,252.5l-.14-.083-72.494-42.812V123.827Zm72.086,43.209L426.25,81.571l-72.084,42.57v85.151l72.084,42.57,72.086-42.57Z" transform="translate(81.052 47.876)" fill="#646464"/>
                  <path id="Path_847" data-name="Path 847" d="M476.767,209.724a.275.275,0,0,1-.275-.275V124.141L404.268,81.488a.275.275,0,0,1,.28-.474l72.494,42.812v85.622A.275.275,0,0,1,476.767,209.724Z" transform="translate(-41.824 47.877)" fill="#646464"/>
                  <path id="Line_439" data-name="Line 439" d="M72.358,43.008a.274.274,0,0,1-.14-.038L-.14.237a.275.275,0,0,1-.1-.377.275.275,0,0,1,.377-.1L72.5,42.5a.275.275,0,0,1-.14.512Z" transform="translate(290.226 257.325)" fill="#646464"/>
                  <path id="Path_848" data-name="Path 848" d="M375.734,252.5l-.14-.083L303.1,209.606V123.984a.275.275,0,1,1,.55,0v85.308l72.083,42.57,72.084-42.57V124.141L375.594,81.488a.275.275,0,0,1,.28-.474l72.494,42.812v85.779l-.135.08Z" transform="translate(276.289 47.877)" fill="#646464"/>
                  <path id="Path_849" data-name="Path 849" d="M350.475,37.183l.14.083,72.5,42.812v85.779l-.135.08-72.5,42.815-.14-.083-72.494-42.812V80.078Zm72.086,43.209-72.086-42.57-72.083,42.57v85.151l72.083,42.57,72.086-42.57Z" transform="translate(373.905 -36.572)" fill="#646464"/>
                  <path id="Path_850" data-name="Path 850" d="M400.994,208.706a.274.274,0,0,1-.14-.038l-72.5-42.812V80.076l.135-.08,72.5-42.812.14.083,72.494,42.81V165.7a.275.275,0,1,1-.55,0V80.39L400.995,37.823,328.908,80.39v85.151l72.226,42.653a.275.275,0,0,1-.14.512Z" transform="translate(178.668 -36.571)" fill="#646464"/>
                  <path id="Line_440" data-name="Line 440" d="M0,85.74a.275.275,0,0,1-.275-.275V0A.275.275,0,0,1,0-.275.275.275,0,0,1,.275,0V85.465A.275.275,0,0,1,0,85.74Z" transform="translate(796.741 43.663)" fill="#646464"/>
                  <path id="Line_441" data-name="Line 441" d="M0,85.74a.275.275,0,0,1-.275-.275V0A.275.275,0,0,1,0-.275.275.275,0,0,1,.275,0V85.465A.275.275,0,0,1,0,85.74Z" transform="translate(796.741 43.663)" fill="#646464"/>
                  <path id="Line_442" data-name="Line 442" d="M0,85.74a.275.275,0,0,1-.275-.275V0A.275.275,0,0,1,0-.275.275.275,0,0,1,.275,0V85.465A.275.275,0,0,1,0,85.74Z" transform="translate(290.226 342.79)" fill="#646464"/>
                  <path id="Line_443" data-name="Line 443" d="M0,43.008a.275.275,0,0,1-.237-.135.275.275,0,0,1,.1-.377L72.219-.237a.275.275,0,0,1,.377.1.275.275,0,0,1-.1.377L.14,42.969A.274.274,0,0,1,0,43.008Z" transform="translate(145.507 300.057)" fill="#646464"/>
                  <path id="Path_851" data-name="Path 851" d="M429.666,224.307a.275.275,0,0,1-.275-.275V138.41l72.636-42.9,72.5,42.815a.275.275,0,1,1-.28.474l-72.218-42.65-72.086,42.57v85.308A.275.275,0,0,1,429.666,224.307Z" transform="translate(-211.8 76.026)" fill="#646464"/>
                  <path id="Path_852" data-name="Path 852" d="M552.544,95.515l72.634,42.9v85.779l-.135.08-72.5,42.815L552.4,267l-72.5-42.812V138.41Zm72.084,43.209-72.084-42.57-72.086,42.57v85.151l72.086,42.57,72.084-42.57Z" transform="translate(-407.037 76.025)" fill="#646464"/>
                  <path id="Path_853" data-name="Path 853" d="M577.8,138.886,505.3,96.071a.275.275,0,0,1,.28-.474l72.221,42.65L650.021,95.6a.275.275,0,0,1,.28.474Z" transform="translate(-504.654 76.026)" fill="#646464"/>
                  <path id="Path_854" data-name="Path 854" d="M379.15,180.558a.275.275,0,0,1-.275-.275V94.661l.135-.08,72.358-42.733a.275.275,0,1,1,.28.474L379.425,94.975v85.308A.275.275,0,0,1,379.15,180.558Z" transform="translate(55.794 -8.423)" fill="#646464"/>
                  <path id="Path_855" data-name="Path 855" d="M502.025,195.141a.274.274,0,0,1-.14-.038L429.391,152.29V66.668a.275.275,0,1,1,.55,0v85.308l72.223,42.653a.275.275,0,0,1-.14.512Z" transform="translate(-139.44 19.726)" fill="#646464"/>
                  <path id="Line_444" data-name="Line 444" d="M0,85.74a.275.275,0,0,1-.275-.275V0A.275.275,0,0,1,0-.275.275.275,0,0,1,.275,0V85.465A.275.275,0,0,1,0,85.74Z" transform="translate(434.944 86.395)" fill="#646464"/>
                  <path id="Path_856" data-name="Path 856" d="M375.734,180.558a.275.275,0,0,1-.275-.275V94.975L303.235,52.322a.275.275,0,1,1,.28-.474l72.494,42.812v85.622A.275.275,0,0,1,375.734,180.558Z" transform="translate(348.647 -8.423)" fill="#646464"/>
                  <path id="Path_857" data-name="Path 857" d="M278.116,180.558a.275.275,0,0,1-.275-.275V94.661l.135-.08,72.361-42.733a.275.275,0,0,1,.28.474L278.391,94.975v85.308A.275.275,0,0,1,278.116,180.558Z" transform="translate(446.266 -8.423)" fill="#646464"/>
                  <path id="Path_858" data-name="Path 858" d="M502.028,237.918l-.14-.083-72.5-42.812V109.244l.135-.08,72.5-42.815.14.083,72.494,42.812v85.779l-.135.08Zm-72.086-43.209,72.086,42.57,72.084-42.57V109.558l-72.084-42.57-72.086,42.57Z" transform="translate(-211.801 19.727)" fill="#646464"/>
                  <path id="Line_445" data-name="Line 445" d="M0,85.74a.275.275,0,0,1-.275-.275V0A.275.275,0,0,1,0-.275.275.275,0,0,1,.275,0V85.465A.275.275,0,0,1,0,85.74Z" transform="translate(145.507 257.325)" fill="#646464"/>
                  <path id="Path_859" data-name="Path 859" d="M476.767,209.725a.274.274,0,0,1-.14-.038l-72.494-42.812V81.252a.275.275,0,0,1,.55,0V166.56l72.223,42.653a.275.275,0,0,1-.14.512Z" transform="translate(-41.824 47.877)" fill="#646464"/>
                  <path id="Path_860" data-name="Path 860" d="M426.249,253.518l-72.633-42.895V125a.275.275,0,0,1,.55,0v85.308l72.083,42.57,72.087-42.57V125a.275.275,0,1,1,.55,0v85.622Z" transform="translate(81.053 132.325)" fill="#646464"/>
                  <path id="Path_861" data-name="Path 861" d="M476.769,281.667l-72.636-42.895V152.993l.135-.08,72.5-42.815.14.083L549.4,152.993v85.779l-.135.08Zm-72.086-43.209,72.086,42.57,72.084-42.57V153.307l-72.084-42.57-72.086,42.57Z" transform="translate(-114.184 104.175)" fill="#646464"/>
                  <path id="Path_862" data-name="Path 862" d="M328.633,238.89a.275.275,0,0,1-.275-.275V152.993l.135-.08,72.358-42.733a.275.275,0,0,1,.28.474l-72.223,42.653v85.308A.275.275,0,0,1,328.633,238.89Z" transform="translate(251.031 104.176)" fill="#646464"/>
                  <path id="Path_863" data-name="Path 863" d="M400.995,325.416l-72.636-42.895V196.742l72.5-42.812a.275.275,0,0,1,.28.474l-72.226,42.653v85.151l72.086,42.57,72.219-42.65a.275.275,0,0,1,.28.474Z" transform="translate(178.668 188.624)" fill="#646464"/>
                  <path id="Line_446" data-name="Line 446" d="M0,85.74a.275.275,0,0,1-.275-.275V0A.275.275,0,0,1,0-.275.275.275,0,0,1,.275,0V85.465A.275.275,0,0,1,0,85.74Z" transform="translate(796.741 385.523)" fill="#646464"/>
                  <path id="Line_447" data-name="Line 447" d="M0,85.74a.275.275,0,0,1-.275-.275V0A.275.275,0,0,1,0-.275.275.275,0,0,1,.275,0V85.465A.275.275,0,0,1,0,85.74Z" transform="translate(796.741 385.522)" fill="#646464"/>
                  <path id="Path_864" data-name="Path 864" d="M527.283,195.186l-72.5-42.815a.275.275,0,0,1,.28-.474l72.219,42.65,72.086-42.57V66.669a.275.275,0,0,1,.55,0v85.622l-.135.08Z" transform="translate(-309.418 19.727)" fill="#646464"/>
                  <path id="Path_865" data-name="Path 865" d="M429.666,224.307a.275.275,0,0,1-.275-.275V138.41l72.636-42.895,72.5,42.815a.275.275,0,0,1-.28.474l-72.219-42.65-72.086,42.57v85.308A.275.275,0,0,1,429.666,224.307Z" transform="translate(-211.801 76.026)" fill="#646464"/>
                  <path id="Path_866" data-name="Path 866" d="M552.544,267.084l-72.636-42.895V138.41l.135-.08,72.5-42.815.14.083,72.494,42.812v85.779Zm-72.086-43.209,72.086,42.57,72.084-42.57V138.724l-72.084-42.57-72.086,42.57Z" transform="translate(-407.037 76.026)" fill="#646464"/>
                  <path id="Path_867" data-name="Path 867" d="M451.508,310.786a.274.274,0,0,1-.14-.038l-72.493-42.812V182.159l.135-.08,72.358-42.733a.275.275,0,1,1,.28.474l-72.223,42.653v85.148l72.223,42.653a.275.275,0,0,1-.14.512Z" transform="translate(55.795 160.475)" fill="#646464"/>
                  <path id="Line_448" data-name="Line 448" d="M0,85.74a.275.275,0,0,1-.275-.275V0A.275.275,0,0,1,0-.275.275.275,0,0,1,.275,0V85.465A.275.275,0,0,1,0,85.74Z" transform="translate(290.226 342.791)" fill="#646464"/>
                  <path id="Path_868" data-name="Path 868" d="M375.734,310.786a.275.275,0,0,1-.14-.512l72.223-42.653V182.47L375.734,139.9,303.515,182.55a.275.275,0,1,1-.28-.474l72.5-42.812.14.083,72.494,42.809v85.779l-.135.08-72.359,42.733A.274.274,0,0,1,375.734,310.786Z" transform="translate(276.289 160.476)" fill="#646464"/>
                  <path id="Path_869" data-name="Path 869" d="M350.477,282.639a.274.274,0,0,1-.14-.038l-72.5-42.812V154.166a.275.275,0,0,1,.55,0v85.308l72.226,42.653a.275.275,0,0,1-.14.512Z" transform="translate(446.266 188.624)" fill="#646464"/>
                  <path id="Path_870" data-name="Path 870" d="M375.733,223.291a.274.274,0,0,1-.14-.038L303.1,180.44V94.661l72.633-42.895.14.083,72.5,42.812v85.622a.275.275,0,1,1-.55,0V94.975L375.733,52.4,303.65,94.975v85.151l72.223,42.653a.275.275,0,0,1-.14.512Z" transform="translate(276.288 -8.422)" fill="#646464"/>
                  <path id="Line_449" data-name="Line 449" d="M0,85.74a.275.275,0,0,1-.275-.275V0A.275.275,0,0,1,0-.275.275.275,0,0,1,.275,0V85.465A.275.275,0,0,1,0,85.74Z" transform="translate(724.382 257.325)" fill="#646464"/>
                  <path id="Line_450" data-name="Line 450" d="M0,85.74a.275.275,0,0,1-.275-.275V0A.275.275,0,0,1,0-.275.275.275,0,0,1,.275,0V85.465A.275.275,0,0,1,0,85.74Z" transform="translate(652.022 129.128)" fill="#646464"/>
                  <path id="Line_451" data-name="Line 451" d="M0,43.008a.275.275,0,0,1-.237-.135.275.275,0,0,1,.1-.377L72.222-.237a.275.275,0,0,1,.377.1.275.275,0,0,1-.1.377L.14,42.969A.274.274,0,0,1,0,43.008Z" transform="translate(507.302 86.396)" fill="#646464"/>
                  <path id="Path_871" data-name="Path 871" d="M274.7,51.767l72.633,42.895v85.779L274.7,223.333l-.14-.083-72.5-42.809V94.662l.135-.08Zm72.083,43.209L274.7,52.405l-72.086,42.57v85.151L274.7,222.694l72.083-42.567Z" transform="translate(666.758 -8.422)" fill="#646464"/>
                  <path id="Path_872" data-name="Path 872" d="M325.217,238.89a.275.275,0,0,1-.275-.275V153.307l-72.223-42.653a.275.275,0,1,1,.28-.474l72.494,42.812v85.622A.275.275,0,0,1,325.217,238.89Z" transform="translate(543.883 104.176)" fill="#646464"/>
                  <path id="Path_873" data-name="Path 873" d="M299.961,237.916l-72.636-42.895V109.245l.135-.08,72.5-42.815.14.083,72.359,42.733a.275.275,0,0,1-.28.474l-72.219-42.65-72.086,42.57v85.148l72.086,42.57,72.219-42.65a.275.275,0,0,1,.28.474Z" transform="translate(569.141 19.729)" fill="#646464"/>
                  <path id="Path_874" data-name="Path 874" d="M177.083,109.677a.275.275,0,0,1-.14-.512l72.5-42.815.14.083,72.361,42.733a.275.275,0,1,1-.28.474l-72.222-42.65-72.219,42.65A.274.274,0,0,1,177.083,109.677Z" transform="translate(764.378 19.728)" fill="#646464"/>
                  <path id="Path_875" data-name="Path 875" d="M249.444,153.469l-72.5-42.815a.275.275,0,1,1,.28-.474l72.222,42.65,72.219-42.65a.275.275,0,1,1,.28.474Z" transform="translate(764.376 104.176)" fill="#646464"/>
                  <path id="Path_876" data-name="Path 876" d="M148.408,237.916l-.14-.083L75.775,195.021V109.245l.135-.08,72.5-42.815.14.083,72.5,42.812v85.776l-.135.08ZM76.325,194.707l72.083,42.57,72.086-42.57V109.559l-72.086-42.57-72.083,42.57Z" transform="translate(1154.848 19.729)" fill="#646464"/>
                  <path id="Line_452" data-name="Line 452" d="M0,85.737a.275.275,0,0,1-.275-.275V0A.275.275,0,0,1,0-.275.275.275,0,0,1,.275,0V85.462A.275.275,0,0,1,0,85.737Z" transform="translate(1230.898 129.13)" fill="#646464"/>
                  <path id="Path_877" data-name="Path 877" d="M224.183,281.667l-.14-.083L151.55,238.772V152.993l.135-.08,72.5-42.815.14.083,72.5,42.812v85.779l-.135.08ZM152.1,238.458l72.083,42.57,72.086-42.57V153.307l-72.086-42.57L152.1,153.307Z" transform="translate(861.995 104.176)" fill="#646464"/>
                  <path id="Path_878" data-name="Path 878" d="M198.925,253.473a.274.274,0,0,1-.14-.038l-72.494-42.812V125a.275.275,0,0,1,.55,0v85.308l72.223,42.653a.275.275,0,0,1-.14.512Z" transform="translate(1031.973 132.325)" fill="#646464"/>
                  <path id="Line_453" data-name="Line 453" d="M72.358,43.008a.274.274,0,0,1-.14-.038L-.14.237a.275.275,0,0,1-.1-.377.275.275,0,0,1,.377-.1L72.5,42.5a.275.275,0,0,1-.14.512Z" transform="translate(1230.898 214.593)" fill="#646464"/>
                  <path id="Path_879" data-name="Path 879" d="M274.7,281.623a.274.274,0,0,1-.14-.038l-72.494-42.812V152.993l.135-.08L274.7,110.1l.14.083,72.494,42.812v85.622a.275.275,0,0,1-.55,0V153.307L274.7,110.737l-72.084,42.57v85.151l72.223,42.653a.275.275,0,0,1-.14.512Z" transform="translate(666.76 104.175)" fill="#646464"/>
                  <path id="Path_880" data-name="Path 880" d="M299.958,325.416l-.14-.083-72.494-42.812V196.742l.135-.08,72.5-42.815,72.636,42.895v85.779l-.135.08Zm-72.084-43.209,72.084,42.57,72.086-42.57V197.056l-72.086-42.57-72.084,42.57Z" transform="translate(569.142 188.624)" fill="#646464"/>
                  <path id="Path_881" data-name="Path 881" d="M249.442,325.413l-.14-.083-72.494-42.809V196.9a.275.275,0,1,1,.55,0v85.308l72.083,42.567,72.084-42.567V197.056L249.3,154.4a.275.275,0,1,1,.28-.474l72.494,42.812v85.779l-.135.08Z" transform="translate(764.377 188.625)" fill="#646464"/>
                  <path id="Line_454" data-name="Line 454" d="M0,85.74a.275.275,0,0,1-.275-.275V0A.275.275,0,0,1,0-.275.275.275,0,0,1,.275,0V85.465A.275.275,0,0,1,0,85.74Z" transform="translate(796.741 385.523)" fill="#646464"/>
                  <path id="Line_455" data-name="Line 455" d="M0,85.74a.275.275,0,0,1-.275-.275V0A.275.275,0,0,1,0-.275.275.275,0,0,1,.275,0V85.465A.275.275,0,0,1,0,85.74Z" transform="translate(796.741 385.523)" fill="#646464"/>
                  <path id="Path_882" data-name="Path 882" d="M148.411,238.935l-72.5-42.815a.275.275,0,0,1,.28-.474l72.222,42.65,72.084-42.57V110.417a.275.275,0,1,1,.55,0V196.04Z" transform="translate(1154.847 104.176)" fill="#646464"/>
                  <path id="Path_883" data-name="Path 883" d="M151.825,282.64a.275.275,0,0,1-.14-.512l72.223-42.653V154.167a.275.275,0,0,1,.55,0v85.622l-.135.08L151.965,282.6A.274.274,0,0,1,151.825,282.64Z" transform="translate(934.355 188.625)" fill="#646464"/>
                  <path id="Path_884" data-name="Path 884" d="M173.667,268.057a.275.275,0,0,1-.275-.275V182.473l-72.223-42.653a.275.275,0,0,1,.28-.474l72.494,42.812v85.622A.275.275,0,0,1,173.667,268.057Z" transform="translate(1129.589 160.476)" fill="#646464"/>
                  <path id="Line_456" data-name="Line 456" d="M0,85.74a.275.275,0,0,1-.275-.275V0A.275.275,0,0,1,0-.275.275.275,0,0,1,.275,0V85.465A.275.275,0,0,1,0,85.74Z" transform="translate(1158.539 342.791)" fill="#646464"/>
                  <path id="Path_885" data-name="Path 885" d="M299.958,282.639a.274.274,0,0,1-.14-.038l-72.494-42.812V154.166a.275.275,0,1,1,.55,0v85.308L300.1,282.127a.275.275,0,0,1-.14.512Z" transform="translate(641.502 188.624)" fill="#646464"/>
                  <path id="Path_886" data-name="Path 886" d="M252.858,282.64a.275.275,0,0,1-.14-.512l72.223-42.653V154.167a.275.275,0,0,1,.55,0v85.622l-.135.08L253,282.6A.274.274,0,0,1,252.858,282.64Z" transform="translate(543.885 188.625)" fill="#646464"/>
                  <path id="Path_887" data-name="Path 887" d="M148.408,124.681l.14.083,72.5,42.812v85.779l-.135.08-72.5,42.815-.14-.083L75.775,253.355V167.576l.135-.08Zm72.086,43.209-72.086-42.57L76.325,167.89v85.151l72.083,42.57,72.086-42.57Z" transform="translate(1154.848 132.325)" fill="#646464"/>
                  <path id="Path_888" data-name="Path 888" d="M198.925,253.473a.275.275,0,0,1-.275-.275V167.89l-72.223-42.653a.275.275,0,1,1,.28-.474L199.2,167.576V253.2A.275.275,0,0,1,198.925,253.473Z" transform="translate(1031.973 132.325)" fill="#646464"/>
                  <path id="Path_889" data-name="Path 889" d="M296.545,209.724a.275.275,0,0,1-.275-.275V124.141l-72.083-42.57L152.1,124.141v85.308a.275.275,0,0,1-.55,0V123.827l72.636-42.895,72.633,42.895v85.622A.275.275,0,0,1,296.545,209.724Z" transform="translate(861.994 47.876)" fill="#646464"/>
                  <path id="Path_890" data-name="Path 890" d="M173.667,80.932l.14.083L246.3,123.827v85.779l-.135.08-72.5,42.815-72.633-42.895V123.827l.135-.08Zm72.084,43.209-72.084-42.57-72.083,42.57v85.151l72.083,42.57,72.084-42.57Z" transform="translate(1057.229 47.877)" fill="#646464"/>
                  <path id="Path_891" data-name="Path 891" d="M202.342,224.307a.275.275,0,0,1-.14-.512l72.223-42.653V95.834a.275.275,0,1,1,.55,0v85.622l-72.494,42.812A.274.274,0,0,1,202.342,224.307Z" transform="translate(739.119 76.026)" fill="#646464"/>
                  <path id="Path_892" data-name="Path 892" d="M249.442,208.708a.275.275,0,0,1-.14-.512l72.223-42.653V80.392l-72.084-42.57-72.219,42.65a.275.275,0,0,1-.28-.474l72.5-42.815,72.634,42.9v85.779L249.582,208.67A.274.274,0,0,1,249.442,208.708Z" transform="translate(764.377 -36.572)" fill="#646464"/>
                  <path id="Line_457" data-name="Line 457" d="M0,85.74a.275.275,0,0,1-.275-.275V0A.275.275,0,0,1,0-.275.275.275,0,0,1,.275,0V85.465A.275.275,0,0,1,0,85.74Z" transform="translate(796.741 43.663)" fill="#646464"/>
                  <path id="Line_458" data-name="Line 458" d="M0,85.74a.275.275,0,0,1-.275-.275V0A.275.275,0,0,1,0-.275.275.275,0,0,1,.275,0V85.465A.275.275,0,0,1,0,85.74Z" transform="translate(796.741 43.664)" fill="#646464"/>
                  <path id="Path_893" data-name="Path 893" d="M148.408,238.935l-.14-.083L75.91,196.119a.275.275,0,0,1,.28-.474l72.219,42.65,72.086-42.57V110.417a.275.275,0,0,1,.55,0v85.622Z" transform="translate(1154.848 104.175)" fill="#646464"/>
                  <path id="Path_894" data-name="Path 894" d="M151.825,223.289a.275.275,0,0,1-.14-.512l72.223-42.653V94.973l-72.223-42.65a.275.275,0,0,1,.28-.474l72.494,42.81v85.779l-.135.08L151.965,223.25A.274.274,0,0,1,151.825,223.289Z" transform="translate(934.354 -8.421)" fill="#646464"/>
                  <path id="Path_895" data-name="Path 895" d="M274.7,223.333l-.14-.083-72.494-42.809V94.662l.135-.08L274.56,51.849a.275.275,0,0,1,.28.474L202.617,94.976v85.151L274.7,222.694l72.219-42.647a.275.275,0,0,1,.28.474Z" transform="translate(666.76 -8.422)" fill="#646464"/>
                  <path id="Path_896" data-name="Path 896" d="M325.216,180.558a.275.275,0,0,1-.275-.275V94.975L252.718,52.322a.275.275,0,1,1,.28-.474l72.494,42.812v85.622A.275.275,0,0,1,325.216,180.558Z" transform="translate(543.885 -8.422)" fill="#646464"/>
                  <path id="Path_897" data-name="Path 897" d="M274.7,310.833l-72.634-42.895V182.316a.275.275,0,0,1,.55,0v85.308l72.084,42.57,72.086-42.57V182.473L274.56,139.82a.275.275,0,0,1,.28-.474l72.5,42.812v85.779l-.135.08Z" transform="translate(666.759 160.475)" fill="#646464"/>
                  <path id="Line_459" data-name="Line 459" d="M0,85.74a.275.275,0,0,1-.275-.275V0A.275.275,0,0,1,0-.275.275.275,0,0,1,.275,0V85.465A.275.275,0,0,1,0,85.74Z" transform="translate(869.1 171.861)" fill="#646464"/>
                  <path id="Line_460" data-name="Line 460" d="M0,85.74a.275.275,0,0,1-.275-.275V0A.275.275,0,0,1,0-.275.275.275,0,0,1,.275,0V85.465A.275.275,0,0,1,0,85.74Z" transform="translate(941.46 300.058)" fill="#646464"/>
                  <path id="Line_461" data-name="Line 461" d="M0,43.008a.275.275,0,0,1-.237-.135.275.275,0,0,1,.1-.377L72.219-.237a.275.275,0,0,1,.377.1.275.275,0,0,1-.1.377L.14,42.969A.274.274,0,0,1,0,43.008Z" transform="translate(1013.82 385.523)" fill="#646464"/>
                </g>
              </g>
            </g>
          </g>
        </g>
        <path id="Path_898" data-name="Path 898" d="M224.183,51.766l.14.083,72.5,42.812V180.44l-.135.08-72.5,42.815-.14-.083L151.549,180.44V94.661l.135-.08Zm72.086,43.209L224.183,52.4,152.1,94.975v85.151l72.083,42.57,72.086-42.57Z" transform="translate(1063.484 100.541)" fill="#646464"/>
        <g id="Group_3149" data-name="Group 3149">
          <g id="Group_3148" data-name="Group 3148" clip-path="url(#clip-path-3)">
            <path id="Path_899" data-name="Path 899" d="M126.566,238.89a.275.275,0,0,1-.275-.275V152.993l.135-.08,72.359-42.733a.275.275,0,0,1,.28.474l-72.223,42.653v85.308A.275.275,0,0,1,126.566,238.89Z" transform="translate(1233.462 213.138)" fill="#646464"/>
            <path id="Path_900" data-name="Path 900" d="M198.925,237.918l-72.5-42.815a.275.275,0,0,1,.28-.474l72.219,42.65,72.086-42.57V109.558l-72.086-42.57-72.219,42.65a.275.275,0,0,1-.28-.474l72.5-42.815,72.636,42.9v85.779l-.135.08Z" transform="translate(1161.102 128.689)" fill="#646464"/>
          </g>
        </g>
        <path id="Path_901" data-name="Path 901" d="M321.8,109.676a.274.274,0,0,1-.14-.038l-72.219-42.65-72.222,42.65a.275.275,0,1,1-.28-.474l72.5-42.815.14.083,72.358,42.733a.275.275,0,0,1-.14.512Z" transform="translate(965.865 128.69)" fill="#646464"/>
        <path id="Path_902" data-name="Path 902" d="M249.441,153.469l-72.5-42.815a.275.275,0,0,1,.28-.474l72.219,42.65,72.222-42.65a.275.275,0,1,1,.28.474Z" transform="translate(965.866 213.138)" fill="#646464"/>
        <path id="Path_903" data-name="Path 903" d="M350.478,237.918l-72.636-42.895V109.244l.135-.08,72.5-42.815.14.083,72.494,42.812v85.779l-.135.08Zm-72.086-43.209,72.086,42.57,72.083-42.57V109.558l-72.083-42.57-72.086,42.57Z" transform="translate(575.394 128.689)" fill="#646464"/>
        <path id="Path_904" data-name="Path 904" d="M328.633,209.724a.275.275,0,0,1-.14-.512l72.223-42.653V81.251a.275.275,0,1,1,.55,0v85.622l-.135.08-72.358,42.733A.274.274,0,0,1,328.633,209.724Z" transform="translate(452.519 156.84)" fill="#646464"/>
        <path id="Path_905" data-name="Path 905" d="M426.249,253.517l-72.5-42.815a.275.275,0,1,1,.28-.474l72.219,42.65,72.087-42.57V125a.275.275,0,1,1,.55,0v85.622Z" transform="translate(282.542 241.288)" fill="#646464"/>
        <path id="Line_462" data-name="Line 462" d="M0,85.74a.275.275,0,0,1-.275-.275V0A.275.275,0,0,1,0-.275.275.275,0,0,1,.275,0V85.465A.275.275,0,0,1,0,85.74Z" transform="translate(998.23 238.091)" fill="#646464"/>
        <path id="Path_906" data-name="Path 906" d="M274.7,281.667l-72.636-42.895V152.993l.135-.08L274.7,110.1l.14.083,72.494,42.812v85.779l-.135.08Zm-72.086-43.209,72.086,42.57,72.083-42.57V153.307L274.7,110.736l-72.086,42.57Z" transform="translate(868.247 213.138)" fill="#646464"/>
        <path id="Path_907" data-name="Path 907" d="M252.858,253.473a.275.275,0,0,1-.14-.512l72.223-42.653V125a.275.275,0,1,1,.55,0v85.622l-.135.08L253,253.434A.274.274,0,0,1,252.858,253.473Z" transform="translate(745.372 241.287)" fill="#646464"/>
        <path id="Line_463" data-name="Line 463" d="M0,43.008a.275.275,0,0,1-.237-.135.275.275,0,0,1,.1-.377L72.219-.237a.275.275,0,0,1,.377.1.275.275,0,0,1-.1.377L.14,42.969A.274.274,0,0,1,0,43.008Z" transform="translate(925.872 323.555)" fill="#646464"/>
        <path id="Path_908" data-name="Path 908" d="M224.184,281.622a.275.275,0,0,1-.14-.512l72.223-42.653V153.306l-72.083-42.57L152.1,153.306v85.308a.275.275,0,1,1-.55,0V152.992l.135-.08,72.5-42.815.14.083,72.494,42.812v85.779l-.135.08-72.358,42.733A.274.274,0,0,1,224.184,281.622Z" transform="translate(1063.484 213.138)" fill="#646464"/>
        <g id="Group_3151" data-name="Group 3151">
          <g id="Group_3150" data-name="Group 3150" clip-path="url(#clip-path-3)">
            <path id="Path_909" data-name="Path 909" d="M198.928,325.416l-72.636-42.895V196.742l.135-.08,72.5-42.815.14.083,72.494,42.812v85.779Zm-72.086-43.209,72.086,42.57,72.084-42.57V197.055l-72.084-42.57-72.086,42.57Z" transform="translate(1161.1 297.587)" fill="#646464"/>
          </g>
        </g>
        <path id="Path_910" data-name="Path 910" d="M249.442,325.416l-.14-.083-72.494-42.812V196.742l.135-.08L249.3,153.929a.275.275,0,1,1,.28.474l-72.223,42.653v85.151l72.084,42.57,72.083-42.57V196.9a.275.275,0,1,1,.55,0v85.622l-.135.08Z" transform="translate(965.867 297.587)" fill="#646464"/>
        <g id="Group_3153" data-name="Group 3153">
          <g id="Group_3152" data-name="Group 3152" clip-path="url(#clip-path-3)">
            <path id="Line_464" data-name="Line 464" d="M0,85.74a.275.275,0,0,1-.275-.275V0A.275.275,0,0,1,0-.275.275.275,0,0,1,.275,0V85.465A.275.275,0,0,1,0,85.74Z" transform="translate(1432.387 494.485)" fill="#646464"/>
            <path id="Line_465" data-name="Line 465" d="M0,85.74a.275.275,0,0,1-.275-.275V0A.275.275,0,0,1,0-.275.275.275,0,0,1,.275,0V85.465A.275.275,0,0,1,0,85.74Z" transform="translate(1432.387 494.485)" fill="#646464"/>
            <path id="Path_911" data-name="Path 911" d="M126.566,326.388a.275.275,0,0,1-.275-.275V240.49l.135-.08,72.359-42.733a.275.275,0,1,1,.28.474L126.841,240.8v85.308A.275.275,0,0,1,126.566,326.388Z" transform="translate(1233.462 382.036)" fill="#646464"/>
          </g>
        </g>
        <path id="Path_912" data-name="Path 912" d="M375.733,180.558a.275.275,0,0,1-.275-.275V94.975L303.235,52.322a.275.275,0,1,1,.28-.474l72.494,42.812v85.622A.275.275,0,0,1,375.733,180.558Z" transform="translate(550.138 100.54)" fill="#646464"/>
        <path id="Line_466" data-name="Line 466" d="M72.358,43.008a.274.274,0,0,1-.14-.038L-.14.237a.275.275,0,0,1-.1-.377.275.275,0,0,1,.377-.1L72.5,42.5a.275.275,0,0,1-.14.512Z" transform="translate(781.152 280.823)" fill="#646464"/>
        <path id="Path_913" data-name="Path 913" d="M350.474,238.934l-72.634-42.9V110.417a.275.275,0,1,1,.55,0v85.308l72.084,42.57,72.221-42.65a.275.275,0,0,1,.28.474Z" transform="translate(575.396 213.138)" fill="#646464"/>
        <path id="Path_914" data-name="Path 914" d="M400.994,267.084l-72.636-42.895V138.41l.135-.08,72.5-42.815.14.083,72.494,42.812v85.779l-.135.08Zm-72.086-43.209,72.086,42.57,72.084-42.57V138.724l-72.084-42.57-72.086,42.57Z" transform="translate(380.159 184.989)" fill="#646464"/>
        <path id="Path_915" data-name="Path 915" d="M498.611,182.591a.274.274,0,0,1-.14-.038L426.253,139.9l-72.222,42.65a.275.275,0,1,1-.28-.474l72.5-42.815,72.5,42.815a.275.275,0,0,1-.14.512Z" transform="translate(282.541 269.438)" fill="#646464"/>
        <path id="Path_916" data-name="Path 916" d="M299.958,282.639a.274.274,0,0,1-.14-.038l-72.494-42.812V154.166a.275.275,0,1,1,.55,0v85.308L300.1,282.127a.275.275,0,0,1-.14.512Z" transform="translate(842.989 297.587)" fill="#646464"/>
        <path id="Path_917" data-name="Path 917" d="M278.116,268.056a.275.275,0,0,1-.275-.275V182.159l72.494-42.812a.275.275,0,0,1,.28.474l-72.223,42.653v85.308A.275.275,0,0,1,278.116,268.056Z" transform="translate(647.756 269.438)" fill="#646464"/>
        <path id="Path_918" data-name="Path 918" d="M252.858,282.639a.275.275,0,0,1-.14-.512l72.223-42.653V154.166a.275.275,0,1,1,.55,0v85.622l-.135.08L253,282.6A.274.274,0,0,1,252.858,282.639Z" transform="translate(745.372 297.587)" fill="#646464"/>
        <path id="Path_919" data-name="Path 919" d="M151.825,282.639a.275.275,0,0,1-.14-.512l72.223-42.653V154.166a.275.275,0,0,1,.55,0v85.622L151.965,282.6A.274.274,0,0,1,151.825,282.639Z" transform="translate(1135.843 297.587)" fill="#646464"/>
        <g id="Group_3155" data-name="Group 3155">
          <g id="Group_3154" data-name="Group 3154" clip-path="url(#clip-path-3)">
            <path id="Path_920" data-name="Path 920" d="M198.928,354.581l-72.636-42.895V225.91l.135-.08,72.5-42.818.14.083,72.494,42.815v85.776Zm-72.086-43.209,72.086,42.57,72.084-42.57V226.224l-72.084-42.573-72.086,42.573Z" transform="translate(1161.1 353.885)" fill="#646464"/>
          </g>
        </g>
        <path id="Path_921" data-name="Path 921" d="M177.084,326.387a.275.275,0,0,1-.14-.512l72.223-42.653V197.914a.275.275,0,0,1,.55,0v85.622l-72.494,42.812A.274.274,0,0,1,177.084,326.387Z" transform="translate(1038.225 382.034)" fill="#646464"/>
        <path id="Line_467" data-name="Line 467" d="M0,85.737a.275.275,0,0,1-.275-.275V0A.275.275,0,0,1,0-.275.275.275,0,0,1,.275,0V85.462A.275.275,0,0,1,0,85.737Z" transform="translate(1142.949 579.95)" fill="#646464"/>
        <g id="Group_3157" data-name="Group 3157">
          <g id="Group_3156" data-name="Group 3156" clip-path="url(#clip-path-3)">
            <path id="Path_922" data-name="Path 922" d="M198.925,310.789a.274.274,0,0,1-.14-.038l-72.494-42.812V182.159l.135-.08,72.359-42.733a.275.275,0,0,1,.28.474l-72.223,42.653v85.151l72.223,42.653a.275.275,0,0,1-.14.512Z" transform="translate(1233.462 269.438)" fill="#646464"/>
            <path id="Line_468" data-name="Line 468" d="M0,85.74a.275.275,0,0,1-.275-.275V0A.275.275,0,0,1,0-.275.275.275,0,0,1,.275,0V85.465A.275.275,0,0,1,0,85.74Z" transform="translate(1432.387 323.555)" fill="#646464"/>
            <path id="Line_469" data-name="Line 469" d="M0,85.737a.275.275,0,0,1-.275-.275V0A.275.275,0,0,1,0-.275.275.275,0,0,1,.275,0V85.462A.275.275,0,0,1,0,85.737Z" transform="translate(1432.387 579.95)" fill="#646464"/>
          </g>
        </g>
        <path id="Path_923" data-name="Path 923" d="M350.478,124.68l.14.083,72.493,42.812v85.779l-.135.08-72.5,42.815-.14-.083-72.5-42.812V167.575l.135-.08Zm72.083,43.209-72.083-42.57-72.086,42.57v85.151l72.086,42.57,72.083-42.57Z" transform="translate(575.394 241.287)" fill="#646464"/>
        <path id="Path_924" data-name="Path 924" d="M426.25,209.724a.275.275,0,0,1-.275-.275V124.14L353.752,81.488a.275.275,0,1,1,.28-.474l72.494,42.812v85.622A.275.275,0,0,1,426.25,209.724Z" transform="translate(354.901 156.839)" fill="#646464"/>
        <path id="Line_470" data-name="Line 470" d="M72.358,43.008a.274.274,0,0,1-.14-.038L-.14.237a.275.275,0,0,1-.1-.377.275.275,0,0,1,.377-.1L72.5,42.5a.275.275,0,0,1-.14.512Z" transform="translate(636.434 366.287)" fill="#646464"/>
        <path id="Path_925" data-name="Path 925" d="M252.858,253.472a.275.275,0,0,1-.275-.275V167.575l.135-.08,72.358-42.733a.275.275,0,1,1,.28.474l-72.223,42.653V253.2A.275.275,0,0,1,252.858,253.472Z" transform="translate(745.372 241.287)" fill="#646464"/>
        <path id="Path_926" data-name="Path 926" d="M347.061,209.724a.275.275,0,0,1-.275-.275V124.14L274.7,81.57l-72.084,42.57v85.308a.275.275,0,1,1-.55,0V123.826l72.634-42.9,72.636,42.9v85.622A.275.275,0,0,1,347.061,209.724Z" transform="translate(868.249 156.838)" fill="#646464"/>
        <path id="Path_927" data-name="Path 927" d="M325.216,80.932l72.633,42.895v85.779l-.135.08-72.5,42.815-72.633-42.9V123.827ZM397.3,124.141,325.216,81.57l-72.083,42.57v85.151l72.083,42.57,72.083-42.57Z" transform="translate(673.015 156.839)" fill="#646464"/>
        <path id="Path_928" data-name="Path 928" d="M249.441,224.307a.274.274,0,0,1-.14-.038l-72.494-42.812V95.834a.275.275,0,0,1,.55,0v85.308l72.223,42.653a.275.275,0,0,1-.14.512Z" transform="translate(1038.226 184.988)" fill="#646464"/>
        <g id="Group_3159" data-name="Group 3159">
          <g id="Group_3158" data-name="Group 3158" clip-path="url(#clip-path-3)">
            <path id="Path_929" data-name="Path 929" d="M271.286,165.972a.275.275,0,0,1-.275-.275V80.392l-72.086-42.57-72.219,42.65a.275.275,0,1,1-.28-.474l72.5-42.815,72.636,42.895V165.7A.275.275,0,0,1,271.286,165.972Z" transform="translate(1161.102 72.391)" fill="#646464"/>
          </g>
        </g>
        <path id="Path_930" data-name="Path 930" d="M249.442,208.707a.274.274,0,0,1-.14-.038l-72.494-42.812V80.078l72.633-42.895L321.94,80a.275.275,0,1,1-.28.474l-72.219-42.65-72.084,42.57v85.151L249.582,208.2a.275.275,0,0,1-.14.512Z" transform="translate(965.867 72.39)" fill="#646464"/>
        <path id="Path_931" data-name="Path 931" d="M202.342,136.809a.275.275,0,0,1-.14-.512l72.223-42.653V8.337a.275.275,0,1,1,.55,0V93.959l-.135.08-72.358,42.733A.274.274,0,0,1,202.342,136.809Z" transform="translate(940.609 16.092)" fill="#646464"/>
        <g id="Group_3161" data-name="Group 3161">
          <g id="Group_3160" data-name="Group 3160" clip-path="url(#clip-path-3)">
            <path id="Line_471" data-name="Line 471" d="M0,85.737a.275.275,0,0,1-.275-.275V0A.275.275,0,0,1,0-.275.275.275,0,0,1,.275,0V85.462A.275.275,0,0,1,0,85.737Z" transform="translate(1432.387 152.627)" fill="#646464"/>
            <path id="Line_472" data-name="Line 472" d="M0,85.737a.275.275,0,0,1-.275-.275V0A.275.275,0,0,1,0-.275.275.275,0,0,1,.275,0V85.462A.275.275,0,0,1,0,85.737Z" transform="translate(1432.387 152.626)" fill="#646464"/>
            <path id="Path_932" data-name="Path 932" d="M198.925,136.809a.274.274,0,0,1-.14-.038L126.291,93.959V8.336a.275.275,0,0,1,.55,0V93.645L199.065,136.3a.275.275,0,0,1-.14.512Z" transform="translate(1233.462 16.092)" fill="#646464"/>
          </g>
        </g>
        <path id="Path_933" data-name="Path 933" d="M448.094,268.055a.275.275,0,0,1-.275-.275V182.472L375.733,139.9l-72.083,42.57V267.78a.275.275,0,1,1-.55,0V182.158l72.633-42.895,72.636,42.895V267.78A.275.275,0,0,1,448.094,268.055Z" transform="translate(477.778 269.437)" fill="#646464"/>
        <path id="Path_934" data-name="Path 934" d="M350.478,238.934l-72.636-42.9V110.417a.275.275,0,1,1,.55,0v85.308l72.086,42.57,72.219-42.65a.275.275,0,0,1,.28.474Z" transform="translate(575.394 213.138)" fill="#646464"/>
        <path id="Path_935" data-name="Path 935" d="M400.994,95.514l72.634,42.9v85.779l-.135.08-72.5,42.815-.14-.083-72.5-42.812V138.409l.135-.08Zm72.084,43.209-72.084-42.57-72.086,42.57v85.151l72.086,42.57,72.084-42.57Z" transform="translate(380.159 184.988)" fill="#646464"/>
        <path id="Path_936" data-name="Path 936" d="M299.958,223.288a.274.274,0,0,1-.14-.038l-72.494-42.812V94.658l.135-.08,72.359-42.73a.275.275,0,0,1,.28.474l-72.223,42.65v85.151L300.1,222.776a.275.275,0,0,1-.14.512Z" transform="translate(842.99 100.541)" fill="#646464"/>
        <path id="Path_937" data-name="Path 937" d="M278.117,180.558a.275.275,0,0,1-.275-.275V94.661l.135-.08,72.358-42.733a.275.275,0,1,1,.28.474L278.392,94.975v85.308A.275.275,0,0,1,278.117,180.558Z" transform="translate(647.755 100.54)" fill="#646464"/>
        <path id="Path_938" data-name="Path 938" d="M224.184,223.332l-72.5-42.812a.275.275,0,0,1,.28-.474l72.219,42.647,72.083-42.567V94.975L224.044,52.322a.275.275,0,0,1,.28-.474l72.494,42.812V180.44l-.135.08Z" transform="translate(1063.484 100.541)" fill="#646464"/>
        <path id="Line_473" data-name="Line 473" d="M0,43.008a.275.275,0,0,1-.237-.135.275.275,0,0,1,.1-.377L72.219-.237a.275.275,0,0,1,.377.1.275.275,0,0,1-.1.377L.14,42.969A.274.274,0,0,1,0,43.008Z" transform="translate(1287.668 24.428)" fill="#646464"/>
        <g id="Group_3163" data-name="Group 3163">
          <g id="Group_3162" data-name="Group 3162" clip-path="url(#clip-path-12)">
            <path id="Path_939" data-name="Path 939" d="M198.928,151.437l-72.5-42.815a.275.275,0,1,1,.28-.474l72.222,42.65,72.084-42.57V22.919a.275.275,0,1,1,.55,0v85.622Z" transform="translate(1161.1 44.241)" fill="#3a5a84"/>
          </g>
        </g>
        <path id="Line_474" data-name="Line 474" d="M72.358,43.008a.274.274,0,0,1-.14-.038L-.14.237a.275.275,0,0,1-.1-.377.275.275,0,0,1,.377-.1L72.5,42.5a.275.275,0,0,1-.14.512Z" transform="translate(1215.309 24.429)" fill="#646464"/>
        <path id="Line_475" data-name="Line 475" d="M0,85.74a.275.275,0,0,1-.275-.275V0A.275.275,0,0,1,0-.275.275.275,0,0,1,.275,0V85.465A.275.275,0,0,1,0,85.74Z" transform="translate(1142.949 67.161)" fill="#646464"/>
        <g id="Group_3165" data-name="Group 3165">
          <g id="Group_3164" data-name="Group 3164" clip-path="url(#clip-path-3)">
            <path id="Path_940" data-name="Path 940" d="M126.567,180.558a.275.275,0,0,1-.275-.275V94.661l.135-.08,72.358-42.733a.275.275,0,1,1,.28.474L126.842,94.975v85.308A.275.275,0,0,1,126.567,180.558Z" transform="translate(1233.46 100.54)" fill="#646464"/>
            <path id="Line_476" data-name="Line 476" d="M0,85.74a.275.275,0,0,1-.275-.275V0A.275.275,0,0,1,0-.275.275.275,0,0,1,.275,0V85.465A.275.275,0,0,1,0,85.74Z" transform="translate(1432.387 67.161)" fill="#646464"/>
          </g>
        </g>
        <path id="Path_941" data-name="Path 941" d="M224.186,310.83l-.14-.083-72.5-42.809V182.158l.135-.08,72.361-42.733a.275.275,0,1,1,.28.474L152.1,182.472v85.151l72.086,42.567,72.084-42.567V182.315a.275.275,0,1,1,.55,0v85.622l-.135.08Z" transform="translate(1063.483 269.437)" fill="#646464"/>
        <g id="Group_3167" data-name="Group 3167">
          <g id="Group_3166" data-name="Group 3166" clip-path="url(#clip-path-3)">
            <path id="Path_942" data-name="Path 942" d="M198.925,224.307a.274.274,0,0,1-.14-.038l-72.494-42.812V95.834a.275.275,0,0,1,.55,0v85.308l72.223,42.653a.275.275,0,0,1-.14.512Z" transform="translate(1233.462 184.988)" fill="#646464"/>
          </g>
        </g>
        <path id="Line_477" data-name="Line 477" d="M0,85.74a.275.275,0,0,1-.275-.275V0A.275.275,0,0,1,0-.275.275.275,0,0,1,.275,0V85.465A.275.275,0,0,1,0,85.74Z" transform="translate(1287.668 409.02)" fill="#646464"/>
        <g id="Group_3169" data-name="Group 3169">
          <g id="Group_3168" data-name="Group 3168" clip-path="url(#clip-path-3)">
            <path id="Path_943" data-name="Path 943" d="M198.925,253.473a.275.275,0,0,1-.275-.275V167.89l-72.223-42.653a.275.275,0,0,1,.28-.474L199.2,167.576V253.2A.275.275,0,0,1,198.925,253.473Z" transform="translate(1233.461 241.288)" fill="#646464"/>
          </g>
        </g>
        <path id="Line_478" data-name="Line 478" d="M72.358,43.008a.274.274,0,0,1-.14-.038L-.14.237a.275.275,0,0,1-.1-.377.275.275,0,0,1,.377-.1L72.5,42.5a.275.275,0,0,1-.14.512Z" transform="translate(1142.95 494.484)" fill="#646464"/>
        <g id="Group_3171" data-name="Group 3171">
          <g id="Group_3170" data-name="Group 3170" clip-path="url(#clip-path-3)">
            <path id="Path_944" data-name="Path 944" d="M226.1,25.814a4.3,4.3,0,1,0,4.3-4.4,4.349,4.349,0,0,0-4.3,4.4" transform="translate(912.551 41.345)" fill="#323232"/>
            <path id="Path_945" data-name="Path 945" d="M175.583,54.98a4.3,4.3,0,1,0,4.3-4.4,4.349,4.349,0,0,0-4.3,4.4" transform="translate(1107.788 97.644)" fill="#323232"/>
            <path id="Path_946" data-name="Path 946" d="M276.616,54.98a4.3,4.3,0,1,0,4.3-4.4,4.349,4.349,0,0,0-4.3,4.4" transform="translate(717.318 97.644)" fill="#323232"/>
            <path id="Path_947" data-name="Path 947" d="M327.133,54.981a4.3,4.3,0,1,0,4.3-4.4,4.349,4.349,0,0,0-4.3,4.4" transform="translate(522.081 97.646)" fill="#323232"/>
            <path id="Path_948" data-name="Path 948" d="M327.133,113.312a4.3,4.3,0,1,0,4.3-4.4,4.349,4.349,0,0,0-4.3,4.4" transform="translate(522.081 210.243)" fill="#323232"/>
            <path id="Path_949" data-name="Path 949" d="M276.616,142.478a4.3,4.3,0,1,0,4.3-4.4,4.349,4.349,0,0,0-4.3,4.4" transform="translate(717.318 266.542)" fill="#323232"/>
            <path id="Path_950" data-name="Path 950" d="M251.358,98.729a4.3,4.3,0,1,0,4.3-4.4,4.349,4.349,0,0,0-4.3,4.4" transform="translate(814.934 182.093)" fill="#323232"/>
            <path id="Path_951" data-name="Path 951" d="M175.583,113.312a4.3,4.3,0,1,0,4.3-4.4,4.349,4.349,0,0,0-4.3,4.4" transform="translate(1107.788 210.243)" fill="#323232"/>
            <path id="Path_952" data-name="Path 952" d="M200.841,157.061a4.3,4.3,0,1,0,4.3-4.4,4.349,4.349,0,0,0-4.3,4.4" transform="translate(1010.171 294.691)" fill="#323232"/>
            <path id="Path_953" data-name="Path 953" d="M150.325,157.061a4.3,4.3,0,1,0,4.3-4.4,4.349,4.349,0,0,0-4.3,4.4" transform="translate(1205.404 294.691)" fill="#323232"/>
            <path id="Path_954" data-name="Path 954" d="M377.65,84.146a4.3,4.3,0,1,0,4.3-4.4,4.347,4.347,0,0,0-4.3,4.4" transform="translate(326.844 153.944)" fill="#323232"/>
            <path id="Path_955" data-name="Path 955" d="M402.908,127.9a4.3,4.3,0,1,0,4.3-4.4,4.347,4.347,0,0,0-4.3,4.4" transform="translate(229.227 238.392)" fill="#323232"/>
            <path id="Path_956" data-name="Path 956" d="M352.391,186.227a4.3,4.3,0,1,0,4.3-4.4,4.349,4.349,0,0,0-4.3,4.4" transform="translate(424.465 350.991)" fill="#323232"/>
            <path id="Path_957" data-name="Path 957" d="M276.616,200.81a4.3,4.3,0,1,0,4.3-4.4,4.349,4.349,0,0,0-4.3,4.4" transform="translate(717.318 379.14)" fill="#323232"/>
            <path id="Path_958" data-name="Path 958" d="M226.1,229.976a4.3,4.3,0,1,0,4.3-4.4,4.349,4.349,0,0,0-4.3,4.4" transform="translate(912.551 435.438)" fill="#323232"/>
            <path id="Path_959" data-name="Path 959" d="M150.325,215.394a4.3,4.3,0,1,0,4.3-4.4,4.349,4.349,0,0,0-4.3,4.4" transform="translate(1205.404 407.29)" fill="#323232"/>
            <path id="Path_960" data-name="Path 960" d="M200.841,244.558a4.3,4.3,0,1,0,4.3-4.4,4.349,4.349,0,0,0-4.3,4.4" transform="translate(1010.171 463.587)" fill="#323232"/>
          </g>
        </g>
      </g>
    </g>
  </g>
</svg>
