<svg xmlns="http://www.w3.org/2000/svg" width="23.842" height="22.819" viewBox="0 0 23.842 22.819">
  <g id="Group_3205" data-name="Group 3205" transform="translate(-411 -5245)">
    <path id="Icon_awesome-star" data-name="Icon awesome-star" d="M12.083.793l-2.91,5.9-6.511.949a1.427,1.427,0,0,0-.789,2.433l4.71,4.59L5.47,21.149a1.425,1.425,0,0,0,2.068,1.5l5.824-3.062,5.824,3.062a1.426,1.426,0,0,0,2.068-1.5L20.14,14.665l4.71-4.59a1.427,1.427,0,0,0-.789-2.433l-6.511-.949-2.91-5.9a1.427,1.427,0,0,0-2.558,0Z" transform="translate(409.559 5245.001)" fill="#3a5a84"/>
  </g>
</svg>
