<svg id="Component_91_18" data-name="Component 91 – 18" xmlns="http://www.w3.org/2000/svg" xmlns:xlink="http://www.w3.org/1999/xlink" width="22.004" height="20.822" viewBox="0 0 22.004 20.822">
  <defs>
    <clipPath id="clip-path">
      <rect id="Rectangle_1117" data-name="Rectangle 1117" width="22.004" height="20.822" fill="none"/>
    </clipPath>
  </defs>
  <g id="Group_2951" data-name="Group 2951" clip-path="url(#clip-path)">
    <path id="Path_324" data-name="Path 324" d="M15.524,20.822a.6.6,0,0,1-.476-.238L9.308,12.928l-7.128,7.7a.6.6,0,0,1-.437.191H.451a.383.383,0,0,1-.281-.643l8.051-8.7L.077.613A.383.383,0,0,1,.383,0h6.1a.6.6,0,0,1,.476.238l5.275,7.036L18.786.191A.6.6,0,0,1,19.223,0h1.292a.378.378,0,0,1,.351.23.378.378,0,0,1-.07.414L13.319,8.725l8.609,11.484a.383.383,0,0,1-.307.613Zm3.2-1.834L5.861,1.834H3.283l12.86,17.155Z" transform="translate(0)"/>
  </g>
</svg>
