<svg xmlns="http://www.w3.org/2000/svg" xmlns:xlink="http://www.w3.org/1999/xlink" width="2126.982" height="848.666" viewBox="0 0 2126.982 848.666">
  <defs>
    <clipPath id="clip-path">
      <rect id="Rectangle_1099" data-name="Rectangle 1099" width="2126.982" height="848.666" fill="none"/>
    </clipPath>
    <clipPath id="clip-path-2">
      <rect id="Rectangle_1086" data-name="Rectangle 1086" width="1697.333" height="848.666" fill="none"/>
    </clipPath>
    <clipPath id="clip-path-3">
      <rect id="Rectangle_1085" data-name="Rectangle 1085" width="1888.225" height="596.207" fill="none"/>
    </clipPath>
  </defs>
  <g id="Group_3111" data-name="Group 3111" opacity="0.122">
    <g id="Group_2920" data-name="Group 2920" clip-path="url(#clip-path)">
      <g id="Group_2895" data-name="Group 2895" transform="translate(429.649)">
        <g id="Group_2894" data-name="Group 2894" clip-path="url(#clip-path-2)">
          <g id="Group_2893" data-name="Group 2893" transform="translate(-429.649 126.231)" opacity="0.2">
            <g id="Group_2892" data-name="Group 2892">
              <g id="Group_2891" data-name="Group 2891" clip-path="url(#clip-path-3)">
                <path id="Path_186" data-name="Path 186" d="M389.12,337.918l-.137-.079L303.1,288.255V188.928l.137-.079,85.883-49.584.138.079,85.88,49.584v99.326l-.138.079Zm-85.471-49.981,85.471,49.346,85.468-49.346V189.246L389.12,139.9l-85.471,49.346Z" transform="translate(726.48 208.023)" fill="#646464"/>
                <path id="Path_187" data-name="Path 187" d="M278.117,244.623a.275.275,0,0,1-.138-.513l85.605-49.425V95.834a.275.275,0,1,1,.55,0V195l-.138.079-85.743,49.5A.274.274,0,0,1,278.117,244.623Z" transform="translate(665.996 103.26)" fill="#646464"/>
                <path id="Path_188" data-name="Path 188" d="M363.859,323.335l-.138-.079-85.88-49.587V174.346l86.017-49.663,85.883,49.584a.275.275,0,1,1-.275.476l-85.608-49.425-85.467,49.346v98.688L363.859,322.7l85.608-49.428a.275.275,0,1,1,.275.476Z" transform="translate(665.995 173.103)" fill="#646464"/>
                <path id="Path_189" data-name="Path 189" d="M414.376,218.571,328.5,168.987a.275.275,0,1,1,.275-.476l85.6,49.425,85.608-49.425a.275.275,0,1,1,.275.476Z" transform="translate(786.967 277.866)" fill="#646464"/>
                <path id="Path_190" data-name="Path 190" d="M500.121,174.78a.274.274,0,0,1-.137-.037l-85.608-49.425-85.6,49.425a.275.275,0,0,1-.275-.476l85.88-49.584.138.079,85.746,49.5a.275.275,0,0,1-.138.513Z" transform="translate(786.966 173.103)" fill="#646464"/>
                <path id="Path_191" data-name="Path 191" d="M515.409,124.683l.138.079,85.883,49.584v99.323l-.138.079-85.883,49.587-86.018-49.667V174.346l.138-.079Zm85.471,49.981-85.471-49.346-85.467,49.346v98.688L515.409,322.7l85.471-49.349Z" transform="translate(1028.908 173.103)" fill="#646464"/>
                <path id="Path_192" data-name="Path 192" d="M480.183,273.788a.275.275,0,0,1-.275-.275V174.346l.137-.079,85.742-49.5a.275.275,0,0,1,.275.476l-85.605,49.425v98.85A.275.275,0,0,1,480.183,273.788Z" transform="translate(1149.879 173.103)" fill="#646464"/>
                <path id="Path_193" data-name="Path 193" d="M505.441,230.039a.275.275,0,0,1-.275-.275V130.6l86.021-49.663,85.88,49.584a.275.275,0,0,1-.275.476L591.187,81.569l-85.471,49.346v98.85A.275.275,0,0,1,505.441,230.039Z" transform="translate(1210.363 68.339)" fill="#646464"/>
                <path id="Line_22" data-name="Line 22" d="M0,99.28a.275.275,0,0,1-.275-.275V0A.275.275,0,0,1,0-.275.275.275,0,0,1,.275,0V99.005A.275.275,0,0,1,0,99.28Z" transform="translate(1458.574 347.61)" fill="#646464"/>
                <path id="Path_194" data-name="Path 194" d="M439.637,80.934l.137.079,85.88,49.584v99.326l-86.018,49.663-.138-.079-85.883-49.584V130.6l.138-.079ZM525.1,130.914,439.637,81.569l-85.471,49.346v98.691l85.471,49.346L525.1,229.606Z" transform="translate(847.452 68.339)" fill="#646464"/>
                <path id="Path_195" data-name="Path 195" d="M404.408,230.04a.275.275,0,0,1-.275-.275V130.6l.138-.079,85.742-49.5a.275.275,0,1,1,.275.476l-85.6,49.425v98.85A.275.275,0,0,1,404.408,230.04Z" transform="translate(968.423 68.34)" fill="#646464"/>
                <path id="Line_23" data-name="Line 23" d="M0,49.779a.275.275,0,0,1-.238-.138.275.275,0,0,1,.1-.376L85.6-.238a.275.275,0,0,1,.376.1.275.275,0,0,1-.1.376L.137,49.743A.274.274,0,0,1,0,49.779Z" transform="translate(1458.574 298.104)" fill="#646464"/>
                <path id="Path_196" data-name="Path 196" d="M389.118,279.587l-.138-.079L303.1,229.923V130.6l85.88-49.584a.275.275,0,1,1,.275.476l-85.6,49.425v98.691l85.467,49.346,85.467-49.346v-98.85a.275.275,0,0,1,.55,0v99.168L475,230Z" transform="translate(726.482 68.34)" fill="#646464"/>
                <path id="Path_197" data-name="Path 197" d="M363.862,37.185l.138.079,85.88,49.584v99.326l-86.017,49.663-.137-.079-85.883-49.584V86.848ZM449.33,87.166,363.862,37.82,278.391,87.166v98.691L363.862,235.2l85.467-49.346Z" transform="translate(665.996 -36.425)" fill="#646464"/>
                <path id="Path_198" data-name="Path 198" d="M414.376,235.792a.275.275,0,0,1-.138-.513l85.608-49.425V87.163L414.376,37.821,328.908,87.163v98.85a.275.275,0,1,1-.55,0V86.845l.138-.079,85.88-49.58.138.079L500.4,86.845v99.326l-85.883,49.584A.274.274,0,0,1,414.376,235.792Z" transform="translate(786.967 -36.423)" fill="#646464"/>
                <path id="Line_24" data-name="Line 24" d="M0,99.284a.275.275,0,0,1-.275-.275V0A.275.275,0,0,1,0-.275.275.275,0,0,1,.275,0V99.009A.275.275,0,0,1,0,99.284Z" transform="translate(944.113 50.582)" fill="#646464"/>
                <path id="Line_25" data-name="Line 25" d="M0,99.284a.275.275,0,0,1-.275-.275V0A.275.275,0,0,1,0-.275.275.275,0,0,1,.275,0V99.009A.275.275,0,0,1,0,99.284Z" transform="translate(944.113 50.582)" fill="#646464"/>
                <path id="Line_26" data-name="Line 26" d="M0,99.284a.275.275,0,0,1-.275-.275V0A.275.275,0,0,1,0-.275.275.275,0,0,1,.275,0V99.009A.275.275,0,0,1,0,99.284Z" transform="translate(1544.317 397.112)" fill="#646464"/>
                <path id="Line_27" data-name="Line 27" d="M85.742,49.779a.274.274,0,0,1-.137-.037L-.138.238a.275.275,0,0,1-.1-.376.275.275,0,0,1,.376-.1l85.742,49.5a.275.275,0,0,1-.138.513Z" transform="translate(1630.062 347.607)" fill="#646464"/>
                <path id="Path_199" data-name="Path 199" d="M601.154,244.622a.275.275,0,0,1-.275-.275V145.5L515.408,96.152l-85.6,49.425a.275.275,0,0,1-.275-.476l85.88-49.584.138.079,85.883,49.584v99.168A.275.275,0,0,1,601.154,244.622Z" transform="translate(1028.907 103.26)" fill="#646464"/>
                <path id="Path_200" data-name="Path 200" d="M565.926,95.516l.138.079,85.883,49.584v99.326l-86.021,49.663-.138-.079-85.88-49.584V145.18l.138-.079ZM651.4,145.5,565.926,96.152,480.458,145.5v98.691l85.468,49.346L651.4,244.188Z" transform="translate(1149.878 103.26)" fill="#646464"/>
                <path id="Path_201" data-name="Path 201" d="M591.184,145.656,505.3,96.072a.275.275,0,0,1,.275-.476l85.6,49.425L676.792,95.6a.275.275,0,0,1,.275.476Z" transform="translate(1210.363 103.26)" fill="#646464"/>
                <path id="Path_202" data-name="Path 202" d="M464.893,200.873a.275.275,0,0,1-.275-.275v-98.85l-85.6-49.425a.275.275,0,0,1,.275-.476l85.88,49.584V200.6A.275.275,0,0,1,464.893,200.873Z" transform="translate(907.938 -1.504)" fill="#646464"/>
                <path id="Path_203" data-name="Path 203" d="M429.667,215.456a.275.275,0,0,1-.138-.513l85.6-49.425V66.668a.275.275,0,1,1,.55,0v99.168l-.137.079-85.742,49.5A.274.274,0,0,1,429.667,215.456Z" transform="translate(1028.908 33.417)" fill="#646464"/>
                <path id="Line_28" data-name="Line 28" d="M0,99.284a.275.275,0,0,1-.275-.275V0A.275.275,0,0,1,0-.275.275.275,0,0,1,.275,0V99.009A.275.275,0,0,1,0,99.284Z" transform="translate(1372.83 100.086)" fill="#646464"/>
                <path id="Path_204" data-name="Path 204" d="M303.375,200.874a.275.275,0,0,1-.275-.275V101.431l.138-.079,85.742-49.5a.275.275,0,1,1,.275.476l-85.6,49.425V200.6A.275.275,0,0,1,303.375,200.874Z" transform="translate(726.482 -1.504)" fill="#646464"/>
                <path id="Path_205" data-name="Path 205" d="M363.862,200.873a.275.275,0,0,1-.275-.275v-98.85L277.978,52.323a.275.275,0,1,1,.275-.476l85.883,49.584V200.6A.275.275,0,0,1,363.862,200.873Z" transform="translate(665.995 -1.504)" fill="#646464"/>
                <path id="Path_206" data-name="Path 206" d="M515.409,265l-.138-.079-85.88-49.584V116.014l.138-.079,85.88-49.584.138.079,85.883,49.584V215.34l-.138.079Zm-85.467-49.981,85.467,49.346,85.471-49.346V116.332L515.409,66.986l-85.467,49.346Z" transform="translate(1028.908 33.418)" fill="#646464"/>
                <path id="Line_29" data-name="Line 29" d="M0,99.284a.275.275,0,0,1-.275-.275V0A.275.275,0,0,1,0-.275.275.275,0,0,1,.275,0V99.009A.275.275,0,0,1,0,99.284Z" transform="translate(1715.805 298.104)" fill="#646464"/>
                <path id="Path_207" data-name="Path 207" d="M404.409,230.04a.275.275,0,0,1-.138-.513l85.6-49.425V81.252a.275.275,0,0,1,.55,0v99.168L404.546,230A.274.274,0,0,1,404.409,230.04Z" transform="translate(968.423 68.34)" fill="#646464"/>
                <path id="Path_208" data-name="Path 208" d="M439.637,273.831l-86.021-49.663V125a.275.275,0,1,1,.55,0v98.85L439.637,273.2,525.1,223.851V125a.275.275,0,0,1,.55,0v99.168l-.138.079Z" transform="translate(847.451 173.104)" fill="#646464"/>
                <path id="Path_209" data-name="Path 209" d="M490.151,308.752l-.138-.079-85.88-49.584V159.763l.138-.079,85.88-49.584.137.079,85.883,49.584v99.326l-.138.079Zm-85.467-49.981,85.467,49.346,85.471-49.346V160.08l-85.471-49.346L404.683,160.08Z" transform="translate(968.423 138.182)" fill="#646464"/>
                <path id="Path_210" data-name="Path 210" d="M414.376,259.206a.275.275,0,0,1-.275-.275v-98.85l-85.6-49.425a.275.275,0,1,1,.275-.476l85.88,49.584v99.168A.275.275,0,0,1,414.376,259.206Z" transform="translate(786.967 138.182)" fill="#646464"/>
                <path id="Path_211" data-name="Path 211" d="M414.376,352.5l-.138-.079-85.742-49.5a.275.275,0,0,1,.275-.476l85.6,49.425,85.471-49.346V203.829L414.238,154.4a.275.275,0,0,1,.275-.476L500.4,203.512v99.326Z" transform="translate(786.967 242.946)" fill="#646464"/>
                <path id="Line_30" data-name="Line 30" d="M0,99.284a.275.275,0,0,1-.275-.275V0A.275.275,0,0,1,0-.275.275.275,0,0,1,.275,0V99.009A.275.275,0,0,1,0,99.284Z" transform="translate(944.113 446.617)" fill="#646464"/>
                <path id="Line_31" data-name="Line 31" d="M0,99.284a.275.275,0,0,1-.275-.275V0A.275.275,0,0,1,0-.275.275.275,0,0,1,.275,0V99.009A.275.275,0,0,1,0,99.284Z" transform="translate(944.113 446.615)" fill="#646464"/>
                <path id="Path_212" data-name="Path 212" d="M540.67,215.5l-86.021-49.663V66.668a.275.275,0,0,1,.55,0v98.85l85.471,49.346,85.6-49.425a.275.275,0,0,1,.275.476Z" transform="translate(1089.392 33.418)" fill="#646464"/>
                <path id="Path_213" data-name="Path 213" d="M601.155,244.623a.275.275,0,0,1-.275-.275V145.5L515.409,96.152,429.8,145.577a.275.275,0,0,1-.275-.476l85.88-49.584.138.079L601.43,145.18v99.168A.275.275,0,0,1,601.155,244.623Z" transform="translate(1028.908 103.261)" fill="#646464"/>
                <path id="Path_214" data-name="Path 214" d="M565.926,294.17l-.138-.079-85.88-49.584V145.18l86.018-49.663.138.079,85.883,49.584v99.326l-.138.079Zm-85.468-49.981,85.468,49.346L651.4,244.189V145.5L565.926,96.152,480.458,145.5Z" transform="translate(1149.878 103.261)" fill="#646464"/>
                <path id="Path_215" data-name="Path 215" d="M379.15,337.873a.275.275,0,0,1-.138-.513l85.6-49.425V189.247l-85.6-49.425a.275.275,0,1,1,.275-.476l85.88,49.584v99.323l-.138.079-85.742,49.5A.274.274,0,0,1,379.15,337.873Z" transform="translate(907.937 208.025)" fill="#646464"/>
                <path id="Line_32" data-name="Line 32" d="M0,99.284a.275.275,0,0,1-.275-.275V0A.275.275,0,0,1,0-.275.275.275,0,0,1,.275,0V99.009A.275.275,0,0,1,0,99.284Z" transform="translate(1544.317 397.112)" fill="#646464"/>
                <path id="Path_216" data-name="Path 216" d="M389.117,337.873a.274.274,0,0,1-.137-.037L303.1,288.253V188.926l.138-.079,85.88-49.58.137.079L475,188.847a.275.275,0,1,1-.275.476l-85.6-49.422L303.65,189.244v98.691l85.6,49.425a.275.275,0,0,1-.138.513Z" transform="translate(726.482 208.026)" fill="#646464"/>
                <path id="Path_217" data-name="Path 217" d="M278.116,302.955a.275.275,0,0,1-.138-.513l85.608-49.425v-98.85a.275.275,0,1,1,.55,0v99.168l-85.883,49.584A.274.274,0,0,1,278.116,302.955Z" transform="translate(665.995 242.946)" fill="#646464"/>
                <path id="Path_218" data-name="Path 218" d="M389.121,250.378a.275.275,0,0,1-.138-.513l85.605-49.425V101.749L389.12,52.4,303.65,101.749V200.6a.275.275,0,0,1-.55,0V101.431l.138-.079L389.12,51.768l.138.079,85.88,49.584v99.326l-.138.079-85.742,49.5A.274.274,0,0,1,389.121,250.378Z" transform="translate(726.481 -1.503)" fill="#646464"/>
                <path id="Line_33" data-name="Line 33" d="M0,99.284a.275.275,0,0,1-.275-.275V0A.275.275,0,0,1,0-.275.275.275,0,0,1,.275,0V99.009A.275.275,0,0,1,0,99.284Z" transform="translate(1029.856 298.104)" fill="#646464"/>
                <path id="Line_34" data-name="Line 34" d="M0,99.284a.275.275,0,0,1-.275-.275V0A.275.275,0,0,1,0-.275.275.275,0,0,1,.275,0V99.009A.275.275,0,0,1,0,99.284Z" transform="translate(1115.6 149.591)" fill="#646464"/>
                <path id="Line_35" data-name="Line 35" d="M85.746,49.779a.274.274,0,0,1-.137-.037L-.138.238a.275.275,0,0,1-.1-.376.275.275,0,0,1,.376-.1l85.746,49.5a.275.275,0,0,1-.138.513Z" transform="translate(1201.343 100.087)" fill="#646464"/>
                <path id="Path_219" data-name="Path 219" d="M288.084,51.768l.137.079L374.1,101.432v99.326l-.138.079-85.883,49.58-.138-.079-85.88-49.58V101.432Zm85.471,49.981L288.084,52.4l-85.467,49.346V200.44l85.467,49.342,85.471-49.342Z" transform="translate(484.541 -1.502)" fill="#646464"/>
                <path id="Path_220" data-name="Path 220" d="M252.858,259.206a.275.275,0,0,1-.275-.275V159.763l.137-.079,85.742-49.5a.275.275,0,1,1,.275.476l-85.6,49.425v98.85A.275.275,0,0,1,252.858,259.206Z" transform="translate(605.512 138.182)" fill="#646464"/>
                <path id="Path_221" data-name="Path 221" d="M313.342,265l-.138-.079-85.743-49.5a.275.275,0,1,1,.275-.476l85.605,49.425,85.471-49.346V116.333L313.342,66.987l-85.605,49.425a.275.275,0,1,1-.275-.476l85.88-49.584.138.079,85.883,49.584v99.323l-.137.079Z" transform="translate(545.026 33.421)" fill="#646464"/>
                <path id="Path_222" data-name="Path 222" d="M348.571,116.448a.274.274,0,0,1-.137-.037l-85.6-49.425L177.22,116.412a.275.275,0,1,1-.275-.476l85.883-49.584,85.88,49.584a.275.275,0,0,1-.138.513Z" transform="translate(424.054 33.419)" fill="#646464"/>
                <path id="Path_223" data-name="Path 223" d="M262.826,160.239l-.137-.079-85.743-49.5a.275.275,0,0,1,.275-.476l85.6,49.425,85.608-49.425a.275.275,0,0,1,.275.476Z" transform="translate(424.055 138.182)" fill="#646464"/>
                <path id="Path_224" data-name="Path 224" d="M161.8,265l-.137-.079L75.775,215.338V116.015l.137-.079L161.8,66.352l.138.079,85.88,49.584v99.323l-.137.079ZM76.325,215.02,161.8,264.366l85.467-49.346V116.333L161.8,66.987,76.325,116.333Z" transform="translate(182.114 33.421)" fill="#646464"/>
                <path id="Line_36" data-name="Line 36" d="M0,99.28a.275.275,0,0,1-.275-.275V0A.275.275,0,0,1,0-.275.275.275,0,0,1,.275,0V99.005A.275.275,0,0,1,0,99.28Z" transform="translate(429.652 149.593)" fill="#646464"/>
                <path id="Path_225" data-name="Path 225" d="M237.57,308.753l-.137-.079L151.55,259.09V159.763l.138-.079L237.57,110.1l.138.079,85.88,49.584V259.09l-.138.079ZM152.1,258.772l85.471,49.346,85.467-49.346V160.081L237.57,110.735,152.1,160.081Z" transform="translate(363.569 138.183)" fill="#646464"/>
                <path id="Path_226" data-name="Path 226" d="M126.567,273.789a.275.275,0,0,1-.138-.513l85.6-49.425V125a.275.275,0,1,1,.55,0v99.168l-.137.079-85.742,49.5A.274.274,0,0,1,126.567,273.789Z" transform="translate(303.085 173.103)" fill="#646464"/>
                <path id="Line_37" data-name="Line 37" d="M0,49.779a.275.275,0,0,1-.238-.138.275.275,0,0,1,.1-.376L85.6-.238a.275.275,0,0,1,.376.1.275.275,0,0,1-.1.376L.138,49.743A.274.274,0,0,1,0,49.779Z" transform="translate(343.909 248.6)" fill="#646464"/>
                <path id="Path_227" data-name="Path 227" d="M288.084,308.71a.275.275,0,0,1-.138-.513l85.605-49.425V160.08l-85.468-49.346L202.617,160.08v98.85a.275.275,0,0,1-.55,0V159.763l.137-.079,85.88-49.584.138.079,85.88,49.584v99.326l-.138.079-85.743,49.5A.274.274,0,0,1,288.084,308.71Z" transform="translate(484.541 138.182)" fill="#646464"/>
                <path id="Path_228" data-name="Path 228" d="M313.345,352.5l-.138-.079-85.883-49.584V203.512l.137-.079,85.883-49.584.137.079,85.88,49.584v99.326l-.138.079Zm-85.471-49.981,85.471,49.346,85.467-49.346V203.83l-85.467-49.346L227.874,203.83Z" transform="translate(545.025 242.946)" fill="#646464"/>
                <path id="Path_229" data-name="Path 229" d="M262.826,352.5l-.138-.079-85.88-49.58V203.512l85.88-49.584a.275.275,0,1,1,.275.476l-85.6,49.425v98.691l85.467,49.342,85.467-49.342v-98.85a.275.275,0,1,1,.55,0v99.168Z" transform="translate(424.056 242.947)" fill="#646464"/>
                <path id="Line_38" data-name="Line 38" d="M0,99.284a.275.275,0,0,1-.275-.275V0A.275.275,0,0,1,0-.275.275.275,0,0,1,.275,0V99.009A.275.275,0,0,1,0,99.284Z" transform="translate(944.113 446.617)" fill="#646464"/>
                <path id="Line_39" data-name="Line 39" d="M0,99.284a.275.275,0,0,1-.275-.275V0A.275.275,0,0,1,0-.275.275.275,0,0,1,.275,0V99.009A.275.275,0,0,1,0,99.284Z" transform="translate(944.113 446.617)" fill="#646464"/>
                <path id="Path_230" data-name="Path 230" d="M161.792,259.248l-.137-.079-85.88-49.584V110.417a.275.275,0,1,1,.55,0v98.85l85.467,49.346L247.4,209.188a.275.275,0,1,1,.275.476Z" transform="translate(182.114 138.182)" fill="#646464"/>
                <path id="Path_231" data-name="Path 231" d="M237.567,302.955a.274.274,0,0,1-.137-.037l-85.88-49.584V154.167a.275.275,0,1,1,.55,0v98.85l85.6,49.425a.275.275,0,0,1-.138.513Z" transform="translate(363.57 242.947)" fill="#646464"/>
                <path id="Path_232" data-name="Path 232" d="M101.309,288.372a.275.275,0,0,1-.275-.275V188.929l.137-.079,85.742-49.5a.275.275,0,1,1,.275.476l-85.6,49.425V288.1A.275.275,0,0,1,101.309,288.372Z" transform="translate(242.6 208.026)" fill="#646464"/>
                <path id="Line_40" data-name="Line 40" d="M0,99.284a.275.275,0,0,1-.275-.275V0A.275.275,0,0,1,0-.275.275.275,0,0,1,.275,0V99.009A.275.275,0,0,1,0,99.284Z" transform="translate(515.395 397.113)" fill="#646464"/>
                <path id="Path_233" data-name="Path 233" d="M227.6,302.955a.275.275,0,0,1-.138-.513l85.605-49.425v-98.85a.275.275,0,0,1,.55,0v99.168l-85.88,49.584A.274.274,0,0,1,227.6,302.955Z" transform="translate(545.026 242.946)" fill="#646464"/>
                <path id="Path_234" data-name="Path 234" d="M338.6,302.955a.274.274,0,0,1-.137-.037l-85.88-49.584V154.167a.275.275,0,1,1,.55,0v98.85l85.6,49.425a.275.275,0,0,1-.138.513Z" transform="translate(605.51 242.947)" fill="#646464"/>
                <path id="Path_235" data-name="Path 235" d="M161.8,124.683l.138.079,85.88,49.584v99.326l-.137.079L161.8,323.335l-.137-.079L75.775,273.672V174.346l.138-.079Zm85.467,49.981L161.8,125.318,76.325,174.663v98.691L161.8,322.7l85.467-49.346Z" transform="translate(182.114 173.103)" fill="#646464"/>
                <path id="Path_236" data-name="Path 236" d="M126.567,273.788a.275.275,0,0,1-.275-.275V174.346l85.88-49.584a.275.275,0,0,1,.275.476l-85.6,49.425v98.85A.275.275,0,0,1,126.567,273.788Z" transform="translate(303.085 173.103)" fill="#646464"/>
                <path id="Path_237" data-name="Path 237" d="M323.313,230.039a.275.275,0,0,1-.275-.275v-98.85L237.567,81.569,152.1,130.914v98.85a.275.275,0,0,1-.55,0V130.6l.137-.079,85.88-49.584.137.079L323.588,130.6v99.168A.275.275,0,0,1,323.313,230.039Z" transform="translate(363.57 68.339)" fill="#646464"/>
                <path id="Path_238" data-name="Path 238" d="M187.051,80.934l.137.079,85.88,49.584v99.326l-.138.079-85.88,49.584-.137-.079-85.88-49.584V130.6l.138-.079Zm85.467,49.981L187.051,81.569l-85.467,49.346v98.691l85.467,49.346,85.467-49.346Z" transform="translate(242.601 68.34)" fill="#646464"/>
                <path id="Path_239" data-name="Path 239" d="M288.084,244.623a.274.274,0,0,1-.137-.037L202.067,195V95.834a.275.275,0,1,1,.55,0v98.85l85.6,49.425a.275.275,0,0,1-.138.513Z" transform="translate(484.541 103.26)" fill="#646464"/>
                <path id="Path_240" data-name="Path 240" d="M262.826,235.8a.274.274,0,0,1-.137-.037l-85.88-49.584V86.848l.137-.079,85.88-49.584,85.88,49.584a.275.275,0,0,1-.275.476l-85.6-49.425L177.359,87.166v98.691l85.6,49.425a.275.275,0,0,1-.138.513Z" transform="translate(424.056 -36.425)" fill="#646464"/>
                <path id="Line_41" data-name="Line 41" d="M0,99.284a.275.275,0,0,1-.275-.275V0A.275.275,0,0,1,0-.275.275.275,0,0,1,.275,0V99.009A.275.275,0,0,1,0,99.284Z" transform="translate(944.113 50.582)" fill="#646464"/>
                <path id="Line_42" data-name="Line 42" d="M0,99.284a.275.275,0,0,1-.275-.275V0A.275.275,0,0,1,0-.275.275.275,0,0,1,.275,0V99.009A.275.275,0,0,1,0,99.284Z" transform="translate(944.113 50.584)" fill="#646464"/>
                <path id="Path_241" data-name="Path 241" d="M161.8,259.248l-.138-.079L75.775,209.585V110.417a.275.275,0,1,1,.55,0v98.85L161.8,258.613l85.6-49.425a.275.275,0,0,1,.275.476Z" transform="translate(182.114 138.182)" fill="#646464"/>
                <path id="Path_242" data-name="Path 242" d="M237.567,250.375a.274.274,0,0,1-.137-.037l-85.88-49.584V101.428l.138-.079,85.742-49.5a.275.275,0,1,1,.275.476l-85.6,49.422v98.691l85.6,49.425a.275.275,0,0,1-.138.513Z" transform="translate(363.57 -1.502)" fill="#646464"/>
                <path id="Path_243" data-name="Path 243" d="M288.084,250.418l-.137-.079-85.742-49.5a.275.275,0,0,1,.275-.476l85.6,49.422,85.468-49.342V101.749L287.947,52.324a.275.275,0,1,1,.275-.476l85.88,49.584v99.326l-.138.079Z" transform="translate(484.541 -1.502)" fill="#646464"/>
                <path id="Path_244" data-name="Path 244" d="M252.858,200.874a.275.275,0,0,1-.275-.275V101.431l.138-.079,85.742-49.5a.275.275,0,1,1,.275.476l-85.6,49.425V200.6A.275.275,0,0,1,252.858,200.874Z" transform="translate(605.51 -1.503)" fill="#646464"/>
                <path id="Path_245" data-name="Path 245" d="M288.087,337.918l-.138-.079-85.883-49.584V188.929l85.883-49.584a.275.275,0,1,1,.275.476l-85.608,49.425v98.691l85.471,49.346,85.468-49.346v-98.85a.275.275,0,1,1,.55,0v99.168Z" transform="translate(484.54 208.025)" fill="#646464"/>
                <path id="Line_43" data-name="Line 43" d="M0,99.284a.275.275,0,0,1-.275-.275V0A.275.275,0,0,1,0-.275.275.275,0,0,1,.275,0V99.009A.275.275,0,0,1,0,99.284Z" transform="translate(858.37 199.095)" fill="#646464"/>
                <path id="Line_44" data-name="Line 44" d="M0,99.284a.275.275,0,0,1-.275-.275V0A.275.275,0,0,1,0-.275.275.275,0,0,1,.275,0V99.009A.275.275,0,0,1,0,99.284Z" transform="translate(772.625 347.608)" fill="#646464"/>
                <path id="Line_45" data-name="Line 45" d="M85.742,49.779a.274.274,0,0,1-.137-.037L-.138.238a.275.275,0,0,1-.1-.376.275.275,0,0,1,.376-.1l85.742,49.5a.275.275,0,0,1-.138.513Z" transform="translate(601.14 446.616)" fill="#646464"/>
              </g>
            </g>
          </g>
        </g>
      </g>
      <path id="Path_246" data-name="Path 246" d="M237.57,51.768l.138.079,85.88,49.584v99.326l-.138.079-85.88,49.584-.137-.079-85.883-49.584V101.431Zm85.467,49.981L237.57,52.4,152.1,101.749V200.44l85.471,49.346,85.467-49.346Z" transform="translate(363.568 124.727)" fill="#646464"/>
      <g id="Group_2897" data-name="Group 2897" transform="translate(429.649)">
        <g id="Group_2896" data-name="Group 2896" clip-path="url(#clip-path-2)">
          <path id="Path_247" data-name="Path 247" d="M212.309,259.205a.275.275,0,0,1-.275-.275V160.08l-85.6-49.425a.275.275,0,0,1,.275-.476l85.88,49.584V258.93A.275.275,0,0,1,212.309,259.205Z" transform="translate(-126.565 264.412)" fill="#646464"/>
          <path id="Path_248" data-name="Path 248" d="M212.312,265l-.137-.079L126.291,215.34V116.014l.138-.079L212.312,66.35l.138.079,85.742,49.5a.275.275,0,0,1-.275.476l-85.6-49.425-85.471,49.346v98.691l85.471,49.346,85.6-49.425a.275.275,0,1,1,.275.476Z" transform="translate(-126.566 159.648)" fill="#646464"/>
        </g>
      </g>
      <path id="Path_249" data-name="Path 249" d="M348.571,116.448a.274.274,0,0,1-.137-.037L262.826,66.986l-85.6,49.425a.275.275,0,1,1-.275-.476l85.88-49.584.138.079,85.746,49.5a.275.275,0,0,1-.138.513Z" transform="translate(424.055 159.649)" fill="#646464"/>
      <path id="Path_250" data-name="Path 250" d="M262.829,160.239l-.137-.079-85.746-49.5a.275.275,0,1,1,.275-.476L262.829,159.6l85.6-49.425a.275.275,0,0,1,.275.476Z" transform="translate(424.054 264.412)" fill="#646464"/>
      <path id="Path_251" data-name="Path 251" d="M363.859,265l-.138-.079-85.88-49.584V116.014L363.859,66.35l.137.079,85.883,49.584V215.34Zm-85.467-49.981,85.467,49.346,85.471-49.346V116.331L363.859,66.986l-85.467,49.346Z" transform="translate(665.996 159.648)" fill="#646464"/>
      <path id="Path_252" data-name="Path 252" d="M414.375,230.04a.274.274,0,0,1-.137-.037l-85.88-49.584V81.251a.275.275,0,1,1,.55,0V180.1l85.6,49.425a.275.275,0,0,1-.138.513Z" transform="translate(786.967 194.57)" fill="#646464"/>
      <path id="Path_253" data-name="Path 253" d="M439.637,273.831l-86.021-49.663V125a.275.275,0,0,1,.55,0v98.85L439.637,273.2l85.6-49.425a.275.275,0,1,1,.275.476Z" transform="translate(847.451 299.333)" fill="#646464"/>
      <path id="Line_46" data-name="Line 46" d="M0,99.284a.275.275,0,0,1-.275-.275V0A.275.275,0,0,1,0-.275.275.275,0,0,1,.275,0V99.009A.275.275,0,0,1,0,99.284Z" transform="translate(944.112 275.822)" fill="#646464"/>
      <path id="Path_254" data-name="Path 254" d="M288.084,308.752l-.138-.079-85.88-49.584V159.763l.138-.079,85.88-49.584.137.079L374.1,159.763v99.326Zm-85.467-49.981,85.467,49.346,85.471-49.346V160.08l-85.471-49.346L202.616,160.08Z" transform="translate(484.54 264.412)" fill="#646464"/>
      <path id="Path_255" data-name="Path 255" d="M338.6,273.788a.274.274,0,0,1-.137-.037l-85.88-49.584V125a.275.275,0,1,1,.55,0v98.85l85.6,49.425a.275.275,0,0,1-.138.513Z" transform="translate(605.511 299.333)" fill="#646464"/>
      <path id="Line_47" data-name="Line 47" d="M85.742,49.779a.274.274,0,0,1-.137-.037L-.138.238a.275.275,0,0,1-.1-.376.275.275,0,0,1,.376-.1l85.742,49.5a.275.275,0,0,1-.138.513Z" transform="translate(944.112 374.829)" fill="#646464"/>
      <path id="Path_256" data-name="Path 256" d="M237.567,308.709a.274.274,0,0,1-.137-.037l-85.88-49.584V159.762l.138-.079,85.88-49.584.138.079,85.88,49.584V258.93a.275.275,0,1,1-.55,0V160.08l-85.467-49.346L152.1,160.08v98.691l85.6,49.425a.275.275,0,0,1-.138.513Z" transform="translate(363.57 264.411)" fill="#646464"/>
      <g id="Group_2899" data-name="Group 2899" transform="translate(429.649)">
        <g id="Group_2898" data-name="Group 2898" clip-path="url(#clip-path-2)">
          <path id="Path_257" data-name="Path 257" d="M212.309,352.5l-.138-.079-85.88-49.584V203.512l.137-.079,85.88-49.584.137.079,85.883,49.584v99.326l-.138.079ZM126.841,302.52l85.467,49.346L297.78,302.52V203.829l-85.471-49.346-85.467,49.346Z" transform="translate(-126.565 369.176)" fill="#646464"/>
        </g>
      </g>
      <path id="Path_258" data-name="Path 258" d="M262.826,352.5l-.138-.079-85.88-49.584V203.67a.275.275,0,1,1,.55,0v98.85l85.467,49.346,85.467-49.346V203.829l-85.6-49.425a.275.275,0,0,1,.275-.476l85.88,49.584v99.326l-.138.079Z" transform="translate(424.055 369.176)" fill="#646464"/>
      <g id="Group_2901" data-name="Group 2901" transform="translate(429.649)">
        <g id="Group_2900" data-name="Group 2900" clip-path="url(#clip-path-2)">
          <path id="Line_48" data-name="Line 48" d="M0,99.284a.275.275,0,0,1-.275-.275V0A.275.275,0,0,1,0-.275.275.275,0,0,1,.275,0V99.009A.275.275,0,0,1,0,99.284Z" transform="translate(0.001 572.846)" fill="#646464"/>
          <path id="Line_49" data-name="Line 49" d="M0,99.284a.275.275,0,0,1-.275-.275V0A.275.275,0,0,1,0-.275.275.275,0,0,1,.275,0V99.009A.275.275,0,0,1,0,99.284Z" transform="translate(0.001 572.846)" fill="#646464"/>
          <path id="Path_259" data-name="Path 259" d="M212.309,346.7a.275.275,0,0,1-.275-.275v-98.85l-85.6-49.425a.275.275,0,0,1,.275-.476l85.88,49.584v99.168A.275.275,0,0,1,212.309,346.7Z" transform="translate(-126.565 473.94)" fill="#646464"/>
        </g>
      </g>
      <path id="Path_260" data-name="Path 260" d="M303.374,200.873a.275.275,0,0,1-.275-.275V101.431l.137-.079,85.742-49.5a.275.275,0,1,1,.275.476l-85.6,49.425V200.6A.275.275,0,0,1,303.374,200.873Z" transform="translate(726.481 124.727)" fill="#646464"/>
      <path id="Line_50" data-name="Line 50" d="M0,49.779a.275.275,0,0,1-.238-.138.275.275,0,0,1,.1-.376L85.6-.238a.275.275,0,0,1,.376.1.275.275,0,0,1-.1.376L.137,49.743A.274.274,0,0,1,0,49.779Z" transform="translate(1115.6 325.325)" fill="#646464"/>
      <path id="Path_261" data-name="Path 261" d="M363.862,259.248l-.138-.079-85.746-49.5a.275.275,0,1,1,.275-.476l85.608,49.425,85.467-49.346v-98.85a.275.275,0,1,1,.55,0v99.168l-.137.079Z" transform="translate(665.995 264.412)" fill="#646464"/>
      <path id="Path_262" data-name="Path 262" d="M414.375,294.169l-86.017-49.663V145.18l.137-.079,85.88-49.584.138.079L500.4,145.18v99.326Zm-85.467-49.981,85.467,49.346,85.471-49.346V145.5L414.375,96.152,328.908,145.5Z" transform="translate(786.966 229.491)" fill="#646464"/>
      <path id="Path_263" data-name="Path 263" d="M525.379,189.363a.274.274,0,0,1-.137-.037L439.634,139.9l-85.6,49.425a.275.275,0,1,1-.275-.476l85.88-49.584.137.079,85.746,49.5a.275.275,0,0,1-.138.513Z" transform="translate(847.451 334.255)" fill="#646464"/>
      <path id="Path_264" data-name="Path 264" d="M227.6,302.954a.275.275,0,0,1-.138-.513l85.6-49.425v-98.85a.275.275,0,1,1,.55,0v99.168l-.138.079-85.742,49.5A.274.274,0,0,1,227.6,302.954Z" transform="translate(545.026 369.176)" fill="#646464"/>
      <path id="Path_265" data-name="Path 265" d="M363.859,288.372a.275.275,0,0,1-.275-.275v-98.85l-85.6-49.425a.275.275,0,1,1,.275-.476l85.88,49.584V288.1A.275.275,0,0,1,363.859,288.372Z" transform="translate(665.996 334.255)" fill="#646464"/>
      <path id="Path_266" data-name="Path 266" d="M338.6,302.954a.274.274,0,0,1-.137-.037l-85.88-49.584V154.166a.275.275,0,1,1,.55,0v98.85l85.6,49.425a.275.275,0,0,1-.138.513Z" transform="translate(605.511 369.176)" fill="#646464"/>
      <path id="Path_267" data-name="Path 267" d="M237.567,302.954a.274.274,0,0,1-.137-.037l-85.88-49.584V154.166a.275.275,0,1,1,.55,0v98.85l85.6,49.425a.275.275,0,0,1-.138.513Z" transform="translate(363.57 369.176)" fill="#646464"/>
      <g id="Group_2903" data-name="Group 2903" transform="translate(429.649)">
        <g id="Group_2902" data-name="Group 2902" clip-path="url(#clip-path-2)">
          <path id="Path_268" data-name="Path 268" d="M212.309,381.667l-.138-.079L126.291,332V232.68l.137-.079,85.88-49.587.137.079L298.33,232.68V332l-.138.079Zm-85.467-49.981,85.467,49.346,85.471-49.346V233l-85.471-49.349L126.841,233Z" transform="translate(-126.565 439.017)" fill="#646464"/>
        </g>
      </g>
      <path id="Path_269" data-name="Path 269" d="M262.825,346.7a.274.274,0,0,1-.137-.037l-85.88-49.584V197.914a.275.275,0,0,1,.55,0v98.85l85.6,49.425a.275.275,0,0,1-.138.513Z" transform="translate(424.055 473.939)" fill="#646464"/>
      <path id="Line_51" data-name="Line 51" d="M0,99.28a.275.275,0,0,1-.275-.275V0A.275.275,0,0,1,0-.275.275.275,0,0,1,.275,0V99.005A.275.275,0,0,1,0,99.28Z" transform="translate(772.625 671.855)" fill="#646464"/>
      <g id="Group_2905" data-name="Group 2905" transform="translate(429.649)">
        <g id="Group_2904" data-name="Group 2904" clip-path="url(#clip-path-2)">
          <path id="Path_270" data-name="Path 270" d="M126.567,337.876a.275.275,0,0,1-.138-.513l85.6-49.425V189.246l-85.6-49.425a.275.275,0,0,1,.275-.476l85.88,49.584v99.326l-.137.079-85.742,49.5A.274.274,0,0,1,126.567,337.876Z" transform="translate(-126.565 334.255)" fill="#646464"/>
          <path id="Line_52" data-name="Line 52" d="M0,99.284a.275.275,0,0,1-.275-.275V0A.275.275,0,0,1,0-.275.275.275,0,0,1,.275,0V99.009A.275.275,0,0,1,0,99.284Z" transform="translate(0.001 374.829)" fill="#646464"/>
          <path id="Line_53" data-name="Line 53" d="M0,99.28a.275.275,0,0,1-.275-.275V0A.275.275,0,0,1,0-.275.275.275,0,0,1,.275,0V99.005A.275.275,0,0,1,0,99.28Z" transform="translate(0.001 671.855)" fill="#646464"/>
        </g>
      </g>
      <path id="Path_271" data-name="Path 271" d="M363.859,124.682l86.021,49.663v99.326l-86.021,49.663-.138-.079-85.88-49.584V174.345Zm85.471,49.981-85.471-49.346-85.467,49.346v98.691L363.859,322.7l85.471-49.346Z" transform="translate(665.996 299.333)" fill="#646464"/>
      <path id="Path_272" data-name="Path 272" d="M353.892,230.039a.275.275,0,0,1-.275-.275V130.6l.138-.079,85.742-49.5a.275.275,0,0,1,.275.476l-85.6,49.425v98.85A.275.275,0,0,1,353.892,230.039Z" transform="translate(847.452 194.569)" fill="#646464"/>
      <path id="Line_54" data-name="Line 54" d="M0,49.779a.275.275,0,0,1-.238-.138.275.275,0,0,1,.1-.376L85.6-.238a.275.275,0,0,1,.376.1.275.275,0,0,1-.1.376L.137,49.743A.274.274,0,0,1,0,49.779Z" transform="translate(1287.086 424.332)" fill="#646464"/>
      <path id="Path_273" data-name="Path 273" d="M338.6,273.788a.275.275,0,0,1-.275-.275v-98.85l-85.6-49.425a.275.275,0,1,1,.275-.476l85.88,49.584v99.168A.275.275,0,0,1,338.6,273.788Z" transform="translate(605.511 299.332)" fill="#646464"/>
      <path id="Path_274" data-name="Path 274" d="M373.829,230.039a.275.275,0,0,1-.275-.275v-98.85L288.087,81.568l-85.471,49.346v98.85a.275.275,0,1,1-.55,0V130.6l.137-.079,85.883-49.584L374.1,130.6v99.168A.275.275,0,0,1,373.829,230.039Z" transform="translate(484.539 194.568)" fill="#646464"/>
      <path id="Path_275" data-name="Path 275" d="M338.6,80.933l.137.079,85.88,49.584v99.326l-.138.079L338.6,279.586l-.138-.079-85.88-49.584V130.6l.138-.079Zm85.467,49.981L338.6,81.569l-85.467,49.346v98.691L338.6,278.951l85.467-49.346Z" transform="translate(605.511 194.569)" fill="#646464"/>
      <path id="Path_276" data-name="Path 276" d="M177.083,244.622a.275.275,0,0,1-.138-.513l85.6-49.425V95.834a.275.275,0,1,1,.55,0V195l-.138.079-85.742,49.5A.274.274,0,0,1,177.083,244.622Z" transform="translate(424.055 229.49)" fill="#646464"/>
      <g id="Group_2907" data-name="Group 2907" transform="translate(429.649)">
        <g id="Group_2906" data-name="Group 2906" clip-path="url(#clip-path-2)">
          <path id="Path_277" data-name="Path 277" d="M126.566,186.287a.275.275,0,0,1-.275-.275V86.848l.137-.079,85.883-49.584.137.079,85.742,49.5a.275.275,0,0,1-.275.476l-85.6-49.425L126.841,87.166v98.847A.275.275,0,0,1,126.566,186.287Z" transform="translate(-126.566 89.806)" fill="#646464"/>
        </g>
      </g>
      <path id="Path_278" data-name="Path 278" d="M262.826,235.795a.275.275,0,0,1-.138-.513l85.6-49.425V87.165L262.826,37.82l-85.6,49.425a.275.275,0,0,1-.275-.476l85.88-49.584,86.017,49.663v99.326l-.138.079-85.742,49.5A.274.274,0,0,1,262.826,235.795Z" transform="translate(424.055 89.805)" fill="#646464"/>
      <path id="Path_279" data-name="Path 279" d="M288.083,157.125a.274.274,0,0,1-.137-.037L202.066,107.5V8.337a.275.275,0,0,1,.55,0v98.85l85.6,49.425a.275.275,0,0,1-.138.513Z" transform="translate(484.54 19.963)" fill="#646464"/>
      <g id="Group_2909" data-name="Group 2909" transform="translate(429.649)">
        <g id="Group_2908" data-name="Group 2908" clip-path="url(#clip-path-2)">
          <path id="Line_55" data-name="Line 55" d="M0,99.28a.275.275,0,0,1-.275-.275V0A.275.275,0,0,1,0-.275.275.275,0,0,1,.275,0V99.005A.275.275,0,0,1,0,99.28Z" transform="translate(0.001 176.814)" fill="#646464"/>
          <path id="Line_56" data-name="Line 56" d="M0,99.28a.275.275,0,0,1-.275-.275V0A.275.275,0,0,1,0-.275.275.275,0,0,1,.275,0V99.005A.275.275,0,0,1,0,99.28Z" transform="translate(0.001 176.813)" fill="#646464"/>
          <path id="Path_280" data-name="Path 280" d="M126.567,157.125a.275.275,0,0,1-.138-.513l85.6-49.425V8.336a.275.275,0,0,1,.55,0V107.5L126.7,157.088A.274.274,0,0,1,126.567,157.125Z" transform="translate(-126.565 19.963)" fill="#646464"/>
        </g>
      </g>
      <path id="Path_281" data-name="Path 281" d="M474.862,288.371a.275.275,0,0,1-.275-.275v-98.85L389.12,139.9l-85.471,49.346V288.1a.275.275,0,1,1-.55,0V188.928l.137-.079,85.883-49.584,86.017,49.663V288.1A.275.275,0,0,1,474.862,288.371Z" transform="translate(726.48 334.254)" fill="#646464"/>
      <path id="Path_282" data-name="Path 282" d="M363.859,259.247l-.138-.079-85.742-49.5a.275.275,0,1,1,.275-.476l85.6,49.425,85.471-49.346v-98.85a.275.275,0,0,1,.55,0v99.168l-.138.079Z" transform="translate(665.996 264.411)" fill="#646464"/>
      <path id="Path_283" data-name="Path 283" d="M414.375,95.516l.138.079L500.4,145.179v99.326l-86.021,49.663-.137-.079-85.88-49.584V145.179ZM499.846,145.5,414.375,96.151,328.908,145.5v98.691l85.467,49.346,85.471-49.346Z" transform="translate(786.966 229.49)" fill="#646464"/>
      <path id="Path_284" data-name="Path 284" d="M227.6,250.375a.275.275,0,0,1-.138-.513l85.605-49.425V101.745L227.462,52.324a.275.275,0,1,1,.275-.476l85.88,49.58v99.326l-85.88,49.584A.274.274,0,0,1,227.6,250.375Z" transform="translate(545.026 124.728)" fill="#646464"/>
      <path id="Path_285" data-name="Path 285" d="M363.859,200.873a.275.275,0,0,1-.275-.275v-98.85l-85.6-49.425a.275.275,0,0,1,.275-.476l85.88,49.584V200.6A.275.275,0,0,1,363.859,200.873Z" transform="translate(665.996 124.726)" fill="#646464"/>
      <path id="Path_286" data-name="Path 286" d="M237.568,250.417l-.137-.079-85.88-49.58V101.431l.138-.079,85.742-49.5a.275.275,0,1,1,.275.476l-85.6,49.425V200.44l85.467,49.342,85.6-49.422a.275.275,0,0,1,.275.476Z" transform="translate(363.57 124.727)" fill="#646464"/>
      <path id="Line_57" data-name="Line 57" d="M85.742,49.779a.274.274,0,0,1-.137-.037L-.138.238a.275.275,0,0,1-.1-.376.275.275,0,0,1,.376-.1l85.742,49.5a.275.275,0,0,1-.138.513Z" transform="translate(515.396 28.299)" fill="#646464"/>
      <g id="Group_2911" data-name="Group 2911" transform="translate(429.649)">
        <g id="Group_2910" data-name="Group 2910" clip-path="url(#clip-path-2)">
          <path id="Path_287" data-name="Path 287" d="M212.309,171.75l-.137-.079-85.88-49.584V22.919a.275.275,0,1,1,.55,0v98.85l85.467,49.346,85.608-49.425a.275.275,0,1,1,.275.476Z" transform="translate(-126.565 54.884)" fill="#646464"/>
        </g>
      </g>
      <path id="Line_58" data-name="Line 58" d="M0,49.779a.275.275,0,0,1-.238-.138.275.275,0,0,1,.1-.376L85.6-.238a.275.275,0,0,1,.376.1.275.275,0,0,1-.1.376L.137,49.743A.274.274,0,0,1,0,49.779Z" transform="translate(601.139 28.3)" fill="#646464"/>
      <path id="Line_59" data-name="Line 59" d="M0,99.284a.275.275,0,0,1-.275-.275V0A.275.275,0,0,1,0-.275.275.275,0,0,1,.275,0V99.009A.275.275,0,0,1,0,99.284Z" transform="translate(772.625 77.804)" fill="#646464"/>
      <g id="Group_2913" data-name="Group 2913" transform="translate(429.649)">
        <g id="Group_2912" data-name="Group 2912" clip-path="url(#clip-path-2)">
          <path id="Path_288" data-name="Path 288" d="M212.309,200.873a.275.275,0,0,1-.275-.275v-98.85l-85.6-49.425a.275.275,0,0,1,.275-.476l85.88,49.584V200.6A.275.275,0,0,1,212.309,200.873Z" transform="translate(-126.564 124.726)" fill="#646464"/>
          <path id="Line_60" data-name="Line 60" d="M0,99.284a.275.275,0,0,1-.275-.275V0A.275.275,0,0,1,0-.275.275.275,0,0,1,.275,0V99.009A.275.275,0,0,1,0,99.284Z" transform="translate(0.001 77.804)" fill="#646464"/>
        </g>
      </g>
      <path id="Path_289" data-name="Path 289" d="M237.567,337.915l-.138-.079-85.88-49.58V189.087a.275.275,0,1,1,.55,0v98.85l85.467,49.342,85.471-49.342V189.246L237.43,139.821a.275.275,0,1,1,.275-.476l85.883,49.584v99.326l-.138.079Z" transform="translate(363.569 334.254)" fill="#646464"/>
      <g id="Group_2915" data-name="Group 2915" transform="translate(429.649)">
        <g id="Group_2914" data-name="Group 2914" clip-path="url(#clip-path-2)">
          <path id="Path_290" data-name="Path 290" d="M126.567,244.622a.275.275,0,0,1-.138-.513l85.6-49.425V95.834a.275.275,0,1,1,.55,0V195l-.137.079-85.742,49.5A.274.274,0,0,1,126.567,244.622Z" transform="translate(-126.565 229.49)" fill="#646464"/>
        </g>
      </g>
      <path id="Line_61" data-name="Line 61" d="M0,99.284a.275.275,0,0,1-.275-.275V0A.275.275,0,0,1,0-.275.275.275,0,0,1,.275,0V99.009A.275.275,0,0,1,0,99.284Z" transform="translate(601.138 473.837)" fill="#646464"/>
      <g id="Group_2917" data-name="Group 2917" transform="translate(429.649)">
        <g id="Group_2916" data-name="Group 2916" clip-path="url(#clip-path-2)">
          <path id="Path_291" data-name="Path 291" d="M126.567,273.788a.275.275,0,0,1-.275-.275V174.346l.137-.079,85.742-49.5a.275.275,0,1,1,.275.476l-85.6,49.425v98.85A.275.275,0,0,1,126.567,273.788Z" transform="translate(-126.565 299.333)" fill="#646464"/>
        </g>
      </g>
      <path id="Line_62" data-name="Line 62" d="M0,49.779a.275.275,0,0,1-.238-.138.275.275,0,0,1,.1-.376L85.6-.238a.275.275,0,0,1,.376.1.275.275,0,0,1-.1.376L.137,49.743A.274.274,0,0,1,0,49.779Z" transform="translate(686.881 572.845)" fill="#646464"/>
      <g id="Group_2919" data-name="Group 2919" transform="translate(429.649)">
        <g id="Group_2918" data-name="Group 2918" clip-path="url(#clip-path-2)">
          <path id="Path_292" data-name="Path 292" d="M236.284,26.511a5.092,5.092,0,1,1-5.092-5.092,5.094,5.094,0,0,1,5.092,5.092" transform="translate(111.785 51.291)" fill="#323232"/>
          <path id="Path_293" data-name="Path 293" d="M185.767,55.677a5.092,5.092,0,1,1-5.092-5.092,5.094,5.094,0,0,1,5.092,5.092" transform="translate(-9.187 121.134)" fill="#323232"/>
          <path id="Path_294" data-name="Path 294" d="M286.8,55.677a5.092,5.092,0,1,1-5.092-5.092,5.094,5.094,0,0,1,5.092,5.092" transform="translate(232.754 121.134)" fill="#323232"/>
          <path id="Path_295" data-name="Path 295" d="M337.317,55.678a5.092,5.092,0,1,1-5.092-5.092,5.094,5.094,0,0,1,5.092,5.092" transform="translate(353.725 121.137)" fill="#323232"/>
          <path id="Path_296" data-name="Path 296" d="M337.317,114.009a5.092,5.092,0,1,1-5.092-5.092,5.094,5.094,0,0,1,5.092,5.092" transform="translate(353.725 260.82)" fill="#323232"/>
          <path id="Path_297" data-name="Path 297" d="M286.8,143.175a5.092,5.092,0,1,1-5.092-5.092,5.094,5.094,0,0,1,5.092,5.092" transform="translate(232.754 330.663)" fill="#323232"/>
          <path id="Path_298" data-name="Path 298" d="M261.542,99.426a5.092,5.092,0,1,1-5.092-5.092,5.094,5.094,0,0,1,5.092,5.092" transform="translate(172.269 225.898)" fill="#323232"/>
          <path id="Path_299" data-name="Path 299" d="M185.767,114.009a5.092,5.092,0,1,1-5.092-5.092,5.094,5.094,0,0,1,5.092,5.092" transform="translate(-9.187 260.82)" fill="#323232"/>
          <path id="Path_300" data-name="Path 300" d="M211.025,157.758a5.092,5.092,0,1,1-5.092-5.092,5.094,5.094,0,0,1,5.092,5.092" transform="translate(51.298 365.584)" fill="#323232"/>
          <path id="Path_301" data-name="Path 301" d="M160.509,157.758a5.092,5.092,0,1,1-5.092-5.092,5.094,5.094,0,0,1,5.092,5.092" transform="translate(-69.671 365.584)" fill="#323232"/>
          <path id="Path_302" data-name="Path 302" d="M387.834,84.843a5.092,5.092,0,1,1-5.092-5.092,5.092,5.092,0,0,1,5.092,5.092" transform="translate(474.696 190.977)" fill="#323232"/>
          <path id="Path_303" data-name="Path 303" d="M413.092,128.592A5.092,5.092,0,1,1,408,123.5a5.092,5.092,0,0,1,5.092,5.092" transform="translate(535.181 295.741)" fill="#323232"/>
          <path id="Path_304" data-name="Path 304" d="M362.575,186.924a5.092,5.092,0,1,1-5.092-5.092,5.094,5.094,0,0,1,5.092,5.092" transform="translate(414.209 435.427)" fill="#323232"/>
          <path id="Path_305" data-name="Path 305" d="M286.8,201.507a5.092,5.092,0,1,1-5.092-5.092,5.094,5.094,0,0,1,5.092,5.092" transform="translate(232.754 470.348)" fill="#323232"/>
          <path id="Path_306" data-name="Path 306" d="M236.284,230.672a5.092,5.092,0,1,1-5.092-5.092,5.094,5.094,0,0,1,5.092,5.092" transform="translate(111.785 540.189)" fill="#323232"/>
          <path id="Path_307" data-name="Path 307" d="M160.509,216.09A5.092,5.092,0,1,1,155.417,211a5.094,5.094,0,0,1,5.092,5.092" transform="translate(-69.671 505.27)" fill="#323232"/>
          <path id="Path_308" data-name="Path 308" d="M211.025,245.255a5.092,5.092,0,1,1-5.092-5.092,5.094,5.094,0,0,1,5.092,5.092" transform="translate(51.298 575.11)" fill="#323232"/>
        </g>
      </g>
    </g>
  </g>
</svg>
