<svg id="Icon_awesome-youtube" data-name="Icon awesome-youtube" xmlns="http://www.w3.org/2000/svg" width="28.982" height="20.378" viewBox="0 0 28.982 20.378">
  <path id="Icon_awesome-youtube-2" data-name="Icon awesome-youtube" d="M29.426,7.688A3.642,3.642,0,0,0,26.864,5.11C24.6,4.5,15.541,4.5,15.541,4.5s-9.063,0-11.323.61A3.642,3.642,0,0,0,1.656,7.688,38.2,38.2,0,0,0,1.05,14.71a38.2,38.2,0,0,0,.606,7.021,3.587,3.587,0,0,0,2.562,2.538c2.26.61,11.323.61,11.323.61s9.063,0,11.323-.61a3.587,3.587,0,0,0,2.562-2.538,38.2,38.2,0,0,0,.606-7.021,38.2,38.2,0,0,0-.606-7.021ZM12.577,19.019V10.4l7.575,4.309-7.575,4.309Z" transform="translate(-1.05 -4.5)"/>
</svg>
